<?xml version="1.0" encoding="UTF-8" standalone="no"?>
<!-- Created with Inkscape (http://www.inkscape.org/) -->

<svg
   xmlns:osb="http://www.openswatchbook.org/uri/2009/osb"
   xmlns:dc="http://purl.org/dc/elements/1.1/"
   xmlns:cc="http://creativecommons.org/ns#"
   xmlns:rdf="http://www.w3.org/1999/02/22-rdf-syntax-ns#"
   xmlns:svg="http://www.w3.org/2000/svg"
   xmlns="http://www.w3.org/2000/svg"
   xmlns:sodipodi="http://sodipodi.sourceforge.net/DTD/sodipodi-0.dtd"
   xmlns:inkscape="http://www.inkscape.org/namespaces/inkscape"
   width="1280"
   height="1080"
   viewBox="0 0 338.66668 285.75"
   version="1.1"
   id="svg8"
   inkscape:version="0.92.4 5da689c313, 2019-01-14"
   sodipodi:docname="fig1-6.svg"
   inkscape:export-filename="/home/jakub/Documents/notatki-analiza-III/w/img/fig1-5.png"
   inkscape:export-xdpi="96"
   inkscape:export-ydpi="96">
  <defs
     id="defs2">
    <inkscape:path-effect
       effect="spiro"
       id="path-effect5948"
       is_visible="true" />
    <inkscape:path-effect
       effect="bspline"
       id="path-effect5944"
       is_visible="true"
       weight="33.333333"
       steps="2"
       helper_size="0"
       apply_no_weight="true"
       apply_with_weight="true"
       only_selected="false" />
    <inkscape:path-effect
       effect="bspline"
       id="path-effect5379"
       is_visible="true"
       weight="33.333333"
       steps="2"
       helper_size="0"
       apply_no_weight="true"
       apply_with_weight="true"
       only_selected="false" />
    <marker
       inkscape:stockid="Arrow1Lstart"
       orient="auto"
       refY="0.0"
       refX="0.0"
       id="marker4335"
       style="overflow:visible"
       inkscape:isstock="true">
      <path
         id="path4333"
         d="M 0.0,0.0 L 5.0,-5.0 L -12.5,0.0 L 5.0,5.0 L 0.0,0.0 z "
         style="fill-rule:evenodd;stroke:#0036ff;stroke-width:1pt;stroke-opacity:1;fill:#0036ff;fill-opacity:1"
         transform="scale(0.8) translate(12.5,0)" />
    </marker>
    <marker
       inkscape:isstock="true"
       style="overflow:visible;"
       id="marker4229"
       refX="0.0"
       refY="0.0"
       orient="auto"
       inkscape:stockid="Arrow1Lend">
      <path
         transform="scale(0.8) rotate(180) translate(12.5,0)"
         style="fill-rule:evenodd;stroke:#000000;stroke-width:1pt;stroke-opacity:1;fill:#000000;fill-opacity:1"
         d="M 0.0,0.0 L 5.0,-5.0 L -12.5,0.0 L 5.0,5.0 L 0.0,0.0 z "
         id="path4227" />
    </marker>
    <marker
       inkscape:stockid="Arrow1Mend"
       orient="auto"
       refY="0.0"
       refX="0.0"
       id="marker3710"
       style="overflow:visible;"
       inkscape:isstock="true">
      <path
         id="path3708"
         d="M 0.0,0.0 L 5.0,-5.0 L -12.5,0.0 L 5.0,5.0 L 0.0,0.0 z "
         style="fill-rule:evenodd;stroke:#000000;stroke-width:1pt;stroke-opacity:1;fill:#000000;fill-opacity:1"
         transform="scale(0.4) rotate(180) translate(10,0)" />
    </marker>
    <inkscape:path-effect
       effect="spiro"
       id="path-effect3700"
       is_visible="true" />
    <inkscape:path-effect
       effect="spiro"
       id="path-effect3696"
       is_visible="true" />
    <inkscape:path-effect
       effect="spiro"
       id="path-effect3692"
       is_visible="true" />
    <inkscape:path-effect
       effect="spiro"
       id="path-effect3688"
       is_visible="true" />
    <inkscape:path-effect
       effect="spiro"
       id="path-effect3684"
       is_visible="true" />
    <inkscape:path-effect
       effect="spiro"
       id="path-effect3680"
       is_visible="true" />
    <linearGradient
       osb:paint="gradient"
       id="linearGradient3143">
      <stop
         id="stop3139"
         offset="0"
         style="stop-color:#75507b;stop-opacity:1;" />
      <stop
         id="stop3141"
         offset="1"
         style="stop-color:#75507b;stop-opacity:0;" />
    </linearGradient>
    <marker
       inkscape:isstock="true"
       style="overflow:visible;"
       id="marker1945"
       refX="0.0"
       refY="0.0"
       orient="auto"
       inkscape:stockid="Arrow1Mend">
      <path
         transform="scale(0.4) rotate(180) translate(10,0)"
         style="fill-rule:evenodd;stroke:#0032ff;stroke-width:1pt;stroke-opacity:1;fill:#ffffff;fill-opacity:1"
         d="M 0.0,0.0 L 5.0,-5.0 L -12.5,0.0 L 5.0,5.0 L 0.0,0.0 z "
         id="path1943" />
    </marker>
    <inkscape:path-effect
       effect="spiro"
       id="path-effect1785"
       is_visible="true" />
    <inkscape:path-effect
       effect="spiro"
       id="path-effect1781"
       is_visible="true" />
    <inkscape:path-effect
       effect="spiro"
       id="path-effect1777"
       is_visible="true" />
    <marker
       inkscape:stockid="DotL"
       orient="auto"
       refY="0.0"
       refX="0.0"
       id="DotL"
       style="overflow:visible"
       inkscape:isstock="true">
      <path
         id="path1194"
         d="M -2.5,-1.0 C -2.5,1.7600000 -4.7400000,4.0 -7.5,4.0 C -10.260000,4.0 -12.5,1.7600000 -12.5,-1.0 C -12.5,-3.7600000 -10.260000,-6.0 -7.5,-6.0 C -4.7400000,-6.0 -2.5,-3.7600000 -2.5,-1.0 z "
         style="fill-rule:evenodd;stroke:#000000;stroke-width:1pt;stroke-opacity:1;fill:#000000;fill-opacity:1"
         transform="scale(0.8) translate(7.4, 1)" />
    </marker>
    <marker
       inkscape:stockid="Arrow1Mstart"
       orient="auto"
       refY="0.0"
       refX="0.0"
       id="Arrow1Mstart"
       style="overflow:visible"
       inkscape:isstock="true">
      <path
         id="path1139"
         d="M 0.0,0.0 L 5.0,-5.0 L -12.5,0.0 L 5.0,5.0 L 0.0,0.0 z "
         style="fill-rule:evenodd;stroke:#000000;stroke-width:1pt;stroke-opacity:1;fill:#000000;fill-opacity:1"
         transform="scale(0.4) translate(10,0)" />
    </marker>
    <marker
       inkscape:stockid="Tail"
       orient="auto"
       refY="0.0"
       refX="0.0"
       id="Tail"
       style="overflow:visible"
       inkscape:isstock="true">
      <g
         id="g1181"
         transform="scale(-1.2)"
         style="stroke:#000000;stroke-opacity:1;fill:#000000;fill-opacity:1">
        <path
           id="path1169"
           d="M -3.8048674,-3.9585227 L 0.54352094,0"
           style="fill:#000000;fill-rule:evenodd;stroke:#000000;stroke-width:0.8;stroke-linecap:round;stroke-opacity:1;fill-opacity:1" />
        <path
           id="path1171"
           d="M -1.2866832,-3.9585227 L 3.0617053,0"
           style="fill:#000000;fill-rule:evenodd;stroke:#000000;stroke-width:0.8;stroke-linecap:round;stroke-opacity:1;fill-opacity:1" />
        <path
           id="path1173"
           d="M 1.3053582,-3.9585227 L 5.6537466,0"
           style="fill:#000000;fill-rule:evenodd;stroke:#000000;stroke-width:0.8;stroke-linecap:round;stroke-opacity:1;fill-opacity:1" />
        <path
           id="path1175"
           d="M -3.8048674,4.1775838 L 0.54352094,0.21974226"
           style="fill:#000000;fill-rule:evenodd;stroke:#000000;stroke-width:0.8;stroke-linecap:round;stroke-opacity:1;fill-opacity:1" />
        <path
           id="path1177"
           d="M -1.2866832,4.1775838 L 3.0617053,0.21974226"
           style="fill:#000000;fill-rule:evenodd;stroke:#000000;stroke-width:0.8;stroke-linecap:round;stroke-opacity:1;fill-opacity:1" />
        <path
           id="path1179"
           d="M 1.3053582,4.1775838 L 5.6537466,0.21974226"
           style="fill:#000000;fill-rule:evenodd;stroke:#000000;stroke-width:0.8;stroke-linecap:round;stroke-opacity:1;fill-opacity:1" />
      </g>
    </marker>
    <inkscape:path-effect
       effect="bspline"
       id="path-effect224"
       is_visible="true"
       weight="33.333333"
       steps="2"
       helper_size="0"
       apply_no_weight="true"
       apply_with_weight="true"
       only_selected="false" />
    <inkscape:path-effect
       effect="bspline"
       id="path-effect224-3"
       is_visible="true"
       weight="33.333333"
       steps="2"
       helper_size="0"
       apply_no_weight="true"
       apply_with_weight="true"
       only_selected="false" />
    <marker
       inkscape:stockid="Arrow1Mend"
       orient="auto"
       refY="0"
       refX="0"
       id="marker3710-6"
       style="overflow:visible"
       inkscape:isstock="true">
      <path
         inkscape:connector-curvature="0"
         id="path3708-2"
         d="M 0,0 5,-5 -12.5,0 5,5 Z"
         style="fill:#8800ff;fill-opacity:1;fill-rule:evenodd;stroke:#8800ff;stroke-width:1.00000003pt;stroke-opacity:1"
         transform="matrix(-0.4,0,0,-0.4,-4,0)" />
    </marker>
    <marker
       inkscape:stockid="Arrow1Mend"
       orient="auto"
       refY="0"
       refX="0"
       id="marker3710-1"
       style="overflow:visible"
       inkscape:isstock="true">
      <path
         inkscape:connector-curvature="0"
         id="path3708-27"
         d="M 0,0 5,-5 -12.5,0 5,5 Z"
         style="fill:#8800ff;fill-opacity:1;fill-rule:evenodd;stroke:#8800ff;stroke-width:1.00000003pt;stroke-opacity:1"
         transform="matrix(-0.4,0,0,-0.4,-4,0)" />
    </marker>
    <marker
       inkscape:stockid="Arrow1Mend"
       orient="auto"
       refY="0"
       refX="0"
       id="marker3710-9"
       style="overflow:visible"
       inkscape:isstock="true">
      <path
         inkscape:connector-curvature="0"
         id="path3708-3"
         d="M 0,0 5,-5 -12.5,0 5,5 Z"
         style="fill:#8800ff;fill-opacity:1;fill-rule:evenodd;stroke:#8800ff;stroke-width:1.00000003pt;stroke-opacity:1"
         transform="matrix(-0.4,0,0,-0.4,-4,0)" />
    </marker>
    <marker
       inkscape:stockid="Arrow1Mend"
       orient="auto"
       refY="0"
       refX="0"
       id="marker3710-0"
       style="overflow:visible"
       inkscape:isstock="true">
      <path
         inkscape:connector-curvature="0"
         id="path3708-6"
         d="M 0,0 5,-5 -12.5,0 5,5 Z"
         style="fill:#8800ff;fill-opacity:1;fill-rule:evenodd;stroke:#8800ff;stroke-width:1.00000003pt;stroke-opacity:1"
         transform="matrix(-0.4,0,0,-0.4,-4,0)" />
    </marker>
  </defs>
  <sodipodi:namedview
     id="base"
     pagecolor="#ffffff"
     bordercolor="#666666"
     borderopacity="1.0"
     inkscape:pageopacity="0.0"
     inkscape:pageshadow="2"
     inkscape:zoom="0.417193"
     inkscape:cx="901.08289"
     inkscape:cy="488.5269"
     inkscape:document-units="mm"
     inkscape:current-layer="layer1"
     showgrid="true"
     showguides="true"
     showborder="true"
     borderlayer="true"
     inkscape:showpageshadow="false"
     inkscape:pagecheckerboard="false"
     objecttolerance="10"
     inkscape:snap-path-clip="true"
     inkscape:snap-path-mask="true"
     gridtolerance="10"
     units="px">
    <inkscape:grid
       id="grid10"
       type="xygrid" />
  </sodipodi:namedview>
  <metadata
     id="metadata5">
    <rdf:RDF>
      <cc:Work
         rdf:about="">
        <dc:format>image/svg+xml</dc:format>
        <dc:type
           rdf:resource="http://purl.org/dc/dcmitype/StillImage" />
        <dc:title></dc:title>
      </cc:Work>
    </rdf:RDF>
  </metadata>
  <g
     inkscape:label="Layer 1"
     inkscape:groupmode="layer"
     id="layer1"
     transform="translate(0,-11.25001)">
    <path
       style="opacity:1;vector-effect:none;fill:none;fill-opacity:1;stroke:#ff0044;stroke-width:1.51939726;stroke-linecap:butt;stroke-linejoin:miter;stroke-miterlimit:4;stroke-dasharray:none;stroke-dashoffset:0;stroke-opacity:1"
       d="m 110.44065,247.58454 c 0,0 10.90766,36.26932 55.57512,36.26932 56.09355,0 56.09355,-63.0698 56.09355,-63.0698 0,0 12.49674,-78.79544 -58.9712,-78.79544 -71.467952,0 -53.76814,90.94095 -0.16714,90.94095 53.60097,0 58.78714,-52.34623 58.78714,-74.14464 0,-31.80255 -17.51573,-61.831937 -52.89848,-61.831937 -22.68497,0 -51.45961,7.695657 -51.45961,36.102127 0,20.72774 6.44092,47.52822 46.64164,47.52822 0,0 58.06765,4.46676 53.60091,-71.46794 -4.46676,-75.934704 -80.40144,-84.868187 -80.40144,-84.868187"
       id="path5984"
       inkscape:connector-curvature="0"
       sodipodi:nodetypes="cscsssssc" />
    <circle
       id="path7921"
       style="fill:#000000;stroke:none"
       cx="111.125"
       cy="249.37502"
       r="5.1023617" />
    <circle
       id="path7923"
       style="fill:#000000;stroke:none"
       cx="136.31493"
       cy="24.370138"
       r="5.1023617" />
    <g
       id="g7991"
       transform="translate(-9.6848083,-57.750148)">
      <g
         word-spacing="normal"
         letter-spacing="normal"
         font-size-adjust="none"
         font-stretch="normal"
         font-weight="normal"
         font-variant="normal"
         font-style="normal"
         stroke-miterlimit="10.433"
         xml:space="preserve"
         transform="matrix(0.40821429,0,0,-0.40821429,-71.4375,254)"
         id="content"
         style="font-style:normal;font-variant:normal;font-weight:normal;font-stretch:normal;letter-spacing:normal;word-spacing:normal;text-anchor:start;fill:none;fill-opacity:1;fill-rule:evenodd;stroke:#000000;stroke-linecap:butt;stroke-linejoin:miter;stroke-miterlimit:10.43299961;stroke-dasharray:none;stroke-dashoffset:0;stroke-opacity:1"><path
           id="path7988"
           d="m 463.49,410.09 -0.05,-0.18 -0.04,-0.17 -0.05,-0.16 -0.04,-0.15 -0.04,-0.15 -0.05,-0.13 -0.05,-0.13 -0.05,-0.12 -0.05,-0.11 -0.06,-0.11 -0.07,-0.1 -0.07,-0.09 -0.07,-0.09 -0.09,-0.07 -0.09,-0.08 -0.11,-0.06 -0.11,-0.07 -0.13,-0.05 -0.13,-0.05 -0.15,-0.05 -0.16,-0.04 -0.09,-0.02 -0.09,-0.01 -0.09,-0.02 -0.1,-0.02 -0.1,-0.01 -0.1,-0.01 -0.11,-0.01 -0.12,-0.02 -0.11,-0.01 -0.13,-0.01 h -0.12 l -0.13,-0.01 -0.14,-0.01 h -0.14 l -0.14,-0.01 h -0.15 l -0.16,-0.01 h -0.16 -0.16 -0.17 -0.18 -0.18 c -0.85,0 -1.35,0 -1.35,-1 0,-0.55 0.46,-0.55 1.35,-0.55 h 17.78 c 7.87,0 13.75,5.87 13.75,10.76 0,3.58 -2.89,6.47 -7.72,7.02 5.19,0.95 10.42,4.64 10.42,9.38 0,3.68 -3.3,6.87 -9.28,6.87 l -0.69,-1.55 c 4.38,0 5.42,-2.93 5.42,-5.12 0,-4.39 -4.28,-9.13 -10.35,-9.13 h -7.27 l -0.3,-1.09 h 9.41 c 4.78,0 5.73,-3.69 5.73,-5.83 0,-4.94 -4.43,-9.76 -10.31,-9.76 h -6.78 c -0.69,0 -0.8,0 -1.09,0.04 -0.5,0.05 -0.64,0.1 -0.64,0.5 0,0.14 0,0.25 0.25,1.14 l 3.43,13.91 0.3,1.09 3.08,12.36 c 0.45,1.74 0.54,1.89 2.7,1.89 h 6.42 l 0.69,1.55 h -16.73 c -0.94,0 -1.44,0 -1.44,-1 0,-0.55 0.44,-0.55 1.39,-0.55 0.09,0 1.05,0 1.89,-0.09 0.89,-0.11 1.34,-0.16 1.34,-0.8 0,-0.2 -0.04,-0.36 -0.2,-0.95 z"
           inkscape:connector-curvature="0"
           style="fill:#000000;stroke-width:0" /></g>    </g>
    <g
       id="g8063"
       transform="translate(-24.767873,181.7652)">
      <g
         word-spacing="normal"
         letter-spacing="normal"
         font-size-adjust="none"
         font-stretch="normal"
         font-weight="normal"
         font-variant="normal"
         font-style="normal"
         stroke-miterlimit="10.433"
         xml:space="preserve"
         transform="matrix(0.40821429,0,0,-0.40821429,-71.4375,254)"
         id="g8061"
         style="font-style:normal;font-variant:normal;font-weight:normal;font-stretch:normal;letter-spacing:normal;word-spacing:normal;text-anchor:start;fill:none;fill-opacity:1;fill-rule:evenodd;stroke:#000000;stroke-linecap:butt;stroke-linejoin:miter;stroke-miterlimit:10.43299961;stroke-dasharray:none;stroke-dashoffset:0;stroke-opacity:1"><path
           id="path8059"
           d="m 464.44,411.93 -0.19,-0.3 -0.18,-0.29 -0.19,-0.28 -0.19,-0.26 -0.18,-0.25 -0.19,-0.23 -0.19,-0.22 -0.18,-0.21 -0.19,-0.2 -0.19,-0.18 -0.18,-0.17 -0.19,-0.16 -0.19,-0.15 -0.18,-0.14 -0.19,-0.13 -0.19,-0.12 -0.19,-0.11 -0.19,-0.1 -0.19,-0.09 -0.19,-0.09 -0.19,-0.07 -0.2,-0.07 -0.19,-0.07 -0.2,-0.05 -0.19,-0.05 -0.2,-0.04 -0.2,-0.04 -0.19,-0.03 -0.41,-0.05 -0.4,-0.03 c -0.61,-0.05 -1.05,-0.05 -1.05,-1 0,-0.3 0.25,-0.55 0.64,-0.55 1.34,0 2.89,0.16 4.28,0.16 1.64,0 3.39,-0.16 4.99,-0.16 0.29,0 0.95,0 0.95,0.95 0,0.55 -0.45,0.6 -0.8,0.6 -1.15,0.09 -2.34,0.5 -2.34,1.73 0,0.61 0.3,1.16 0.69,1.84 l 3.79,6.39 h 12.5 l -0.14,1.54 h -11.42 l 9.83,16.45 1.59,-16.45 0.14,-1.54 c 0.11,-1.04 0.8,-7.82 0.8,-8.32 0,-1.5 -2.59,-1.64 -3.58,-1.64 -0.7,0 -1.2,0 -1.2,-1 0,-0.55 0.59,-0.55 0.7,-0.55 2.03,0 4.19,0.16 6.22,0.16 1.25,0 4.39,-0.16 5.64,-0.16 0.3,0 0.89,0 0.89,1 0,0.55 -0.5,0.55 -1.14,0.55 -3.09,0 -3.09,0.34 -3.25,1.79 l -3.03,31.13 c -0.11,1 -0.11,1.2 -0.95,1.2 -0.8,0 -0.99,-0.34 -1.3,-0.84 z"
           inkscape:connector-curvature="0"
           style="fill:#000000;stroke-width:0" /></g>    </g>
    <path
       style="opacity:1;vector-effect:none;fill:none;fill-opacity:1;stroke:#000000;stroke-width:1.6;stroke-linecap:butt;stroke-linejoin:miter;stroke-miterlimit:4;stroke-dasharray:none;stroke-dashoffset:0;stroke-opacity:1;marker-end:url(#marker3710)"
       d="M 222.25,159.41667 V 48.291676"
       id="path8120"
       inkscape:connector-curvature="0" />
    <g
       id="g8223"
       transform="translate(122.43238,72.350617)">
      <g
         word-spacing="normal"
         letter-spacing="normal"
         font-size-adjust="none"
         font-stretch="normal"
         font-weight="normal"
         font-variant="normal"
         font-style="normal"
         stroke-miterlimit="10.433"
         xml:space="preserve"
         transform="matrix(0.40821429,0,0,-0.40821429,-71.4375,254)"
         id="g8221"
         style="font-style:normal;font-variant:normal;font-weight:normal;font-stretch:normal;letter-spacing:normal;word-spacing:normal;text-anchor:start;fill:none;fill-opacity:1;fill-rule:evenodd;stroke:#000000;stroke-linecap:butt;stroke-linejoin:miter;stroke-miterlimit:10.43299961;stroke-dasharray:none;stroke-dashoffset:0;stroke-opacity:1"><path
           id="path8205"
           d="m 457.75,400.12 -0.03,-0.15 -0.04,-0.15 -0.03,-0.14 -0.03,-0.13 -0.04,-0.13 -0.03,-0.11 -0.04,-0.12 -0.03,-0.1 -0.04,-0.1 -0.04,-0.09 -0.04,-0.09 -0.05,-0.08 -0.05,-0.07 -0.05,-0.07 -0.06,-0.07 -0.06,-0.06 -0.07,-0.05 -0.07,-0.05 -0.08,-0.04 -0.09,-0.04 -0.09,-0.04 -0.1,-0.03 -0.11,-0.03 -0.12,-0.02 -0.13,-0.02 -0.06,-0.01 -0.07,-0.01 -0.07,-0.01 -0.08,-0.01 h -0.07 l -0.08,-0.01 h -0.08 l -0.09,-0.01 h -0.08 -0.09 -0.1 -0.09 l -0.1,-0.01 h -0.1 c -0.6,0 -1.14,0 -1.14,-0.93 0,-0.41 0.25,-0.61 0.64,-0.61 1.36,0 2.79,0.15 4.18,0.15 1.64,0 3.35,-0.15 4.94,-0.15 0.25,0 0.89,0 0.89,1 0,0.54 -0.5,0.54 -1.19,0.54 -2.5,0 -2.5,0.36 -2.5,0.8 0,0.61 2.1,8.72 2.46,9.97 0.64,-1.44 2.03,-3.19 4.58,-3.19 l -0.05,1.1 c -3.3,0 -3.94,4.14 -3.94,4.43 0,0.1 0,0.21 0.14,0.8 l 2.46,9.77 c 0.34,1.34 1.68,2.73 2.57,3.48 1.75,1.55 3.21,1.89 4.05,1.89 1.98,0 3.19,-1.73 3.19,-4.69 0,-2.93 -1.64,-8.65 -2.55,-10.56 -1.69,-3.48 -4.08,-5.12 -5.92,-5.12 l 0.05,-1.1 c 5.78,0 12,7.27 12,14.6 0,4.68 -2.83,7.96 -6.63,7.96 -2.48,0 -4.87,-1.78 -6.51,-3.73 -0.5,2.69 -2.65,3.73 -4.49,3.73 -2.3,0 -3.25,-1.93 -3.69,-2.82 -0.9,-1.71 -1.54,-4.69 -1.54,-4.85 0,-0.5 0.5,-0.5 0.59,-0.5 0.5,0 0.55,0.07 0.84,1.16 0.86,3.53 1.85,5.92 3.64,5.92 0.85,0 1.55,-0.39 1.55,-2.28 0,-1.16 -0.15,-1.7 -0.34,-2.55 z"
           inkscape:connector-curvature="0"
           style="fill:#000000;stroke-width:0" /><path
           id="path8207"
           d="m 528.75,422.5 h 0.14 0.15 0.14 l 0.07,0.01 h 0.08 l 0.07,0.01 0.07,0.01 0.07,0.01 0.07,0.01 0.07,0.01 0.06,0.02 0.07,0.02 0.06,0.02 0.06,0.02 0.06,0.03 0.06,0.03 0.05,0.04 0.05,0.03 0.05,0.05 0.04,0.04 0.04,0.05 0.02,0.03 0.02,0.03 0.01,0.02 0.02,0.03 0.01,0.03 0.02,0.04 0.01,0.03 0.01,0.04 0.01,0.03 0.01,0.04 v 0.04 l 0.01,0.04 v 0.04 l 0.01,0.04 v 0.04 0.05 c 0,1 -0.95,1 -1.64,1 h -29.84 c -0.71,0 -1.64,0 -1.64,-1 0,-0.98 0.93,-0.98 1.68,-0.98 z"
           inkscape:connector-curvature="0"
           style="fill:#000000;stroke-width:0" /><path
           id="path8209"
           d="m 528.8,412.82 h 0.07 0.06 l 0.14,0.01 h 0.14 0.07 l 0.07,0.01 0.07,0.01 h 0.07 l 0.06,0.01 0.07,0.02 0.07,0.01 0.06,0.02 0.07,0.02 0.06,0.02 0.06,0.02 0.06,0.03 0.05,0.03 0.05,0.04 0.05,0.04 0.05,0.04 0.04,0.05 0.02,0.02 0.02,0.03 0.02,0.02 0.02,0.03 0.01,0.03 0.02,0.03 0.01,0.03 0.02,0.03 0.01,0.04 0.01,0.03 0.01,0.04 0.01,0.04 v 0.04 l 0.01,0.04 v 0.04 l 0.01,0.04 v 0.05 0.04 c 0,1 -0.95,1 -1.69,1 H 499 c -0.75,0 -1.68,0 -1.68,-1 0,-1 0.93,-1 1.64,-1 z"
           inkscape:connector-curvature="0"
           style="fill:#000000;stroke-width:0" /><path
           id="path8211"
           d="m 555.54,397.73 -0.01,-0.03 -0.01,-0.03 v -0.03 l -0.01,-0.03 -0.01,-0.02 -0.01,-0.03 -0.02,-0.05 -0.01,-0.05 -0.02,-0.04 -0.01,-0.05 -0.01,-0.04 -0.01,-0.04 -0.01,-0.03 -0.02,-0.04 -0.01,-0.03 v -0.03 l -0.01,-0.03 -0.01,-0.03 -0.01,-0.02 v -0.03 l -0.01,-0.02 -0.01,-0.02 v -0.03 l -0.01,-0.02 v -0.02 l -0.01,-0.04 v -0.04 -0.04 l -0.01,-0.04 v -0.03 -0.02 c 0,-1.09 0.96,-1.39 1.46,-1.39 0.25,0 1.34,0.14 1.84,1.3 0.14,0.39 0.39,2.04 1.73,9.11 0.46,-0.05 0.8,-0.1 1.65,-0.1 8.28,0 15.95,7.83 15.95,15.69 l -1.41,-1.09 c 0,-5.63 -6.42,-11.71 -14.09,-11.71 v 0 c -0.39,0 -0.5,0 -0.89,0.05 -0.61,0 -0.66,0.05 -0.66,0.2 0,0.1 0.85,4.63 1,5.38 1.55,6.37 5.44,11.15 9.86,11.15 3.44,0 4.78,-2.68 4.78,-5.07 l 1.41,1.09 c 0,3.89 -1.95,6.87 -5.69,6.87 -7.22,0 -10.2,-9.65 -13.2,-19.37 -5.38,1 -8.18,3.78 -8.18,7.37 0,1.4 1.16,6.88 4.15,10.32 0.39,0.45 0.39,0.54 0.39,0.64 0,0.2 -0.1,0.5 -0.6,0.5 -1.39,0 -5.23,-7.22 -5.23,-12 0,-4.69 3.29,-8.33 8.62,-9.56 z"
           inkscape:connector-curvature="0"
           style="fill:#000000;stroke-width:0" /><path
           id="path8213"
           d="m 596.2,394.25 -0.01,0.02 v 0.03 0.01 0.02 0.01 l -0.01,0.02 v 0.01 l -0.01,0.02 -0.01,0.02 -0.01,0.02 -0.01,0.02 -0.02,0.03 -0.01,0.02 -0.02,0.03 -0.02,0.03 -0.03,0.03 -0.02,0.03 -0.03,0.04 -0.02,0.02 -0.01,0.02 -0.02,0.02 -0.02,0.02 -0.02,0.02 -0.02,0.03 -0.02,0.02 -0.02,0.02 -0.02,0.03 -0.03,0.02 -0.02,0.03 -0.03,0.03 -0.02,0.03 -0.03,0.03 -0.03,0.03 -0.03,0.03 -0.03,0.03 -0.03,0.03 -0.04,0.04 -0.03,0.03 -0.03,0.04 -0.04,0.03 -0.04,0.04 -0.04,0.04 c -6.22,6.28 -7.81,15.69 -7.81,23.31 0,8.67 1.89,17.35 8.01,23.56 0.65,0.61 0.65,0.71 0.65,0.86 0,0.35 -0.19,0.49 -0.49,0.49 -0.5,0 -4.98,-3.38 -7.92,-9.7 -2.55,-5.49 -3.14,-11.02 -3.14,-15.21 0,-3.89 0.55,-9.9 3.28,-15.54 2.98,-6.13 7.28,-9.36 7.78,-9.36 0.3,0 0.49,0.14 0.49,0.5 z"
           inkscape:connector-curvature="0"
           style="fill:#000000;stroke-width:0" /><path
           id="path8215"
           d="m 609.29,426.12 h 4.69 c 0.99,0 1.49,0 1.49,1 0,0.55 -0.5,0.55 -1.4,0.55 h -4.39 c 1.8,7.08 2.05,8.08 2.05,8.37 0,0.85 -0.59,1.35 -1.44,1.35 -0.15,0 -1.54,-0.05 -2,-1.8 l -1.94,-7.92 h -4.68 c -1,0 -1.5,0 -1.5,-0.94 0,-0.61 0.4,-0.61 1.4,-0.61 h 4.38 c -3.58,-14.14 -3.78,-14.98 -3.78,-15.89 0,-2.69 1.89,-4.58 4.58,-4.58 5.07,0 7.92,7.27 7.92,7.67 0,0.5 -0.39,0.5 -0.6,0.5 -0.45,0 -0.5,-0.15 -0.75,-0.7 -2.14,-5.17 -4.78,-6.37 -6.47,-6.37 -1.04,0 -1.54,0.65 -1.54,2.29 0,1.19 0.09,1.55 0.29,2.39 z"
           inkscape:connector-curvature="0"
           style="fill:#000000;stroke-width:0" /><path
           id="path8217"
           d="m 635.02,409.87 v 0.71 l -0.02,0.68 -0.03,0.66 -0.04,0.64 -0.06,0.62 -0.08,0.6 -0.09,0.57 -0.1,0.56 -0.13,0.55 -0.15,0.53 -0.17,0.51 -0.19,0.5 -0.21,0.49 -0.24,0.48 -0.26,0.47 -0.14,0.23 -0.15,0.23 c -1.08,1.61 -3.23,3 -6.03,3 v -0.98 c 1.89,0 3.7,-1.14 4.33,-3.17 0.56,-1.88 0.59,-4.39 0.59,-7.43 0,-2.57 0,-5.15 -0.45,-7.34 -0.7,-3.17 -3.06,-3.94 -4.47,-3.94 v 0 c -1.59,0 -3.72,0.94 -4.42,3.8 -0.49,2.05 -0.49,4.91 -0.49,7.48 0,2.55 0,5.21 0.52,7.11 0.73,2.75 2.97,3.49 4.39,3.49 v 0.98 c -8.08,0 -8.08,-9.51 -8.08,-12.03 0,-2.5 0,-11.81 8.08,-11.81 8.09,0 8.09,9.31 8.09,11.81 z"
           inkscape:connector-curvature="0"
           style="fill:#000000;stroke-width:0" /><path
           id="path8219"
           d="m 653.75,418.65 v 0.37 l -0.01,0.39 -0.01,0.39 -0.01,0.41 -0.04,0.84 -0.06,0.88 -0.08,0.92 -0.11,0.95 -0.13,0.97 -0.17,1.01 -0.19,1.02 -0.23,1.03 -0.27,1.05 -0.3,1.06 -0.35,1.07 -0.4,1.07 -0.21,0.53 -0.22,0.53 -0.24,0.53 -0.25,0.53 c -2.99,6.12 -7.27,9.36 -7.77,9.36 -0.29,0 -0.5,-0.19 -0.5,-0.49 0,-0.15 0,-0.25 0.94,-1.15 4.89,-4.92 7.74,-12.85 7.74,-23.27 0,-8.51 -1.85,-17.28 -8.04,-23.56 -0.64,-0.59 -0.64,-0.7 -0.64,-0.84 0,-0.3 0.21,-0.5 0.5,-0.5 0.5,0 4.97,3.39 7.92,9.71 2.54,5.47 3.13,11 3.13,15.19 z"
           inkscape:connector-curvature="0"
           style="fill:#000000;stroke-width:0" /></g>    </g>
    <circle
       id="path8244"
       style="fill:#000000;stroke:none"
       cx="222.25"
       cy="159.41669"
       r="5.1023617" />
    <g
       id="g8324"
       transform="translate(113.68571,-0.93548881)">
      <g
         word-spacing="normal"
         letter-spacing="normal"
         font-size-adjust="none"
         font-stretch="normal"
         font-weight="normal"
         font-variant="normal"
         font-style="normal"
         stroke-miterlimit="10.433"
         xml:space="preserve"
         transform="matrix(0.40821429,0,0,-0.40821429,-71.4375,254)"
         id="g8322"
         style="font-style:normal;font-variant:normal;font-weight:normal;font-stretch:normal;letter-spacing:normal;word-spacing:normal;text-anchor:start;fill:none;fill-opacity:1;fill-rule:evenodd;stroke:#000000;stroke-linecap:butt;stroke-linejoin:miter;stroke-miterlimit:10.43299961;stroke-dasharray:none;stroke-dashoffset:0;stroke-opacity:1"><path
           id="path8316"
           d="m 476.8,436.43 0.02,0.07 0.01,0.06 0.03,0.12 0.03,0.12 0.03,0.11 0.03,0.11 0.03,0.09 0.03,0.1 0.03,0.09 0.03,0.08 0.03,0.08 0.03,0.07 0.03,0.07 0.03,0.06 0.03,0.06 0.03,0.06 0.03,0.05 0.03,0.05 0.03,0.04 0.04,0.04 0.03,0.04 0.04,0.04 0.03,0.03 0.04,0.03 0.04,0.03 0.04,0.02 0.05,0.03 0.04,0.02 0.05,0.02 0.04,0.01 0.05,0.02 0.06,0.01 0.05,0.02 c 0.45,0.11 2.1,0.11 3.14,0.11 5.03,0 7.27,-0.21 7.27,-4.1 0,-0.73 -0.19,-2.68 -0.39,-3.98 -0.05,-0.19 -0.16,-0.8 -0.16,-0.94 0,-0.3 0.16,-0.66 0.59,-0.66 0.57,0 0.66,0.41 0.75,1.16 l 1.35,8.66 c 0.06,0.2 0.11,0.7 0.11,0.86 0,0.54 -0.5,0.54 -1.35,0.54 H 461.6 c -1.21,0 -1.25,-0.06 -1.6,-1 l -2.98,-8.76 c -0.06,-0.11 -0.3,-0.8 -0.3,-0.91 0,-0.3 0.24,-0.55 0.6,-0.55 0.5,0 0.54,0.25 0.84,1.05 2.69,7.72 3.98,8.63 11.36,8.63 h 1.94 c 1.4,0 1.4,-0.21 1.4,-0.6 0,-0.31 -0.15,-0.9 -0.2,-1.04 l -6.67,-26.61 c -0.45,-1.85 -0.61,-2.39 -5.94,-2.39 -1.8,0 -2.09,0 -2.09,-0.96 0,-0.59 0.54,-0.59 0.84,-0.59 1.36,0 2.75,0.09 4.09,0.09 1.4,0 2.85,0.07 4.24,0.07 1.39,0 2.78,-0.07 4.14,-0.07 1.44,0 2.94,-0.09 4.33,-0.09 0.5,0 1.09,0 1.09,1 0,0.55 -0.39,0.55 -1.69,0.55 -1.25,0 -1.89,0 -3.18,0.09 -1.46,0.16 -1.85,0.3 -1.85,1.09 0,0.07 0,0.32 0.19,1.05 z"
           inkscape:connector-curvature="0"
           style="fill:#000000;stroke-width:0" /><path
           id="path8318"
           d="m 487.29,394.51 -0.02,-0.09 -0.02,-0.08 -0.02,-0.09 -0.02,-0.07 -0.02,-0.08 -0.03,-0.07 -0.02,-0.07 -0.02,-0.06 -0.02,-0.06 -0.03,-0.05 -0.03,-0.06 -0.03,-0.05 -0.03,-0.04 -0.03,-0.05 -0.04,-0.04 -0.04,-0.03 -0.04,-0.04 -0.05,-0.03 -0.05,-0.03 -0.06,-0.02 -0.06,-0.03 -0.06,-0.02 -0.07,-0.01 -0.07,-0.02 -0.08,-0.02 h -0.05 l -0.04,-0.01 h -0.05 l -0.04,-0.01 h -0.05 -0.05 L 486,393.27 h -0.06 -0.05 -0.06 l -0.06,-0.01 h -0.06 -0.06 -0.06 c -0.46,0 -0.94,0 -0.94,-0.73 0,-0.39 0.31,-0.53 0.48,-0.53 0.91,0 2.07,0.14 3,0.14 1.19,0 2.5,-0.14 3.66,-0.14 0.31,0 0.7,0.11 0.7,0.76 0,0.5 -0.5,0.5 -0.9,0.5 -0.79,0 -1.72,0 -1.72,0.41 0,0.19 0.25,1.09 0.39,1.61 0.42,1.84 0.9,3.73 1.28,5.18 0.42,-0.68 1.5,-2.04 3.59,-2.04 v 0.97 c -2.47,0 -3.09,2.68 -3.09,3.03 0,0.14 0.06,0.39 0.09,0.53 l 1.75,7 c 2.02,2.69 3.77,3.2 4.88,3.2 1.36,0 2.54,-1.01 2.54,-3.37 0,-1.44 -0.76,-4.99 -1.81,-7.02 -0.87,-1.7 -2.58,-3.37 -4.36,-3.37 v -0.97 c 4.25,0 8.96,4.7 8.96,9.89 0,4.08 -2.83,5.81 -5.22,5.81 -2.17,0 -4.02,-1.45 -4.96,-2.44 -0.59,1.99 -2.54,2.44 -3.59,2.44 -1.36,0 -2.19,-0.91 -2.75,-1.84 -0.7,-1.19 -1.25,-3.27 -1.25,-3.49 0,-0.45 0.48,-0.45 0.59,-0.45 0.49,0 0.52,0.11 0.77,1.05 0.52,2.03 1.19,3.76 2.55,3.76 0.9,0 1.14,-0.76 1.14,-1.7 0,-0.39 -0.07,-0.84 -0.11,-1.05 z"
           inkscape:connector-curvature="0"
           style="fill:#000000;stroke-width:0" /><path
           id="path8320"
           d="m 553.86,436.39 0.04,0.16 0.04,0.16 0.04,0.15 0.04,0.14 0.04,0.14 0.04,0.13 0.04,0.12 0.05,0.11 0.05,0.11 0.05,0.11 0.06,0.09 0.07,0.09 0.08,0.09 0.08,0.08 0.09,0.07 0.09,0.07 0.11,0.06 0.12,0.06 0.13,0.05 0.14,0.05 0.15,0.04 0.09,0.02 0.08,0.02 0.09,0.02 0.09,0.02 0.1,0.01 0.1,0.02 0.1,0.01 0.11,0.01 0.11,0.02 0.12,0.01 0.12,0.01 h 0.12 l 0.13,0.01 0.13,0.01 0.14,0.01 h 0.14 0.15 l 0.15,0.01 h 0.16 0.16 0.17 0.17 c 1.14,0 1.59,0 1.59,1 0,0.55 -0.5,0.55 -1.34,0.55 h -6.58 c -1.29,0 -1.34,0 -1.93,-0.95 l -18.19,-28.39 -3.89,28.18 c -0.16,1.16 -0.25,1.16 -1.55,1.16 h -6.83 c -0.94,0 -1.48,0 -1.48,-0.95 0,-0.6 0.44,-0.6 1.44,-0.6 0.65,0 1.54,-0.04 2.14,-0.09 0.79,-0.11 1.09,-0.25 1.09,-0.8 0,-0.2 -0.05,-0.36 -0.19,-0.95 l -6.33,-25.36 c -0.5,-2 -1.34,-3.59 -5.39,-3.73 -0.25,0 -0.89,-0.05 -0.89,-0.96 0,-0.43 0.3,-0.59 0.71,-0.59 1.59,0 3.32,0.16 4.96,0.16 1.71,0 3.5,-0.16 5.14,-0.16 0.26,0 0.9,0 0.9,1 0,0.55 -0.55,0.55 -0.9,0.55 -2.84,0.04 -3.39,1.04 -3.39,2.18 0,0.35 0.05,0.6 0.21,1.14 l 6.76,27.16 h 0.07 l 4.28,-30.89 c 0.09,-0.59 0.14,-1.14 0.75,-1.14 0.54,0 0.84,0.55 1.09,0.89 l 20.13,31.55 h 0.04 l -7.12,-28.55 c -0.5,-1.95 -0.6,-2.34 -4.53,-2.34 -0.85,0 -1.39,0 -1.39,-0.96 0,-0.59 0.59,-0.59 0.75,-0.59 1.39,0 4.78,0.16 6.17,0.16 2.04,0 4.18,-0.16 6.23,-0.16 0.3,0 0.94,0 0.94,1 0,0.55 -0.45,0.55 -1.39,0.55 -1.84,0 -3.24,0 -3.24,0.89 0,0.2 0,0.29 0.25,1.2 z"
           inkscape:connector-curvature="0"
           style="fill:#000000;stroke-width:0" /></g>    </g>
    <g
       id="g8413"
       transform="translate(-25.422225,61.967309)">
      <g
         word-spacing="normal"
         letter-spacing="normal"
         font-size-adjust="none"
         font-stretch="normal"
         font-weight="normal"
         font-variant="normal"
         font-style="normal"
         stroke-miterlimit="10.433"
         xml:space="preserve"
         transform="matrix(0.40821429,0,0,-0.40821429,-71.4375,254)"
         id="g8411"
         style="font-style:normal;font-variant:normal;font-weight:normal;font-stretch:normal;letter-spacing:normal;word-spacing:normal;text-anchor:start;fill:none;fill-opacity:1;fill-rule:evenodd;stroke:#000000;stroke-linecap:butt;stroke-linejoin:miter;stroke-miterlimit:10.43299961;stroke-dasharray:none;stroke-dashoffset:0;stroke-opacity:1"><path
           id="path8409"
           d="m 470.61,422.39 h 4.83 c 3.75,0 4.14,-0.8 4.14,-2.24 0,-0.36 0,-0.95 -0.34,-2.44 -0.11,-0.25 -0.16,-0.45 -0.16,-0.56 0,-0.39 0.3,-0.59 0.6,-0.59 0.5,0 0.5,0.15 0.75,1.05 l 2.75,10.81 c 0.14,0.54 0.14,0.65 0.14,0.79 0,0.1 -0.1,0.55 -0.6,0.55 -0.5,0 -0.54,-0.25 -0.75,-1.05 -1.04,-3.87 -2.18,-4.78 -6.42,-4.78 h -4.53 l 3.19,12.66 c 0.43,1.75 0.5,1.94 2.68,1.94 h 6.58 c 6.13,0 7.27,-1.64 7.27,-5.47 0,-1.16 0,-1.35 -0.14,-2.7 -0.11,-0.65 -0.11,-0.74 -0.11,-0.9 0,-0.25 0.15,-0.59 0.61,-0.59 0.54,0 0.59,0.3 0.69,1.25 l 1,8.61 c 0.15,1.34 -0.1,1.34 -1.35,1.34 h -24.4 c -1,0 -1.5,0 -1.5,-1 0,-0.54 0.45,-0.54 1.39,-0.54 1.84,0 3.23,0 3.23,-0.89 0,-0.21 0,-0.3 -0.25,-1.21 l -6.56,-26.34 c -0.5,-1.95 -0.61,-2.34 -4.55,-2.34 -0.84,0 -1.39,0 -1.39,-0.96 0,-0.59 0.59,-0.59 0.75,-0.59 1.44,0 5.13,0.16 6.58,0.16 1.64,0 5.78,-0.16 7.42,-0.16 0.45,0 1.05,0 1.05,0.95 0,0.39 -0.3,0.49 -0.3,0.55 -0.16,0.05 -0.25,0.05 -1.39,0.05 -1.11,0 -1.36,0 -2.59,0.09 -1.46,0.16 -1.6,0.36 -1.6,1 0,0.09 0,0.41 0.19,1.14 z"
           inkscape:connector-curvature="0"
           style="fill:#000000;stroke-width:0" /></g>    </g>
  </g>
</svg>
