<?xml version="1.0" encoding="UTF-8" standalone="no"?>
<!-- Created with Inkscape (http://www.inkscape.org/) -->

<svg
   xmlns:osb="http://www.openswatchbook.org/uri/2009/osb"
   xmlns:dc="http://purl.org/dc/elements/1.1/"
   xmlns:cc="http://creativecommons.org/ns#"
   xmlns:rdf="http://www.w3.org/1999/02/22-rdf-syntax-ns#"
   xmlns:svg="http://www.w3.org/2000/svg"
   xmlns="http://www.w3.org/2000/svg"
   xmlns:sodipodi="http://sodipodi.sourceforge.net/DTD/sodipodi-0.dtd"
   xmlns:inkscape="http://www.inkscape.org/namespaces/inkscape"
   width="1280"
   height="1080"
   viewBox="0 0 338.66668 285.75"
   version="1.1"
   id="svg8"
   inkscape:version="0.92.4 5da689c313, 2019-01-14"
   sodipodi:docname="fig1-1.svg">
  <defs
     id="defs2">
    <linearGradient
       inkscape:collect="always"
       id="linearGradient3143"
       osb:paint="gradient">
      <stop
         style="stop-color:#75507b;stop-opacity:1;"
         offset="0"
         id="stop3139" />
      <stop
         style="stop-color:#75507b;stop-opacity:0;"
         offset="1"
         id="stop3141" />
    </linearGradient>
    <marker
       inkscape:isstock="true"
       style="overflow:visible;"
       id="marker2579"
       refX="0.0"
       refY="0.0"
       orient="auto"
       inkscape:stockid="Arrow1Mend">
      <path
         transform="scale(0.4) rotate(180) translate(10,0)"
         style="fill-rule:evenodd;stroke:#0032ff;stroke-width:1pt;stroke-opacity:1;fill:#0032ff;fill-opacity:1"
         d="M 0.0,0.0 L 5.0,-5.0 L -12.5,0.0 L 5.0,5.0 L 0.0,0.0 z "
         id="path2577" />
    </marker>
    <marker
       inkscape:isstock="true"
       style="overflow:visible;"
       id="marker1945"
       refX="0.0"
       refY="0.0"
       orient="auto"
       inkscape:stockid="Arrow1Mend">
      <path
         transform="scale(0.4) rotate(180) translate(10,0)"
         style="fill-rule:evenodd;stroke:#0032ff;stroke-width:1pt;stroke-opacity:1;fill:#ffffff;fill-opacity:1"
         d="M 0.0,0.0 L 5.0,-5.0 L -12.5,0.0 L 5.0,5.0 L 0.0,0.0 z "
         id="path1943" />
    </marker>
    <marker
       inkscape:stockid="Arrow1Mend"
       orient="auto"
       refY="0.0"
       refX="0.0"
       id="Arrow1Mend"
       style="overflow:visible;"
       inkscape:isstock="true"
       inkscape:collect="always">
      <path
         id="path1142"
         d="M 0.0,0.0 L 5.0,-5.0 L -12.5,0.0 L 5.0,5.0 L 0.0,0.0 z "
         style="fill-rule:evenodd;stroke:#ff6400;stroke-width:1pt;stroke-opacity:1;fill:#ff6400;fill-opacity:1"
         transform="scale(0.4) rotate(180) translate(10,0)" />
    </marker>
    <marker
       inkscape:isstock="true"
       style="overflow:visible"
       id="marker1795"
       refX="0.0"
       refY="0.0"
       orient="auto"
       inkscape:stockid="Arrow1Lstart">
      <path
         transform="scale(0.8) translate(12.5,0)"
         style="fill-rule:evenodd;stroke:#000000;stroke-width:1pt;stroke-opacity:1;fill:#000000;fill-opacity:1"
         d="M 0.0,0.0 L 5.0,-5.0 L -12.5,0.0 L 5.0,5.0 L 0.0,0.0 z "
         id="path1793" />
    </marker>
    <inkscape:path-effect
       effect="spiro"
       id="path-effect1785"
       is_visible="true" />
    <inkscape:path-effect
       effect="spiro"
       id="path-effect1781"
       is_visible="true" />
    <inkscape:path-effect
       effect="spiro"
       id="path-effect1777"
       is_visible="true" />
    <marker
       inkscape:stockid="DotL"
       orient="auto"
       refY="0.0"
       refX="0.0"
       id="DotL"
       style="overflow:visible"
       inkscape:isstock="true">
      <path
         id="path1194"
         d="M -2.5,-1.0 C -2.5,1.7600000 -4.7400000,4.0 -7.5,4.0 C -10.260000,4.0 -12.5,1.7600000 -12.5,-1.0 C -12.5,-3.7600000 -10.260000,-6.0 -7.5,-6.0 C -4.7400000,-6.0 -2.5,-3.7600000 -2.5,-1.0 z "
         style="fill-rule:evenodd;stroke:#000000;stroke-width:1pt;stroke-opacity:1;fill:#000000;fill-opacity:1"
         transform="scale(0.8) translate(7.4, 1)" />
    </marker>
    <marker
       inkscape:stockid="Arrow1Mstart"
       orient="auto"
       refY="0.0"
       refX="0.0"
       id="Arrow1Mstart"
       style="overflow:visible"
       inkscape:isstock="true">
      <path
         id="path1139"
         d="M 0.0,0.0 L 5.0,-5.0 L -12.5,0.0 L 5.0,5.0 L 0.0,0.0 z "
         style="fill-rule:evenodd;stroke:#000000;stroke-width:1pt;stroke-opacity:1;fill:#000000;fill-opacity:1"
         transform="scale(0.4) translate(10,0)" />
    </marker>
    <marker
       inkscape:stockid="Tail"
       orient="auto"
       refY="0.0"
       refX="0.0"
       id="Tail"
       style="overflow:visible"
       inkscape:isstock="true">
      <g
         id="g1181"
         transform="scale(-1.2)"
         style="stroke:#000000;stroke-opacity:1;fill:#000000;fill-opacity:1">
        <path
           id="path1169"
           d="M -3.8048674,-3.9585227 L 0.54352094,0"
           style="fill:#000000;fill-rule:evenodd;stroke:#000000;stroke-width:0.8;stroke-linecap:round;stroke-opacity:1;fill-opacity:1" />
        <path
           id="path1171"
           d="M -1.2866832,-3.9585227 L 3.0617053,0"
           style="fill:#000000;fill-rule:evenodd;stroke:#000000;stroke-width:0.8;stroke-linecap:round;stroke-opacity:1;fill-opacity:1" />
        <path
           id="path1173"
           d="M 1.3053582,-3.9585227 L 5.6537466,0"
           style="fill:#000000;fill-rule:evenodd;stroke:#000000;stroke-width:0.8;stroke-linecap:round;stroke-opacity:1;fill-opacity:1" />
        <path
           id="path1175"
           d="M -3.8048674,4.1775838 L 0.54352094,0.21974226"
           style="fill:#000000;fill-rule:evenodd;stroke:#000000;stroke-width:0.8;stroke-linecap:round;stroke-opacity:1;fill-opacity:1" />
        <path
           id="path1177"
           d="M -1.2866832,4.1775838 L 3.0617053,0.21974226"
           style="fill:#000000;fill-rule:evenodd;stroke:#000000;stroke-width:0.8;stroke-linecap:round;stroke-opacity:1;fill-opacity:1" />
        <path
           id="path1179"
           d="M 1.3053582,4.1775838 L 5.6537466,0.21974226"
           style="fill:#000000;fill-rule:evenodd;stroke:#000000;stroke-width:0.8;stroke-linecap:round;stroke-opacity:1;fill-opacity:1" />
      </g>
    </marker>
    <inkscape:path-effect
       effect="bspline"
       id="path-effect224"
       is_visible="true"
       weight="33.333333"
       steps="2"
       helper_size="0"
       apply_no_weight="true"
       apply_with_weight="true"
       only_selected="false" />
    <marker
       inkscape:stockid="Arrow1Lstart"
       orient="auto"
       refY="0.0"
       refX="0.0"
       id="Arrow1Lstart"
       style="overflow:visible"
       inkscape:isstock="true"
       inkscape:collect="always">
      <path
         id="path1405"
         d="M 0.0,0.0 L 5.0,-5.0 L -12.5,0.0 L 5.0,5.0 L 0.0,0.0 z "
         style="fill-rule:evenodd;stroke:#000000;stroke-width:1pt;stroke-opacity:1;fill:#000000;fill-opacity:1"
         transform="scale(0.8) translate(12.5,0)" />
    </marker>
    <marker
       inkscape:stockid="Arrow1Lend"
       orient="auto"
       refY="0.0"
       refX="0.0"
       id="Arrow1Lend"
       style="overflow:visible;"
       inkscape:isstock="true">
      <path
         id="path1408"
         d="M 0.0,0.0 L 5.0,-5.0 L -12.5,0.0 L 5.0,5.0 L 0.0,0.0 z "
         style="fill-rule:evenodd;stroke:#000000;stroke-width:1pt;stroke-opacity:1;fill:#000000;fill-opacity:1"
         transform="scale(0.8) rotate(180) translate(12.5,0)" />
    </marker>
    <inkscape:path-effect
       effect="bspline"
       id="path-effect224-3"
       is_visible="true"
       weight="33.333333"
       steps="2"
       helper_size="0"
       apply_no_weight="true"
       apply_with_weight="true"
       only_selected="false" />
  </defs>
  <sodipodi:namedview
     id="base"
     pagecolor="#ffffff"
     bordercolor="#666666"
     borderopacity="1.0"
     inkscape:pageopacity="0.0"
     inkscape:pageshadow="2"
     inkscape:zoom="0.59"
     inkscape:cx="625.83595"
     inkscape:cy="486.53256"
     inkscape:document-units="mm"
     inkscape:current-layer="layer1"
     showgrid="true"
     showguides="true"
     showborder="true"
     borderlayer="true"
     inkscape:showpageshadow="false"
     inkscape:pagecheckerboard="false"
     objecttolerance="10"
     inkscape:snap-path-clip="true"
     inkscape:snap-path-mask="true"
     gridtolerance="10"
     units="px">
    <inkscape:grid
       type="xygrid"
       id="grid10" />
  </sodipodi:namedview>
  <metadata
     id="metadata5">
    <rdf:RDF>
      <cc:Work
         rdf:about="">
        <dc:format>image/svg+xml</dc:format>
        <dc:type
           rdf:resource="http://purl.org/dc/dcmitype/StillImage" />
        <dc:title></dc:title>
      </cc:Work>
    </rdf:RDF>
  </metadata>
  <g
     inkscape:label="Layer 1"
     inkscape:groupmode="layer"
     id="layer1"
     transform="translate(0,-11.25001)">
    <g
       id="g3137"
       style="fill:none;fill-opacity:1;fill-rule:nonzero"
       transform="translate(3.333333e-7,3.3333333e-6)">
      <path
         inkscape:original-d="M 42.333333,132.95834 C 49.598429,113.79447 56.444707,94.152521 63.499999,74.750009 82.902723,64.166586 102.30582,53.583078 121.70833,43.00001"
         inkscape:path-effect="#path-effect224"
         inkscape:connector-curvature="0"
         id="path222"
         d="M 42.333333,132.95834 C 49.336631,113.69927 56.44456,94.152467 69.673666,79.159573 82.902773,64.166678 102.30587,53.58317 121.70833,43.00001"
         style="opacity:1;vector-effect:none;fill:none;fill-opacity:1;fill-rule:nonzero;stroke:#000000;stroke-width:0.89999992;stroke-linecap:butt;stroke-linejoin:miter;stroke-miterlimit:4;stroke-dasharray:none;stroke-dashoffset:0;stroke-opacity:1" />
      <path
         inkscape:original-d="M 42.333333,132.95834 C 49.598429,113.79447 56.444707,94.152521 63.499999,74.750009 82.902723,64.166586 102.30582,53.583078 121.70833,43.00001"
         inkscape:path-effect="#path-effect224-3"
         inkscape:connector-curvature="0"
         id="path222-6"
         d="M 42.333333,132.95834 C 49.336631,113.69927 56.44456,94.152467 69.673666,79.159573 82.902773,64.166678 102.30587,53.58317 121.70833,43.00001"
         style="opacity:1;vector-effect:none;fill:none;fill-opacity:1;fill-rule:nonzero;stroke:#000000;stroke-width:0.89999992;stroke-linecap:butt;stroke-linejoin:miter;stroke-miterlimit:4;stroke-dasharray:none;stroke-dashoffset:0;stroke-opacity:1"
         transform="translate(100.54167,42.333334)" />
      <path
         inkscape:connector-curvature="0"
         id="path244"
         d="M 121.70833,43.00001 222.25,85.333342"
         style="opacity:1;vector-effect:none;fill:none;fill-opacity:1;fill-rule:nonzero;stroke:#000000;stroke-width:0.89999992;stroke-linecap:butt;stroke-linejoin:miter;stroke-miterlimit:4;stroke-dasharray:none;stroke-dashoffset:0;stroke-opacity:1" />
      <path
         inkscape:connector-curvature="0"
         id="path246"
         d="M 42.333333,132.95834 142.875,175.29167"
         style="opacity:1;vector-effect:none;fill:none;fill-opacity:1;fill-rule:nonzero;stroke:#000000;stroke-width:0.89999992;stroke-linecap:butt;stroke-linejoin:miter;stroke-miterlimit:4;stroke-dasharray:none;stroke-dashoffset:0;stroke-opacity:1" />
    </g>
    <path
       style="opacity:1;vector-effect:none;fill:none;fill-opacity:1;stroke:#000000;stroke-width:1.20000006;stroke-linecap:butt;stroke-linejoin:miter;stroke-miterlimit:4;stroke-dasharray:none;stroke-dashoffset:0;stroke-opacity:1;marker-end:url(#Arrow1Lend);marker-start:url(#Arrow1Lstart)"
       d="M 201.08333,170.00001 V 275.83334 H 317.5"
       id="path248"
       inkscape:connector-curvature="0" />
    <rect
       style="opacity:1;vector-effect:none;fill:#2e3436;fill-opacity:1;fill-rule:evenodd;stroke:#000000;stroke-width:0.89999992;stroke-linecap:butt;stroke-linejoin:miter;stroke-miterlimit:4;stroke-dasharray:none;stroke-dashoffset:0;stroke-opacity:1"
       id="rect1773"
       width="79.375"
       height="74.083336"
       x="216.95833"
       y="185.87502" />
    <path
       style="opacity:1;vector-effect:none;fill:#729fcf;fill-opacity:1;stroke:#000000;stroke-width:0.89999992;stroke-linecap:butt;stroke-linejoin:miter;stroke-miterlimit:4;stroke-dasharray:none;stroke-dashoffset:0;stroke-opacity:1"
       d="m 105.83333,138.25001 c -3.99629,0.84659 -8.020756,2.0562 -12.086048,1.65569 -2.032646,-0.20026 -4.051524,-0.82126 -5.719778,-1.99969 -1.668254,-1.17842 -2.961462,-2.94461 -3.360838,-4.94767 -0.369916,-1.85531 0.03325,-3.79403 0.761151,-5.54022 0.727901,-1.74618 1.768906,-3.34017 2.7413,-4.96296 0.972395,-1.62279 1.891059,-3.30901 2.336833,-5.14756 0.445775,-1.83856 0.377517,-3.86573 -0.547618,-5.51592 -0.634549,-1.13186 -1.630712,-2.02281 -2.707268,-2.74724 -1.076556,-0.72442 -2.244307,-1.30074 -3.368127,-1.94943 -1.12382,-0.64869 -2.219402,-1.38306 -3.072487,-2.36082 -0.853085,-0.97776 -1.449972,-2.22833 -1.435451,-3.52585 0.0095,-0.84616 0.278883,-1.680467 0.719827,-2.40272 0.440944,-0.722252 1.049156,-1.335038 1.736779,-1.828246 1.375245,-0.986418 3.034891,-1.487882 4.682492,-1.874832 1.647601,-0.386949 3.329169,-0.679502 4.897728,-1.315065 1.56856,-0.635563 3.048117,-1.665761 3.838174,-3.162468 0.417895,-0.791673 0.626127,-1.682477 0.691536,-2.575284 0.06541,-0.892806 -0.0081,-1.790539 -0.128755,-2.677574 -0.241255,-1.77407 -0.672026,-3.543412 -0.562781,-5.330475 0.09455,-1.546661 0.599068,-3.058821 1.397328,-4.386932 0.79826,-1.328112 1.885511,-2.474025 3.132097,-3.394417 2.493176,-1.840783 5.572296,-2.756919 8.653226,-3.091945 6.16187,-0.670053 12.39492,0.854463 18.56735,0.289961 7.038,-0.643662 13.62096,-3.965376 20.65865,-4.612339 3.51885,-0.323482 7.18655,0.06381 10.31268,1.711306 1.56306,0.823747 2.97145,1.957836 4.04522,3.360961 1.07376,1.403125 1.80576,3.078565 2.02511,4.831738 0.33707,2.694016 -0.52372,5.371503 -1.03318,8.038297 -0.25473,1.333396 -0.42301,2.695234 -0.3085,4.047906 0.11451,1.352672 0.52638,2.703385 1.34168,3.788797 1.03398,1.376543 2.63378,2.22674 4.27437,2.748713 1.64059,0.521974 3.35697,0.756569 5.03098,1.158636 1.67402,0.402068 3.35031,0.996768 4.65637,2.118469 0.65302,0.560851 1.20311,1.250264 1.55365,2.036468 0.35055,0.786204 0.49585,1.671075 0.35963,2.521045 -0.16794,1.04789 -0.75771,2.00221 -1.5432,2.71586 -0.78549,0.71364 -1.75754,1.19938 -2.76862,1.52186 -2.02216,0.64497 -4.1864,0.65719 -6.27151,1.05395 -4.40523,0.83824 -8.32082,3.3705 -11.6785,6.34281 -3.35769,2.97232 -6.26501,6.41451 -9.48817,9.53219 -4.60173,4.45113 -9.90731,8.26491 -15.875,10.58333 -8.39995,3.26333 -17.6424,3.42407 -26.45833,5.29167 z"
       id="path1775"
       inkscape:connector-curvature="0"
       inkscape:path-effect="#path-effect1777"
       inkscape:original-d="m 105.83333,138.25001 c -8.819706,1.76415 -14.110843,-3.52804 -21.166664,-5.29167 -7.055821,-1.76362 3.528041,-14.11137 5.291666,-21.16666 1.763625,-7.0553 -7.055292,-7.05583 -10.583333,-10.58334 -3.528041,-3.52751 10.583598,-7.055819 15.875,-10.583331 5.291401,-3.527512 2.64e-4,-7.055821 0,-10.583333 C 95.249734,76.514164 116.41693,72.985855 127,69.458343 c 10.58307,-3.527513 24.69471,3.527512 37.04166,5.291666 12.34696,1.764155 2.7e-4,10.583069 0,15.875 -2.6e-4,5.291931 10.5836,7.055292 15.875,10.583331 5.29141,3.52804 -7.05529,3.52751 -10.58333,5.29167 -3.52804,1.76415 -14.11084,10.58307 -21.16667,15.875 -7.05582,5.29193 -10.58306,7.05529 -15.875,10.58333 -5.29193,3.52804 -17.63862,3.52751 -26.45833,5.29167 z" />
    <circle
       id="path2671"
       style="fill:#000000;stroke:none;stroke-width:0;stroke-miterlimit:4;stroke-dasharray:none"
       cx="127"
       cy="95.916679"
       r="3.7570226" />
    <circle
       id="path2671-7"
       style="fill:#000000;stroke:none;stroke-width:0;stroke-miterlimit:4;stroke-dasharray:none"
       cx="264.58334"
       cy="222.91669"
       r="3.7570226" />
    <path
       style="opacity:1;vector-effect:none;fill:none;fill-opacity:1;stroke:#0032ff;stroke-width:1.2;stroke-linecap:butt;stroke-linejoin:miter;stroke-miterlimit:4;stroke-dasharray:none;stroke-dashoffset:0;stroke-opacity:1;marker-end:url(#marker2579)"
       d="m 127,95.916676 c 15.07971,-10.47817 33.97709,-15.327482 52.23892,-13.405184 18.26183,1.922299 35.7353,10.600121 48.30274,23.988518 13.63251,14.52304 21.1415,33.72042 26.45834,52.91666 5.73837,20.71815 9.29212,42.04066 10.58333,63.5"
       id="path1779"
       inkscape:connector-curvature="0"
       inkscape:path-effect="#path-effect1781"
       inkscape:original-d="m 127,95.916676 c 33.75332,3.946062 67.02804,7.055294 100.54166,10.583334 33.51363,3.52804 17.63916,35.27751 26.45834,52.91666 8.81918,17.63916 7.05582,42.33307 10.58333,63.5" />
    <path
       style="opacity:1;vector-effect:none;fill:none;fill-opacity:1;stroke:#ff6400;stroke-width:1.2;stroke-linecap:butt;stroke-linejoin:miter;stroke-miterlimit:4;stroke-dasharray:none;stroke-dashoffset:0;stroke-opacity:1;marker-end:url(#Arrow1Mend)"
       d="m 264.58333,222.91667 c -28.42688,-1.49696 -56.74598,-5.03684 -84.66667,-10.58333 -20.39499,-4.05149 -41.07174,-9.38925 -58.20833,-21.16667 -3.7418,-2.57162 -7.31139,-5.45909 -10.18546,-8.97392 -2.87407,-3.51483 -5.03522,-7.69984 -5.68954,-12.19274 -0.7278,-4.99748 0.44143,-10.13551 2.56799,-14.71615 2.12656,-4.58064 5.17438,-8.66872 8.36076,-12.58682 3.18637,-3.9181 6.54079,-7.71297 9.39133,-11.88177 2.85054,-4.1688 5.20622,-8.76848 6.13825,-13.73193 1.38459,-7.37353 -0.60007,-15.31218 -5.29166,-21.166664"
       id="path1783"
       inkscape:connector-curvature="0"
       inkscape:path-effect="#path-effect1785"
       inkscape:original-d="m 264.58333,222.91667 c -28.7003,-2.81052 -56.44418,-7.05582 -84.66667,-10.58333 -28.22248,-3.52751 -38.80529,-14.11137 -58.20833,-21.16667 -19.40304,-7.05529 -10.58307,-14.11137 -15.875,-21.16666 -5.29193,-7.05529 17.63916,-35.27804 26.45833,-52.91667 C 141.11084,99.444717 128.76415,102.97197 127,95.916676" />
    <g
       id="g2789"
       transform="translate(127.93405,24.563541)">
      <g
         word-spacing="normal"
         letter-spacing="normal"
         font-size-adjust="none"
         font-stretch="normal"
         font-weight="normal"
         font-variant="normal"
         font-style="normal"
         stroke-miterlimit="10.433"
         xml:space="preserve"
         transform="matrix(0.40821429,0,0,-0.40821429,-71.4375,254)"
         id="content"
         style="font-style:normal;font-variant:normal;font-weight:normal;font-stretch:normal;letter-spacing:normal;word-spacing:normal;text-anchor:start;fill:none;fill-opacity:1;fill-rule:evenodd;stroke:#000000;stroke-linecap:butt;stroke-linejoin:miter;stroke-miterlimit:10.43299961;stroke-dasharray:none;stroke-dashoffset:0;stroke-opacity:1"><path
           id="path2786"
           d="m 463.99,397.73 -0.01,-0.03 -0.01,-0.03 -0.01,-0.03 -0.01,-0.03 -0.01,-0.02 -0.01,-0.03 -0.01,-0.05 -0.02,-0.05 -0.01,-0.04 -0.01,-0.05 -0.02,-0.04 -0.01,-0.04 -0.01,-0.03 -0.01,-0.04 -0.01,-0.03 -0.01,-0.03 -0.01,-0.03 -0.01,-0.03 v -0.02 l -0.01,-0.03 -0.01,-0.02 v -0.02 l -0.01,-0.03 v -0.02 -0.02 l -0.01,-0.04 -0.01,-0.04 v -0.04 -0.04 -0.03 -0.02 c 0,-1.09 0.95,-1.39 1.45,-1.39 0.25,0 1.35,0.14 1.85,1.3 0.14,0.39 0.39,2.04 1.73,9.11 0.45,-0.05 0.8,-0.1 1.64,-0.1 8.28,0 15.95,7.83 15.95,15.69 l -1.4,-1.09 c 0,-5.63 -6.42,-11.71 -14.1,-11.71 v 0 c -0.39,0 -0.5,0 -0.89,0.05 -0.61,0 -0.65,0.05 -0.65,0.2 0,0.1 0.84,4.63 1,5.38 1.54,6.37 5.43,11.15 9.86,11.15 3.43,0 4.78,-2.68 4.78,-5.07 l 1.4,1.09 c 0,3.89 -1.95,6.87 -5.68,6.87 -7.22,0 -10.21,-9.65 -13.21,-19.37 -5.37,1 -8.17,3.78 -8.17,7.37 0,1.4 1.16,6.88 4.14,10.32 0.39,0.45 0.39,0.54 0.39,0.64 0,0.2 -0.09,0.5 -0.59,0.5 -1.39,0 -5.24,-7.22 -5.24,-12 0,-4.69 3.3,-8.33 8.63,-9.56 z"
           inkscape:connector-curvature="0"
           style="fill:#000000;stroke-width:0" /></g>    </g>
    <g
       id="g2852"
       transform="translate(-25.524279,125.10521)">
      <g
         word-spacing="normal"
         letter-spacing="normal"
         font-size-adjust="none"
         font-stretch="normal"
         font-weight="normal"
         font-variant="normal"
         font-style="normal"
         stroke-miterlimit="10.433"
         xml:space="preserve"
         transform="matrix(0.40821429,0,0,-0.40821429,-71.4375,254)"
         id="g2850"
         style="font-style:normal;font-variant:normal;font-weight:normal;font-stretch:normal;letter-spacing:normal;word-spacing:normal;text-anchor:start;fill:none;fill-opacity:1;fill-rule:evenodd;stroke:#000000;stroke-linecap:butt;stroke-linejoin:miter;stroke-miterlimit:10.43299961;stroke-dasharray:none;stroke-dashoffset:0;stroke-opacity:1"><path
           id="path2844"
           d="m 463.99,397.73 -0.01,-0.03 -0.01,-0.03 -0.01,-0.03 -0.01,-0.03 -0.01,-0.02 -0.01,-0.03 -0.01,-0.05 -0.02,-0.05 -0.01,-0.04 -0.01,-0.05 -0.02,-0.04 -0.01,-0.04 -0.01,-0.03 -0.01,-0.04 -0.01,-0.03 -0.01,-0.03 -0.01,-0.03 -0.01,-0.03 v -0.02 l -0.01,-0.03 -0.01,-0.02 v -0.02 l -0.01,-0.03 v -0.02 -0.02 l -0.01,-0.04 -0.01,-0.04 v -0.04 -0.04 -0.03 -0.02 c 0,-1.09 0.95,-1.39 1.45,-1.39 0.25,0 1.35,0.14 1.85,1.3 0.14,0.39 0.39,2.04 1.73,9.11 0.45,-0.05 0.8,-0.1 1.64,-0.1 8.28,0 15.95,7.83 15.95,15.69 l -1.4,-1.09 c 0,-5.63 -6.42,-11.71 -14.1,-11.71 v 0 c -0.39,0 -0.5,0 -0.89,0.05 -0.61,0 -0.65,0.05 -0.65,0.2 0,0.1 0.84,4.63 1,5.38 1.54,6.37 5.43,11.15 9.86,11.15 3.43,0 4.78,-2.68 4.78,-5.07 l 1.4,1.09 c 0,3.89 -1.95,6.87 -5.68,6.87 -7.22,0 -10.21,-9.65 -13.21,-19.37 -5.37,1 -8.17,3.78 -8.17,7.37 0,1.4 1.16,6.88 4.14,10.32 0.39,0.45 0.39,0.54 0.39,0.64 0,0.2 -0.09,0.5 -0.59,0.5 -1.39,0 -5.24,-7.22 -5.24,-12 0,-4.69 3.3,-8.33 8.63,-9.56 z"
           inkscape:connector-curvature="0"
           style="fill:#000000;stroke-width:0" /><path
           id="path2846"
           d="m 514.08,432.07 h 0.06 0.05 l 0.11,0.01 h 0.12 0.06 l 0.06,0.01 h 0.06 l 0.05,0.01 0.06,0.01 0.06,0.01 0.06,0.01 0.05,0.01 0.06,0.02 0.05,0.02 0.05,0.02 0.05,0.02 0.05,0.03 0.04,0.03 0.04,0.03 0.04,0.04 0.04,0.04 0.02,0.02 0.01,0.02 0.02,0.02 0.02,0.03 0.01,0.02 0.01,0.03 0.02,0.02 0.01,0.03 0.01,0.03 0.01,0.03 v 0.03 l 0.01,0.03 0.01,0.04 v 0.03 l 0.01,0.03 v 0.04 0.04 0.04 c 0,0.86 -0.79,0.86 -1.39,0.86 h -20.76 c -0.57,0 -1.39,0 -1.39,-0.83 0,-0.88 0.79,-0.88 1.39,-0.88 z"
           inkscape:connector-curvature="0"
           style="fill:#000000;stroke-width:0" /><path
           id="path2848"
           d="m 530.91,446.36 v 0.04 0.04 0.04 0.04 0.04 0.04 0.04 0.03 l -0.01,0.04 v 0.03 0.03 0.03 0.03 l -0.01,0.03 v 0.03 l -0.01,0.02 v 0.03 0.02 l -0.01,0.02 v 0.03 l -0.02,0.04 -0.01,0.04 -0.02,0.03 -0.02,0.03 -0.02,0.03 -0.02,0.03 -0.03,0.02 -0.03,0.02 -0.04,0.01 -0.03,0.02 -0.04,0.01 -0.05,0.01 -0.02,0.01 h -0.03 l -0.02,0.01 h -0.03 -0.03 l -0.02,0.01 h -0.03 -0.03 -0.04 -0.03 l -0.03,0.01 h -0.04 -0.04 -0.03 -0.04 -0.04 -0.04 -0.05 -0.04 -0.05 c -2.23,-2.2 -5.39,-2.23 -6.83,-2.23 v -1.25 c 0.85,0 3.15,0 5.05,0.96 v -17.76 c 0,-1.16 0,-1.61 -3.48,-1.61 h -1.32 v -1.25 c 0.63,0.03 4.91,0.14 6.21,0.14 1.08,0 5.47,-0.11 6.23,-0.14 v 1.25 h -1.32 c -3.49,0 -3.49,0.45 -3.49,1.61 z"
           inkscape:connector-curvature="0"
           style="fill:#000000;stroke-width:0" /></g>    </g>
    <g
       id="g2918"
       transform="translate(-33.808158,-39.528368)">
      <g
         word-spacing="normal"
         letter-spacing="normal"
         font-size-adjust="none"
         font-stretch="normal"
         font-weight="normal"
         font-variant="normal"
         font-style="normal"
         stroke-miterlimit="10.433"
         xml:space="preserve"
         transform="matrix(0.40821429,0,0,-0.40821429,-71.4375,254)"
         id="g2916"
         style="font-style:normal;font-variant:normal;font-weight:normal;font-stretch:normal;letter-spacing:normal;word-spacing:normal;text-anchor:start;fill:none;fill-opacity:1;fill-rule:evenodd;stroke:#000000;stroke-linecap:butt;stroke-linejoin:miter;stroke-miterlimit:10.43299961;stroke-dasharray:none;stroke-dashoffset:0;stroke-opacity:1"><path
           id="path2914"
           d="m 501.66,436.39 0.04,0.16 0.04,0.16 0.04,0.15 0.04,0.14 0.04,0.14 0.04,0.13 0.04,0.12 0.05,0.11 0.05,0.11 0.05,0.11 0.07,0.09 0.06,0.09 0.08,0.09 0.08,0.08 0.09,0.07 0.09,0.07 0.11,0.06 0.12,0.06 0.13,0.05 0.14,0.05 0.15,0.04 0.09,0.02 0.08,0.02 0.09,0.02 0.09,0.02 0.1,0.01 0.1,0.02 0.1,0.01 0.11,0.01 0.11,0.02 0.12,0.01 0.12,0.01 h 0.12 l 0.13,0.01 0.13,0.01 0.14,0.01 h 0.14 0.15 l 0.15,0.01 h 0.16 0.16 0.17 0.17 c 1.14,0 1.6,0 1.6,1 0,0.55 -0.5,0.55 -1.35,0.55 h -6.58 c -1.29,0 -1.34,0 -1.93,-0.95 l -18.19,-28.39 -3.89,28.18 c -0.16,1.16 -0.25,1.16 -1.55,1.16 h -6.83 c -0.93,0 -1.48,0 -1.48,-0.95 0,-0.6 0.44,-0.6 1.44,-0.6 0.65,0 1.54,-0.04 2.14,-0.09 0.79,-0.11 1.09,-0.25 1.09,-0.8 0,-0.2 -0.05,-0.36 -0.19,-0.95 l -6.33,-25.36 c -0.5,-2 -1.34,-3.59 -5.39,-3.73 -0.25,0 -0.89,-0.05 -0.89,-0.96 0,-0.43 0.3,-0.59 0.71,-0.59 1.59,0 3.32,0.16 4.97,0.16 1.7,0 3.5,-0.16 5.14,-0.16 0.25,0 0.89,0 0.89,1 0,0.55 -0.55,0.55 -0.89,0.55 -2.85,0.04 -3.39,1.04 -3.39,2.18 0,0.35 0.04,0.6 0.2,1.14 l 6.76,27.16 h 0.07 l 4.28,-30.89 c 0.09,-0.59 0.14,-1.14 0.75,-1.14 0.54,0 0.84,0.55 1.09,0.89 l 20.13,31.55 h 0.04 l -7.12,-28.55 c -0.5,-1.95 -0.6,-2.34 -4.53,-2.34 -0.85,0 -1.39,0 -1.39,-0.96 0,-0.59 0.59,-0.59 0.75,-0.59 1.39,0 4.78,0.16 6.17,0.16 2.05,0 4.19,-0.16 6.23,-0.16 0.3,0 0.94,0 0.94,1 0,0.55 -0.45,0.55 -1.39,0.55 -1.84,0 -3.23,0 -3.23,0.89 0,0.2 0,0.29 0.25,1.2 z"
           inkscape:connector-curvature="0"
           style="fill:#000000;stroke-width:0" /></g>    </g>
    <g
       id="g3055"
       transform="translate(-45.163016,40.212815)">
      <g
         word-spacing="normal"
         letter-spacing="normal"
         font-size-adjust="none"
         font-stretch="normal"
         font-weight="normal"
         font-variant="normal"
         font-style="normal"
         stroke-miterlimit="10.433"
         xml:space="preserve"
         transform="matrix(0.40821429,0,0,-0.40821429,-71.4375,254)"
         id="g3053"
         style="font-style:normal;font-variant:normal;font-weight:normal;font-stretch:normal;letter-spacing:normal;word-spacing:normal;text-anchor:start;fill:none;fill-opacity:1;fill-rule:evenodd;stroke:#000000;stroke-linecap:butt;stroke-linejoin:miter;stroke-miterlimit:10.43299961;stroke-dasharray:none;stroke-dashoffset:0;stroke-opacity:1"><path
           id="path3051"
           d="m 480.08,420.95 -0.11,-0.4 -0.11,-0.41 -0.23,-0.85 -0.24,-0.88 -0.24,-0.91 -0.24,-0.93 -0.24,-0.94 -0.24,-0.96 -0.22,-0.95 -0.21,-0.95 -0.2,-0.94 -0.17,-0.93 -0.15,-0.9 -0.06,-0.44 -0.06,-0.43 -0.05,-0.43 -0.04,-0.41 -0.03,-0.41 -0.03,-0.39 -0.01,-0.38 -0.01,-0.36 c 0,-1.35 0.85,-1.94 2.05,-1.94 1.98,0 5.72,2.14 5.72,3.14 0,0.25 -0.24,0.34 -0.49,0.34 -0.61,0 -1.5,-0.45 -2.04,-0.75 -0.66,0.1 -1,0.6 -1,1.3 0,6.08 5.68,23.52 7.12,27.2 0.59,1.39 1.25,3.44 1.25,3.83 0,0.36 -0.3,0.36 -0.5,0.36 -1.05,0 -3.3,-1.34 -3.69,-2.3 -0.65,-1.73 -0.75,-1.98 -1.34,-3.82 -1.64,-4.74 -6.58,-12.96 -11.52,-18.74 -1.54,-1.75 -6.42,-7.53 -9.95,-7.53 -2.41,0 -3.89,2.05 -3.89,5.33 0,3.5 1.94,7.98 4.92,14.79 1.8,4.1 3.3,7.63 3.3,9.88 0,2.34 -1.59,2.39 -2.49,2.39 -3.84,0 -8.62,-3.09 -8.62,-4.14 0,-0.3 0.34,-0.3 0.55,-0.3 0.59,0 1.5,0.41 2.29,0.96 0.35,0.25 1.14,0.73 2.49,0.73 1.09,0 1.54,-0.69 1.54,-1.78 0,-2.2 -1.79,-6.28 -3.89,-11.06 -3.28,-7.49 -4.32,-10.68 -4.32,-13.57 0,-3.28 1.29,-5.96 4.82,-5.96 3.1,0 7.63,2.04 12.71,6.76 3.43,3.25 5.68,6.24 7.83,9.13 z"
           inkscape:connector-curvature="0"
           style="fill:#000000;stroke-width:0" /></g>    </g>
    <g
       id="g3125"
       transform="translate(-2.6961818,4.6121452)">
      <g
         word-spacing="normal"
         letter-spacing="normal"
         font-size-adjust="none"
         font-stretch="normal"
         font-weight="normal"
         font-variant="normal"
         font-style="normal"
         stroke-miterlimit="10.433"
         xml:space="preserve"
         transform="matrix(0.40821429,0,0,-0.40821429,-71.4375,254)"
         id="g3123"
         style="font-style:normal;font-variant:normal;font-weight:normal;font-stretch:normal;letter-spacing:normal;word-spacing:normal;text-anchor:start;fill:none;fill-opacity:1;fill-rule:evenodd;stroke:#000000;stroke-linecap:butt;stroke-linejoin:miter;stroke-miterlimit:10.43299961;stroke-dasharray:none;stroke-dashoffset:0;stroke-opacity:1"><path
           id="path3121"
           d="m 457.75,400.12 -0.03,-0.15 -0.04,-0.15 -0.03,-0.14 -0.03,-0.13 -0.04,-0.13 -0.03,-0.11 -0.04,-0.12 -0.03,-0.1 -0.04,-0.1 -0.04,-0.09 -0.04,-0.09 -0.05,-0.08 -0.05,-0.07 -0.05,-0.07 -0.06,-0.07 -0.06,-0.06 -0.07,-0.05 -0.07,-0.05 -0.08,-0.04 -0.09,-0.04 -0.09,-0.04 -0.1,-0.03 -0.11,-0.03 -0.12,-0.02 -0.13,-0.02 -0.06,-0.01 -0.07,-0.01 -0.07,-0.01 -0.08,-0.01 h -0.07 l -0.08,-0.01 h -0.08 l -0.09,-0.01 h -0.08 -0.09 -0.1 -0.09 l -0.1,-0.01 h -0.1 c -0.6,0 -1.14,0 -1.14,-0.93 0,-0.41 0.25,-0.61 0.64,-0.61 1.36,0 2.79,0.15 4.18,0.15 1.64,0 3.35,-0.15 4.94,-0.15 0.25,0 0.89,0 0.89,1 0,0.54 -0.5,0.54 -1.19,0.54 -2.5,0 -2.5,0.36 -2.5,0.8 0,0.61 2.1,8.72 2.46,9.97 0.64,-1.44 2.03,-3.19 4.58,-3.19 l -0.05,1.1 c -3.3,0 -3.94,4.14 -3.94,4.43 0,0.1 0,0.21 0.14,0.8 l 2.46,9.77 c 0.34,1.34 1.68,2.73 2.57,3.48 1.75,1.55 3.21,1.89 4.05,1.89 1.98,0 3.19,-1.73 3.19,-4.69 0,-2.93 -1.64,-8.65 -2.55,-10.56 -1.69,-3.48 -4.08,-5.12 -5.92,-5.12 l 0.05,-1.1 c 5.78,0 12,7.27 12,14.6 0,4.68 -2.83,7.96 -6.63,7.96 -2.48,0 -4.87,-1.78 -6.51,-3.73 -0.5,2.69 -2.65,3.73 -4.49,3.73 -2.3,0 -3.25,-1.93 -3.69,-2.82 -0.9,-1.71 -1.54,-4.69 -1.54,-4.85 0,-0.5 0.5,-0.5 0.59,-0.5 0.5,0 0.55,0.07 0.84,1.16 0.86,3.53 1.85,5.92 3.64,5.92 0.85,0 1.55,-0.39 1.55,-2.28 0,-1.16 -0.15,-1.7 -0.34,-2.55 z"
           inkscape:connector-curvature="0"
           style="fill:#000000;stroke-width:0" /></g>    </g>
  </g>
</svg>
