<?xml version="1.0" encoding="UTF-8" standalone="no"?>
<!-- Created with Inkscape (http://www.inkscape.org/) -->

<svg
   xmlns:osb="http://www.openswatchbook.org/uri/2009/osb"
   xmlns:dc="http://purl.org/dc/elements/1.1/"
   xmlns:cc="http://creativecommons.org/ns#"
   xmlns:rdf="http://www.w3.org/1999/02/22-rdf-syntax-ns#"
   xmlns:svg="http://www.w3.org/2000/svg"
   xmlns="http://www.w3.org/2000/svg"
   xmlns:sodipodi="http://sodipodi.sourceforge.net/DTD/sodipodi-0.dtd"
   xmlns:inkscape="http://www.inkscape.org/namespaces/inkscape"
   width="1280"
   height="1080"
   viewBox="0 0 338.66668 285.75"
   version="1.1"
   id="svg8"
   inkscape:version="0.92.4 5da689c313, 2019-01-14"
   sodipodi:docname="fig1-7.svg"
   inkscape:export-filename="/home/jakub/Documents/notatki-analiza-III/w/img/fig1-6.png"
   inkscape:export-xdpi="96"
   inkscape:export-ydpi="96">
  <defs
     id="defs2">
    <inkscape:path-effect
       effect="bspline"
       id="path-effect10753"
       is_visible="true"
       weight="33.333333"
       steps="2"
       helper_size="0"
       apply_no_weight="true"
       apply_with_weight="true"
       only_selected="false" />
    <marker
       inkscape:isstock="true"
       style="overflow:visible;"
       id="marker9270"
       refX="0.0"
       refY="0.0"
       orient="auto"
       inkscape:stockid="Arrow1Mend">
      <path
         transform="scale(0.4) rotate(180) translate(10,0)"
         style="fill-rule:evenodd;stroke:#000000;stroke-width:1pt;stroke-opacity:1;fill:#000000;fill-opacity:1"
         d="M 0.0,0.0 L 5.0,-5.0 L -12.5,0.0 L 5.0,5.0 L 0.0,0.0 z "
         id="path9268" />
    </marker>
    <inkscape:path-effect
       effect="bspline"
       id="path-effect9260"
       is_visible="true"
       weight="33.333333"
       steps="2"
       helper_size="0"
       apply_no_weight="true"
       apply_with_weight="true"
       only_selected="false" />
    <marker
       inkscape:isstock="true"
       style="overflow:visible;"
       id="marker8469"
       refX="0.0"
       refY="0.0"
       orient="auto"
       inkscape:stockid="Arrow1Mend">
      <path
         transform="scale(0.4) rotate(180) translate(10,0)"
         style="fill-rule:evenodd;stroke:#0a18eb;stroke-width:1pt;stroke-opacity:1;fill:#0a18eb;fill-opacity:1"
         d="M 0.0,0.0 L 5.0,-5.0 L -12.5,0.0 L 5.0,5.0 L 0.0,0.0 z "
         id="path8467" />
    </marker>
    <inkscape:path-effect
       effect="spiro"
       id="path-effect5948"
       is_visible="true" />
    <inkscape:path-effect
       effect="bspline"
       id="path-effect5944"
       is_visible="true"
       weight="33.333333"
       steps="2"
       helper_size="0"
       apply_no_weight="true"
       apply_with_weight="true"
       only_selected="false" />
    <inkscape:path-effect
       effect="bspline"
       id="path-effect5379"
       is_visible="true"
       weight="33.333333"
       steps="2"
       helper_size="0"
       apply_no_weight="true"
       apply_with_weight="true"
       only_selected="false" />
    <marker
       inkscape:stockid="Arrow1Lstart"
       orient="auto"
       refY="0.0"
       refX="0.0"
       id="marker4335"
       style="overflow:visible"
       inkscape:isstock="true">
      <path
         id="path4333"
         d="M 0.0,0.0 L 5.0,-5.0 L -12.5,0.0 L 5.0,5.0 L 0.0,0.0 z "
         style="fill-rule:evenodd;stroke:#0036ff;stroke-width:1pt;stroke-opacity:1;fill:#0036ff;fill-opacity:1"
         transform="scale(0.8) translate(12.5,0)" />
    </marker>
    <marker
       inkscape:isstock="true"
       style="overflow:visible;"
       id="marker4229"
       refX="0.0"
       refY="0.0"
       orient="auto"
       inkscape:stockid="Arrow1Lend">
      <path
         transform="scale(0.8) rotate(180) translate(12.5,0)"
         style="fill-rule:evenodd;stroke:#000000;stroke-width:1pt;stroke-opacity:1;fill:#000000;fill-opacity:1"
         d="M 0.0,0.0 L 5.0,-5.0 L -12.5,0.0 L 5.0,5.0 L 0.0,0.0 z "
         id="path4227" />
    </marker>
    <marker
       inkscape:stockid="Arrow1Mend"
       orient="auto"
       refY="0.0"
       refX="0.0"
       id="marker3710"
       style="overflow:visible;"
       inkscape:isstock="true"
       inkscape:collect="always">
      <path
         id="path3708"
         d="M 0.0,0.0 L 5.0,-5.0 L -12.5,0.0 L 5.0,5.0 L 0.0,0.0 z "
         style="fill-rule:evenodd;stroke:#0010ff;stroke-width:1pt;stroke-opacity:1;fill:#0010ff;fill-opacity:1"
         transform="scale(0.4) rotate(180) translate(10,0)" />
    </marker>
    <inkscape:path-effect
       effect="spiro"
       id="path-effect3700"
       is_visible="true" />
    <inkscape:path-effect
       effect="spiro"
       id="path-effect3696"
       is_visible="true" />
    <inkscape:path-effect
       effect="spiro"
       id="path-effect3692"
       is_visible="true" />
    <inkscape:path-effect
       effect="spiro"
       id="path-effect3688"
       is_visible="true" />
    <inkscape:path-effect
       effect="spiro"
       id="path-effect3684"
       is_visible="true" />
    <inkscape:path-effect
       effect="spiro"
       id="path-effect3680"
       is_visible="true" />
    <linearGradient
       osb:paint="gradient"
       id="linearGradient3143">
      <stop
         id="stop3139"
         offset="0"
         style="stop-color:#75507b;stop-opacity:1;" />
      <stop
         id="stop3141"
         offset="1"
         style="stop-color:#75507b;stop-opacity:0;" />
    </linearGradient>
    <marker
       inkscape:isstock="true"
       style="overflow:visible;"
       id="marker1945"
       refX="0.0"
       refY="0.0"
       orient="auto"
       inkscape:stockid="Arrow1Mend">
      <path
         transform="scale(0.4) rotate(180) translate(10,0)"
         style="fill-rule:evenodd;stroke:#0032ff;stroke-width:1pt;stroke-opacity:1;fill:#ffffff;fill-opacity:1"
         d="M 0.0,0.0 L 5.0,-5.0 L -12.5,0.0 L 5.0,5.0 L 0.0,0.0 z "
         id="path1943" />
    </marker>
    <inkscape:path-effect
       effect="spiro"
       id="path-effect1785"
       is_visible="true" />
    <inkscape:path-effect
       effect="spiro"
       id="path-effect1781"
       is_visible="true" />
    <inkscape:path-effect
       effect="spiro"
       id="path-effect1777"
       is_visible="true" />
    <marker
       inkscape:stockid="DotL"
       orient="auto"
       refY="0.0"
       refX="0.0"
       id="DotL"
       style="overflow:visible"
       inkscape:isstock="true">
      <path
         id="path1194"
         d="M -2.5,-1.0 C -2.5,1.7600000 -4.7400000,4.0 -7.5,4.0 C -10.260000,4.0 -12.5,1.7600000 -12.5,-1.0 C -12.5,-3.7600000 -10.260000,-6.0 -7.5,-6.0 C -4.7400000,-6.0 -2.5,-3.7600000 -2.5,-1.0 z "
         style="fill-rule:evenodd;stroke:#000000;stroke-width:1pt;stroke-opacity:1;fill:#000000;fill-opacity:1"
         transform="scale(0.8) translate(7.4, 1)" />
    </marker>
    <marker
       inkscape:stockid="Arrow1Mstart"
       orient="auto"
       refY="0.0"
       refX="0.0"
       id="Arrow1Mstart"
       style="overflow:visible"
       inkscape:isstock="true">
      <path
         id="path1139"
         d="M 0.0,0.0 L 5.0,-5.0 L -12.5,0.0 L 5.0,5.0 L 0.0,0.0 z "
         style="fill-rule:evenodd;stroke:#000000;stroke-width:1pt;stroke-opacity:1;fill:#000000;fill-opacity:1"
         transform="scale(0.4) translate(10,0)" />
    </marker>
    <marker
       inkscape:stockid="Tail"
       orient="auto"
       refY="0.0"
       refX="0.0"
       id="Tail"
       style="overflow:visible"
       inkscape:isstock="true">
      <g
         id="g1181"
         transform="scale(-1.2)"
         style="stroke:#000000;stroke-opacity:1;fill:#000000;fill-opacity:1">
        <path
           id="path1169"
           d="M -3.8048674,-3.9585227 L 0.54352094,0"
           style="fill:#000000;fill-rule:evenodd;stroke:#000000;stroke-width:0.8;stroke-linecap:round;stroke-opacity:1;fill-opacity:1" />
        <path
           id="path1171"
           d="M -1.2866832,-3.9585227 L 3.0617053,0"
           style="fill:#000000;fill-rule:evenodd;stroke:#000000;stroke-width:0.8;stroke-linecap:round;stroke-opacity:1;fill-opacity:1" />
        <path
           id="path1173"
           d="M 1.3053582,-3.9585227 L 5.6537466,0"
           style="fill:#000000;fill-rule:evenodd;stroke:#000000;stroke-width:0.8;stroke-linecap:round;stroke-opacity:1;fill-opacity:1" />
        <path
           id="path1175"
           d="M -3.8048674,4.1775838 L 0.54352094,0.21974226"
           style="fill:#000000;fill-rule:evenodd;stroke:#000000;stroke-width:0.8;stroke-linecap:round;stroke-opacity:1;fill-opacity:1" />
        <path
           id="path1177"
           d="M -1.2866832,4.1775838 L 3.0617053,0.21974226"
           style="fill:#000000;fill-rule:evenodd;stroke:#000000;stroke-width:0.8;stroke-linecap:round;stroke-opacity:1;fill-opacity:1" />
        <path
           id="path1179"
           d="M 1.3053582,4.1775838 L 5.6537466,0.21974226"
           style="fill:#000000;fill-rule:evenodd;stroke:#000000;stroke-width:0.8;stroke-linecap:round;stroke-opacity:1;fill-opacity:1" />
      </g>
    </marker>
    <inkscape:path-effect
       effect="bspline"
       id="path-effect224"
       is_visible="true"
       weight="33.333333"
       steps="2"
       helper_size="0"
       apply_no_weight="true"
       apply_with_weight="true"
       only_selected="false" />
    <inkscape:path-effect
       effect="bspline"
       id="path-effect224-3"
       is_visible="true"
       weight="33.333333"
       steps="2"
       helper_size="0"
       apply_no_weight="true"
       apply_with_weight="true"
       only_selected="false" />
    <marker
       inkscape:stockid="Arrow1Mend"
       orient="auto"
       refY="0"
       refX="0"
       id="marker3710-6"
       style="overflow:visible"
       inkscape:isstock="true">
      <path
         inkscape:connector-curvature="0"
         id="path3708-2"
         d="M 0,0 5,-5 -12.5,0 5,5 Z"
         style="fill:#8800ff;fill-opacity:1;fill-rule:evenodd;stroke:#8800ff;stroke-width:1.00000003pt;stroke-opacity:1"
         transform="matrix(-0.4,0,0,-0.4,-4,0)" />
    </marker>
    <marker
       inkscape:stockid="Arrow1Mend"
       orient="auto"
       refY="0"
       refX="0"
       id="marker3710-1"
       style="overflow:visible"
       inkscape:isstock="true">
      <path
         inkscape:connector-curvature="0"
         id="path3708-27"
         d="M 0,0 5,-5 -12.5,0 5,5 Z"
         style="fill:#8800ff;fill-opacity:1;fill-rule:evenodd;stroke:#8800ff;stroke-width:1.00000003pt;stroke-opacity:1"
         transform="matrix(-0.4,0,0,-0.4,-4,0)" />
    </marker>
    <marker
       inkscape:stockid="Arrow1Mend"
       orient="auto"
       refY="0"
       refX="0"
       id="marker3710-9"
       style="overflow:visible"
       inkscape:isstock="true">
      <path
         inkscape:connector-curvature="0"
         id="path3708-3"
         d="M 0,0 5,-5 -12.5,0 5,5 Z"
         style="fill:#8800ff;fill-opacity:1;fill-rule:evenodd;stroke:#8800ff;stroke-width:1.00000003pt;stroke-opacity:1"
         transform="matrix(-0.4,0,0,-0.4,-4,0)" />
    </marker>
    <marker
       inkscape:stockid="Arrow1Mend"
       orient="auto"
       refY="0"
       refX="0"
       id="marker3710-0"
       style="overflow:visible"
       inkscape:isstock="true">
      <path
         inkscape:connector-curvature="0"
         id="path3708-6"
         d="M 0,0 5,-5 -12.5,0 5,5 Z"
         style="fill:#8800ff;fill-opacity:1;fill-rule:evenodd;stroke:#8800ff;stroke-width:1.00000003pt;stroke-opacity:1"
         transform="matrix(-0.4,0,0,-0.4,-4,0)" />
    </marker>
  </defs>
  <sodipodi:namedview
     id="base"
     pagecolor="#ffffff"
     bordercolor="#666666"
     borderopacity="1.0"
     inkscape:pageopacity="0.0"
     inkscape:pageshadow="2"
     inkscape:zoom="0.59"
     inkscape:cx="906.29112"
     inkscape:cy="525.82144"
     inkscape:document-units="mm"
     inkscape:current-layer="layer1"
     showgrid="true"
     showguides="true"
     showborder="true"
     borderlayer="true"
     inkscape:showpageshadow="false"
     inkscape:pagecheckerboard="false"
     objecttolerance="10"
     inkscape:snap-path-clip="true"
     inkscape:snap-path-mask="true"
     gridtolerance="10"
     units="px">
    <inkscape:grid
       id="grid10"
       type="xygrid" />
  </sodipodi:namedview>
  <metadata
     id="metadata5">
    <rdf:RDF>
      <cc:Work
         rdf:about="">
        <dc:format>image/svg+xml</dc:format>
        <dc:type
           rdf:resource="http://purl.org/dc/dcmitype/StillImage" />
        <dc:title></dc:title>
      </cc:Work>
    </rdf:RDF>
  </metadata>
  <g
     inkscape:label="Layer 1"
     inkscape:groupmode="layer"
     id="layer1"
     transform="translate(0,-11.25001)">
    <path
       style="opacity:1;vector-effect:none;fill:none;fill-opacity:1;stroke:#ff0044;stroke-width:1.07135248;stroke-linecap:butt;stroke-linejoin:miter;stroke-miterlimit:4;stroke-dasharray:none;stroke-dashoffset:0;stroke-opacity:1"
       d="m 72.587795,189.80739 c 0,0 7.69118,25.5741 39.186945,25.5741 39.55251,0 39.55251,-44.47157 39.55251,-44.47157 0,0 8.81166,-55.55999 -41.58159,-55.55999 -50.393245,0 -37.912805,64.12399 -0.11785,64.12399 37.79494,0 41.4518,-36.9102 41.4518,-52.28063 0,-22.42451 -12.35064,-43.598729 -37.29961,-43.598729 -15.995545,0 -36.285025,5.42633 -36.285025,25.456209 0,14.61548 4.5416,33.51295 32.887795,33.51295 0,0 40.94448,3.14958 37.7949,-50.393249 C 145.02809,38.62764 91.485275,32.328492 91.485275,32.328492"
       id="path5984"
       inkscape:connector-curvature="0"
       sodipodi:nodetypes="cscsssssc" />
    <circle
       id="path7921"
       style="fill:#000000;stroke:none;stroke-width:0.70511675"
       cx="73.070343"
       cy="191.06989"
       r="3.5977607" />
    <circle
       id="path7923"
       style="fill:#000000;stroke:none;stroke-width:0.70511675"
       cx="90.832184"
       cy="32.415169"
       r="3.5977607" />
    <path
       style="opacity:1;vector-effect:none;fill:none;fill-opacity:1;stroke:#0010ff;stroke-width:1.12818682;stroke-linecap:butt;stroke-linejoin:miter;stroke-miterlimit:4;stroke-dasharray:none;stroke-dashoffset:0;stroke-opacity:1;marker-end:url(#marker3710)"
       d="M 151.42644,127.63874 V 49.282646"
       id="path8120"
       inkscape:connector-curvature="0" />
    <g
       id="g8223"
       transform="matrix(0.70511677,0,0,0.70511677,81.043365,66.247008)">
      <g
         word-spacing="normal"
         letter-spacing="normal"
         font-size-adjust="none"
         font-stretch="normal"
         font-weight="normal"
         font-variant="normal"
         font-style="normal"
         stroke-miterlimit="10.433"
         xml:space="preserve"
         transform="matrix(0.40821429,0,0,-0.40821429,-71.4375,254)"
         id="g8221"
         style="font-style:normal;font-variant:normal;font-weight:normal;font-stretch:normal;letter-spacing:normal;word-spacing:normal;text-anchor:start;fill:none;fill-opacity:1;fill-rule:evenodd;stroke:#000000;stroke-linecap:butt;stroke-linejoin:miter;stroke-miterlimit:10.43299961;stroke-dasharray:none;stroke-dashoffset:0;stroke-opacity:1"><path
           id="path8205"
           d="m 457.75,400.12 -0.03,-0.15 -0.04,-0.15 -0.03,-0.14 -0.03,-0.13 -0.04,-0.13 -0.03,-0.11 -0.04,-0.12 -0.03,-0.1 -0.04,-0.1 -0.04,-0.09 -0.04,-0.09 -0.05,-0.08 -0.05,-0.07 -0.05,-0.07 -0.06,-0.07 -0.06,-0.06 -0.07,-0.05 -0.07,-0.05 -0.08,-0.04 -0.09,-0.04 -0.09,-0.04 -0.1,-0.03 -0.11,-0.03 -0.12,-0.02 -0.13,-0.02 -0.06,-0.01 -0.07,-0.01 -0.07,-0.01 -0.08,-0.01 h -0.07 l -0.08,-0.01 h -0.08 l -0.09,-0.01 h -0.08 -0.09 -0.1 -0.09 l -0.1,-0.01 h -0.1 c -0.6,0 -1.14,0 -1.14,-0.93 0,-0.41 0.25,-0.61 0.64,-0.61 1.36,0 2.79,0.15 4.18,0.15 1.64,0 3.35,-0.15 4.94,-0.15 0.25,0 0.89,0 0.89,1 0,0.54 -0.5,0.54 -1.19,0.54 -2.5,0 -2.5,0.36 -2.5,0.8 0,0.61 2.1,8.72 2.46,9.97 0.64,-1.44 2.03,-3.19 4.58,-3.19 l -0.05,1.1 c -3.3,0 -3.94,4.14 -3.94,4.43 0,0.1 0,0.21 0.14,0.8 l 2.46,9.77 c 0.34,1.34 1.68,2.73 2.57,3.48 1.75,1.55 3.21,1.89 4.05,1.89 1.98,0 3.19,-1.73 3.19,-4.69 0,-2.93 -1.64,-8.65 -2.55,-10.56 -1.69,-3.48 -4.08,-5.12 -5.92,-5.12 l 0.05,-1.1 c 5.78,0 12,7.27 12,14.6 0,4.68 -2.83,7.96 -6.63,7.96 -2.48,0 -4.87,-1.78 -6.51,-3.73 -0.5,2.69 -2.65,3.73 -4.49,3.73 -2.3,0 -3.25,-1.93 -3.69,-2.82 -0.9,-1.71 -1.54,-4.69 -1.54,-4.85 0,-0.5 0.5,-0.5 0.59,-0.5 0.5,0 0.55,0.07 0.84,1.16 0.86,3.53 1.85,5.92 3.64,5.92 0.85,0 1.55,-0.39 1.55,-2.28 0,-1.16 -0.15,-1.7 -0.34,-2.55 z"
           inkscape:connector-curvature="0"
           style="fill:#000000;stroke-width:0" /><path
           id="path8207"
           d="m 528.75,422.5 h 0.14 0.15 0.14 l 0.07,0.01 h 0.08 l 0.07,0.01 0.07,0.01 0.07,0.01 0.07,0.01 0.07,0.01 0.06,0.02 0.07,0.02 0.06,0.02 0.06,0.02 0.06,0.03 0.06,0.03 0.05,0.04 0.05,0.03 0.05,0.05 0.04,0.04 0.04,0.05 0.02,0.03 0.02,0.03 0.01,0.02 0.02,0.03 0.01,0.03 0.02,0.04 0.01,0.03 0.01,0.04 0.01,0.03 0.01,0.04 v 0.04 l 0.01,0.04 v 0.04 l 0.01,0.04 v 0.04 0.05 c 0,1 -0.95,1 -1.64,1 h -29.84 c -0.71,0 -1.64,0 -1.64,-1 0,-0.98 0.93,-0.98 1.68,-0.98 z"
           inkscape:connector-curvature="0"
           style="fill:#000000;stroke-width:0" /><path
           id="path8209"
           d="m 528.8,412.82 h 0.07 0.06 l 0.14,0.01 h 0.14 0.07 l 0.07,0.01 0.07,0.01 h 0.07 l 0.06,0.01 0.07,0.02 0.07,0.01 0.06,0.02 0.07,0.02 0.06,0.02 0.06,0.02 0.06,0.03 0.05,0.03 0.05,0.04 0.05,0.04 0.05,0.04 0.04,0.05 0.02,0.02 0.02,0.03 0.02,0.02 0.02,0.03 0.01,0.03 0.02,0.03 0.01,0.03 0.02,0.03 0.01,0.04 0.01,0.03 0.01,0.04 0.01,0.04 v 0.04 l 0.01,0.04 v 0.04 l 0.01,0.04 v 0.05 0.04 c 0,1 -0.95,1 -1.69,1 H 499 c -0.75,0 -1.68,0 -1.68,-1 0,-1 0.93,-1 1.64,-1 z"
           inkscape:connector-curvature="0"
           style="fill:#000000;stroke-width:0" /><path
           id="path8211"
           d="m 555.54,397.73 -0.01,-0.03 -0.01,-0.03 v -0.03 l -0.01,-0.03 -0.01,-0.02 -0.01,-0.03 -0.02,-0.05 -0.01,-0.05 -0.02,-0.04 -0.01,-0.05 -0.01,-0.04 -0.01,-0.04 -0.01,-0.03 -0.02,-0.04 -0.01,-0.03 v -0.03 l -0.01,-0.03 -0.01,-0.03 -0.01,-0.02 v -0.03 l -0.01,-0.02 -0.01,-0.02 v -0.03 l -0.01,-0.02 v -0.02 l -0.01,-0.04 v -0.04 -0.04 l -0.01,-0.04 v -0.03 -0.02 c 0,-1.09 0.96,-1.39 1.46,-1.39 0.25,0 1.34,0.14 1.84,1.3 0.14,0.39 0.39,2.04 1.73,9.11 0.46,-0.05 0.8,-0.1 1.65,-0.1 8.28,0 15.95,7.83 15.95,15.69 l -1.41,-1.09 c 0,-5.63 -6.42,-11.71 -14.09,-11.71 v 0 c -0.39,0 -0.5,0 -0.89,0.05 -0.61,0 -0.66,0.05 -0.66,0.2 0,0.1 0.85,4.63 1,5.38 1.55,6.37 5.44,11.15 9.86,11.15 3.44,0 4.78,-2.68 4.78,-5.07 l 1.41,1.09 c 0,3.89 -1.95,6.87 -5.69,6.87 -7.22,0 -10.2,-9.65 -13.2,-19.37 -5.38,1 -8.18,3.78 -8.18,7.37 0,1.4 1.16,6.88 4.15,10.32 0.39,0.45 0.39,0.54 0.39,0.64 0,0.2 -0.1,0.5 -0.6,0.5 -1.39,0 -5.23,-7.22 -5.23,-12 0,-4.69 3.29,-8.33 8.62,-9.56 z"
           inkscape:connector-curvature="0"
           style="fill:#000000;stroke-width:0" /><path
           id="path8213"
           d="m 596.2,394.25 -0.01,0.02 v 0.03 0.01 0.02 0.01 l -0.01,0.02 v 0.01 l -0.01,0.02 -0.01,0.02 -0.01,0.02 -0.01,0.02 -0.02,0.03 -0.01,0.02 -0.02,0.03 -0.02,0.03 -0.03,0.03 -0.02,0.03 -0.03,0.04 -0.02,0.02 -0.01,0.02 -0.02,0.02 -0.02,0.02 -0.02,0.02 -0.02,0.03 -0.02,0.02 -0.02,0.02 -0.02,0.03 -0.03,0.02 -0.02,0.03 -0.03,0.03 -0.02,0.03 -0.03,0.03 -0.03,0.03 -0.03,0.03 -0.03,0.03 -0.03,0.03 -0.04,0.04 -0.03,0.03 -0.03,0.04 -0.04,0.03 -0.04,0.04 -0.04,0.04 c -6.22,6.28 -7.81,15.69 -7.81,23.31 0,8.67 1.89,17.35 8.01,23.56 0.65,0.61 0.65,0.71 0.65,0.86 0,0.35 -0.19,0.49 -0.49,0.49 -0.5,0 -4.98,-3.38 -7.92,-9.7 -2.55,-5.49 -3.14,-11.02 -3.14,-15.21 0,-3.89 0.55,-9.9 3.28,-15.54 2.98,-6.13 7.28,-9.36 7.78,-9.36 0.3,0 0.49,0.14 0.49,0.5 z"
           inkscape:connector-curvature="0"
           style="fill:#000000;stroke-width:0" /><path
           id="path8215"
           d="m 609.29,426.12 h 4.69 c 0.99,0 1.49,0 1.49,1 0,0.55 -0.5,0.55 -1.4,0.55 h -4.39 c 1.8,7.08 2.05,8.08 2.05,8.37 0,0.85 -0.59,1.35 -1.44,1.35 -0.15,0 -1.54,-0.05 -2,-1.8 l -1.94,-7.92 h -4.68 c -1,0 -1.5,0 -1.5,-0.94 0,-0.61 0.4,-0.61 1.4,-0.61 h 4.38 c -3.58,-14.14 -3.78,-14.98 -3.78,-15.89 0,-2.69 1.89,-4.58 4.58,-4.58 5.07,0 7.92,7.27 7.92,7.67 0,0.5 -0.39,0.5 -0.6,0.5 -0.45,0 -0.5,-0.15 -0.75,-0.7 -2.14,-5.17 -4.78,-6.37 -6.47,-6.37 -1.04,0 -1.54,0.65 -1.54,2.29 0,1.19 0.09,1.55 0.29,2.39 z"
           inkscape:connector-curvature="0"
           style="fill:#000000;stroke-width:0" /><path
           id="path8217"
           d="m 635.02,409.87 v 0.71 l -0.02,0.68 -0.03,0.66 -0.04,0.64 -0.06,0.62 -0.08,0.6 -0.09,0.57 -0.1,0.56 -0.13,0.55 -0.15,0.53 -0.17,0.51 -0.19,0.5 -0.21,0.49 -0.24,0.48 -0.26,0.47 -0.14,0.23 -0.15,0.23 c -1.08,1.61 -3.23,3 -6.03,3 v -0.98 c 1.89,0 3.7,-1.14 4.33,-3.17 0.56,-1.88 0.59,-4.39 0.59,-7.43 0,-2.57 0,-5.15 -0.45,-7.34 -0.7,-3.17 -3.06,-3.94 -4.47,-3.94 v 0 c -1.59,0 -3.72,0.94 -4.42,3.8 -0.49,2.05 -0.49,4.91 -0.49,7.48 0,2.55 0,5.21 0.52,7.11 0.73,2.75 2.97,3.49 4.39,3.49 v 0.98 c -8.08,0 -8.08,-9.51 -8.08,-12.03 0,-2.5 0,-11.81 8.08,-11.81 8.09,0 8.09,9.31 8.09,11.81 z"
           inkscape:connector-curvature="0"
           style="fill:#000000;stroke-width:0" /><path
           id="path8219"
           d="m 653.75,418.65 v 0.37 l -0.01,0.39 -0.01,0.39 -0.01,0.41 -0.04,0.84 -0.06,0.88 -0.08,0.92 -0.11,0.95 -0.13,0.97 -0.17,1.01 -0.19,1.02 -0.23,1.03 -0.27,1.05 -0.3,1.06 -0.35,1.07 -0.4,1.07 -0.21,0.53 -0.22,0.53 -0.24,0.53 -0.25,0.53 c -2.99,6.12 -7.27,9.36 -7.77,9.36 -0.29,0 -0.5,-0.19 -0.5,-0.49 0,-0.15 0,-0.25 0.94,-1.15 4.89,-4.92 7.74,-12.85 7.74,-23.27 0,-8.51 -1.85,-17.28 -8.04,-23.56 -0.64,-0.59 -0.64,-0.7 -0.64,-0.84 0,-0.3 0.21,-0.5 0.5,-0.5 0.5,0 4.97,3.39 7.92,9.71 2.54,5.47 3.13,11 3.13,15.19 z"
           inkscape:connector-curvature="0"
           style="fill:#000000;stroke-width:0" /></g>    </g>
    <circle
       id="path8244"
       style="fill:#000000;stroke:none;stroke-width:0.70511675"
       cx="151.42645"
       cy="127.63876"
       r="3.5977607" />
    <g
       id="g8413"
       transform="matrix(0.70511677,0,0,0.70511677,-23.211392,58.925564)">
      <g
         word-spacing="normal"
         letter-spacing="normal"
         font-size-adjust="none"
         font-stretch="normal"
         font-weight="normal"
         font-variant="normal"
         font-style="normal"
         stroke-miterlimit="10.433"
         xml:space="preserve"
         transform="matrix(0.40821429,0,0,-0.40821429,-71.4375,254)"
         id="g8411"
         style="font-style:normal;font-variant:normal;font-weight:normal;font-stretch:normal;letter-spacing:normal;word-spacing:normal;text-anchor:start;fill:none;fill-opacity:1;fill-rule:evenodd;stroke:#000000;stroke-linecap:butt;stroke-linejoin:miter;stroke-miterlimit:10.43299961;stroke-dasharray:none;stroke-dashoffset:0;stroke-opacity:1"><path
           id="path8409"
           d="m 470.61,422.39 h 4.83 c 3.75,0 4.14,-0.8 4.14,-2.24 0,-0.36 0,-0.95 -0.34,-2.44 -0.11,-0.25 -0.16,-0.45 -0.16,-0.56 0,-0.39 0.3,-0.59 0.6,-0.59 0.5,0 0.5,0.15 0.75,1.05 l 2.75,10.81 c 0.14,0.54 0.14,0.65 0.14,0.79 0,0.1 -0.1,0.55 -0.6,0.55 -0.5,0 -0.54,-0.25 -0.75,-1.05 -1.04,-3.87 -2.18,-4.78 -6.42,-4.78 h -4.53 l 3.19,12.66 c 0.43,1.75 0.5,1.94 2.68,1.94 h 6.58 c 6.13,0 7.27,-1.64 7.27,-5.47 0,-1.16 0,-1.35 -0.14,-2.7 -0.11,-0.65 -0.11,-0.74 -0.11,-0.9 0,-0.25 0.15,-0.59 0.61,-0.59 0.54,0 0.59,0.3 0.69,1.25 l 1,8.61 c 0.15,1.34 -0.1,1.34 -1.35,1.34 h -24.4 c -1,0 -1.5,0 -1.5,-1 0,-0.54 0.45,-0.54 1.39,-0.54 1.84,0 3.23,0 3.23,-0.89 0,-0.21 0,-0.3 -0.25,-1.21 l -6.56,-26.34 c -0.5,-1.95 -0.61,-2.34 -4.55,-2.34 -0.84,0 -1.39,0 -1.39,-0.96 0,-0.59 0.59,-0.59 0.75,-0.59 1.44,0 5.13,0.16 6.58,0.16 1.64,0 5.78,-0.16 7.42,-0.16 0.45,0 1.05,0 1.05,0.95 0,0.39 -0.3,0.49 -0.3,0.55 -0.16,0.05 -0.25,0.05 -1.39,0.05 -1.11,0 -1.36,0 -2.59,0.09 -1.46,0.16 -1.6,0.36 -1.6,1 0,0.09 0,0.41 0.19,1.14 z"
           inkscape:connector-curvature="0"
           style="fill:#000000;stroke-width:0" /></g>    </g>
    <path
       style="opacity:1;vector-effect:none;fill:none;fill-opacity:1;stroke:#000000;stroke-width:1.10000002;stroke-linecap:butt;stroke-linejoin:miter;stroke-miterlimit:4;stroke-dasharray:none;stroke-dashoffset:0;stroke-opacity:1;marker-end:url(#marker4229)"
       d="M 26.458332,265.25001 H 280.45833"
       id="path8459"
       inkscape:connector-curvature="0" />
    <g
       id="g8898"
       transform="translate(175.6407,183.45112)">
      <g
         word-spacing="normal"
         letter-spacing="normal"
         font-size-adjust="none"
         font-stretch="normal"
         font-weight="normal"
         font-variant="normal"
         font-style="normal"
         stroke-miterlimit="10.433"
         xml:space="preserve"
         transform="matrix(0.40821429,0,0,-0.40821429,-71.4375,254)"
         id="g8896"
         style="font-style:normal;font-variant:normal;font-weight:normal;font-stretch:normal;letter-spacing:normal;word-spacing:normal;text-anchor:start;fill:none;fill-opacity:1;fill-rule:evenodd;stroke:#000000;stroke-linecap:butt;stroke-linejoin:miter;stroke-miterlimit:10.43299961;stroke-dasharray:none;stroke-dashoffset:0;stroke-opacity:1"><path
           id="path8894"
           d="m 468.88,421.84 v 1.75 12.3 c 0,1.04 0,2.7 3.08,2.7 4.23,0 6.33,-1.75 6.33,-7.63 0,-6.43 -1.55,-7.37 -9.41,-7.37 v -1.75 h 1.78 l 7.48,-11.56 c 0.49,-0.8 1.69,-2.74 2.24,-3.49 l 1.3,1.16 -8.97,13.89 c 0.34,0.05 0.54,0.11 0.95,0.11 0.73,0 1.84,0.09 2.58,0.19 0.75,-1.19 6.14,-10.07 10.26,-14.19 h -4.82 l -1.3,-1.16 c 0.34,-0.59 0.5,-0.59 1.64,-0.59 h 6.87 c 0.91,0 1.66,0 1.66,0.89 0,0.41 -0.31,0.75 -0.75,0.86 -1.84,0.39 -4.28,3.69 -5.48,5.28 -0.35,0.48 -2.85,3.78 -6.18,9.16 4.43,0.79 8.72,2.68 8.72,8.62 h -1.75 c 0,-3.23 -1.5,-5.78 -6.62,-6.73 v 0 c 1.39,1.84 1.55,4.48 1.55,6.68 0,2.4 -0.3,5.04 -1.9,7.07 2.04,-0.44 6.97,-1.99 6.97,-7.02 h 1.75 c 0,6.92 -7.32,9.31 -13.2,9.31 H 458 c -0.89,0 -1.68,0 -1.68,-0.89 0,-0.84 0.95,-0.84 1.34,-0.84 2.84,0 3.09,-0.36 3.09,-2.84 v -24.97 l 1.74,-0.1 v 25.16 c 0,0.5 0,1.84 -0.39,2.75 h 5.67 c -0.64,-0.8 -0.64,-1.8 -0.64,-2.55 v -25.36 c 0,-0.5 0,-1.84 0.39,-2.73 h -5.42 c 0.39,0.89 0.39,2.28 0.39,2.73 l -1.74,0.1 c 0,-2.49 -0.25,-2.83 -3.09,-2.83 -0.39,0 -1.34,0 -1.34,-0.86 0,-0.89 0.79,-0.89 1.68,-0.89 h 13.66 c 0.89,0 1.64,0 1.64,0.89 0,0.86 -0.84,0.86 -1.39,0.86 -2.84,0 -3.03,0.39 -3.03,2.83 z"
           inkscape:connector-curvature="0"
           style="fill:#000000;stroke-width:0" /></g>    </g>
    <path
       style="opacity:1;vector-effect:none;fill:none;fill-opacity:1;stroke:#000000;stroke-width:0.89999992;stroke-linecap:butt;stroke-linejoin:miter;stroke-miterlimit:4;stroke-dasharray:none;stroke-dashoffset:0;stroke-opacity:1"
       d="m 235.02916,257.31251 h 5.29167 v 15.875 h -5.29167"
       id="path8906"
       inkscape:connector-curvature="0" />
    <path
       style="opacity:1;vector-effect:none;fill:none;fill-opacity:1;stroke:#000000;stroke-width:0.89999992;stroke-linecap:butt;stroke-linejoin:miter;stroke-miterlimit:4;stroke-dasharray:none;stroke-dashoffset:0;stroke-opacity:1"
       d="m 47.625,273.18751 v -15.875"
       id="path8927"
       inkscape:connector-curvature="0" />
    <path
       style="opacity:1;vector-effect:none;fill:none;fill-opacity:1;stroke:#000000;stroke-width:0.89999998;stroke-linecap:butt;stroke-linejoin:miter;stroke-miterlimit:4;stroke-dasharray:none;stroke-dashoffset:0;stroke-opacity:1"
       d="m 116.41667,273.18751 v -15.875"
       id="path8927-1"
       inkscape:connector-curvature="0" />
    <g
       id="g9037"
       transform="translate(-3.7336483,201.70601)">
      <g
         word-spacing="normal"
         letter-spacing="normal"
         font-size-adjust="none"
         font-stretch="normal"
         font-weight="normal"
         font-variant="normal"
         font-style="normal"
         stroke-miterlimit="10.433"
         xml:space="preserve"
         transform="matrix(0.40821429,0,0,-0.40821429,-71.4375,254)"
         id="g9035"
         style="font-style:normal;font-variant:normal;font-weight:normal;font-stretch:normal;letter-spacing:normal;word-spacing:normal;text-anchor:start;fill:none;fill-opacity:1;fill-rule:evenodd;stroke:#000000;stroke-linecap:butt;stroke-linejoin:miter;stroke-miterlimit:10.43299961;stroke-dasharray:none;stroke-dashoffset:0;stroke-opacity:1"><path
           id="path9031"
           d="m 465.79,426.12 h 4.68 c 0.99,0 1.49,0 1.49,1 0,0.55 -0.5,0.55 -1.39,0.55 h -4.39 c 1.79,7.08 2.04,8.08 2.04,8.37 0,0.85 -0.59,1.35 -1.43,1.35 -0.16,0 -1.55,-0.05 -2,-1.8 l -1.94,-7.92 h -4.69 c -1,0 -1.5,0 -1.5,-0.94 0,-0.61 0.41,-0.61 1.41,-0.61 h 4.37 c -3.58,-14.14 -3.78,-14.98 -3.78,-15.89 0,-2.69 1.89,-4.58 4.58,-4.58 5.08,0 7.92,7.27 7.92,7.67 0,0.5 -0.39,0.5 -0.59,0.5 -0.46,0 -0.5,-0.15 -0.75,-0.7 -2.14,-5.17 -4.78,-6.37 -6.47,-6.37 -1.05,0 -1.55,0.65 -1.55,2.29 0,1.19 0.09,1.55 0.3,2.39 z"
           inkscape:connector-curvature="0"
           style="fill:#000000;stroke-width:0" /><path
           id="path9033"
           d="m 491.5,409.87 v 0.71 l -0.02,0.68 -0.03,0.66 -0.04,0.64 -0.06,0.62 -0.07,0.6 -0.1,0.57 -0.1,0.56 -0.13,0.55 -0.15,0.53 -0.17,0.51 -0.19,0.5 -0.21,0.49 -0.24,0.48 -0.26,0.47 -0.14,0.23 -0.15,0.23 c -1.08,1.61 -3.23,3 -6.03,3 v -0.98 c 1.89,0 3.7,-1.14 4.33,-3.17 0.56,-1.88 0.59,-4.39 0.59,-7.43 0,-2.57 0,-5.15 -0.45,-7.34 -0.7,-3.17 -3.06,-3.94 -4.47,-3.94 v 0 c -1.59,0 -3.72,0.94 -4.42,3.8 -0.49,2.05 -0.49,4.91 -0.49,7.48 0,2.55 0,5.21 0.52,7.11 0.73,2.75 2.97,3.49 4.39,3.49 v 0.98 c -8.08,0 -8.08,-9.51 -8.08,-12.03 0,-2.5 0,-11.81 8.08,-11.81 8.09,0 8.09,9.31 8.09,11.81 z"
           inkscape:connector-curvature="0"
           style="fill:#000000;stroke-width:0" /></g>    </g>
    <g
       id="g9141"
       transform="translate(-71.953213,203.08003)">
      <g
         word-spacing="normal"
         letter-spacing="normal"
         font-size-adjust="none"
         font-stretch="normal"
         font-weight="normal"
         font-variant="normal"
         font-style="normal"
         stroke-miterlimit="10.433"
         xml:space="preserve"
         transform="matrix(0.40821429,0,0,-0.40821429,-71.4375,254)"
         id="g9139"
         style="font-style:normal;font-variant:normal;font-weight:normal;font-stretch:normal;letter-spacing:normal;word-spacing:normal;text-anchor:start;fill:none;fill-opacity:1;fill-rule:evenodd;stroke:#000000;stroke-linecap:butt;stroke-linejoin:miter;stroke-miterlimit:10.43299961;stroke-dasharray:none;stroke-dashoffset:0;stroke-opacity:1"><path
           id="path9137"
           d="m 478.44,422.14 v 0.74 l -0.01,0.75 -0.02,0.75 -0.04,0.74 -0.04,0.75 -0.06,0.74 -0.08,0.74 -0.09,0.73 -0.12,0.73 -0.14,0.73 -0.16,0.72 -0.19,0.72 -0.21,0.72 -0.25,0.7 -0.28,0.7 -0.15,0.35 -0.16,0.34 c -2.28,4.8 -6.37,5.6 -8.47,5.6 -2.98,0 -6.62,-1.3 -8.67,-5.94 -1.59,-3.44 -1.84,-7.33 -1.84,-11.31 0,-3.74 0.2,-8.22 2.25,-12 2.14,-4.03 5.78,-5.03 8.22,-5.03 v 1.09 c -1.94,0 -4.89,1.25 -5.79,6.03 -0.54,2.98 -0.54,7.56 -0.54,10.52 0,3.18 0,6.46 0.4,9.15 0.94,5.94 4.68,6.38 5.93,6.38 1.64,0 4.93,-0.89 5.87,-5.83 0.5,-2.78 0.5,-6.58 0.5,-9.7 0,-3.75 0,-7.13 -0.55,-10.32 -0.75,-4.73 -3.59,-6.23 -5.82,-6.23 v 0 -1.09 c 2.68,0 6.46,1.04 8.67,5.78 1.59,3.43 1.84,7.31 1.84,11.25 z"
           inkscape:connector-curvature="0"
           style="fill:#000000;stroke-width:0" /></g>    </g>
    <g
       id="g9249"
       transform="translate(111.3861,201.58884)">
      <g
         word-spacing="normal"
         letter-spacing="normal"
         font-size-adjust="none"
         font-stretch="normal"
         font-weight="normal"
         font-variant="normal"
         font-style="normal"
         stroke-miterlimit="10.433"
         xml:space="preserve"
         transform="matrix(0.40821429,0,0,-0.40821429,-71.4375,254)"
         id="g9247"
         style="font-style:normal;font-variant:normal;font-weight:normal;font-stretch:normal;letter-spacing:normal;word-spacing:normal;text-anchor:start;fill:none;fill-opacity:1;fill-rule:evenodd;stroke:#000000;stroke-linecap:butt;stroke-linejoin:miter;stroke-miterlimit:10.43299961;stroke-dasharray:none;stroke-dashoffset:0;stroke-opacity:1"><path
           id="path9243"
           d="m 470.16,414.42 v -4.33 c 0,-1.8 -0.09,-2.34 -3.78,-2.34 h -1.05 v -1.55 c 2.05,0.16 4.64,0.16 6.74,0.16 2.09,0 4.73,0 6.76,-0.16 v 1.55 h -1.04 c -3.69,0 -3.79,0.54 -3.79,2.34 v 4.33 h 4.99 v 1.54 H 474 v 22.68 c 0,1 0,1.29 -0.79,1.29 -0.46,0 -0.6,0 -1,-0.61 l -15.3,-23.36 h 1.41 l 12.15,18.58 v -18.58 h -12.15 -1.41 v -1.54 z"
           inkscape:connector-curvature="0"
           style="fill:#000000;stroke-width:0" /><path
           id="path9245"
           d="m 493.68,424.78 h 5.62 c -1.64,-7.38 -2.09,-9.52 -2.09,-12.85 0,-0.75 0,-2.09 0.41,-3.79 0.5,-2.19 1.04,-2.49 1.79,-2.49 0.99,0 2.04,0.89 2.04,1.89 0,0.3 0,0.41 -0.3,1.1 -1.44,3.59 -1.44,6.82 -1.44,8.22 0,2.64 0.34,5.34 0.89,7.92 h 5.69 c 0.64,0 2.44,0 2.44,1.7 0,1.19 -1.05,1.19 -2,1.19 h -16.69 c -1.09,0 -2.99,0 -5.17,-2.35 -1.75,-1.93 -3.05,-4.23 -3.05,-4.48 0,-0.05 0,-0.48 0.59,-0.48 0.41,0 0.5,0.18 0.8,0.59 2.45,3.83 5.34,3.83 6.33,3.83 h 2.84 c -1.59,-6.02 -4.28,-12.05 -6.37,-16.58 -0.41,-0.75 -0.41,-0.86 -0.41,-1.2 0,-0.96 0.8,-1.35 1.45,-1.35 1.5,0 1.9,1.39 2.49,3.24 0.7,2.29 0.7,2.39 1.34,4.89 z"
           inkscape:connector-curvature="0"
           style="fill:#000000;stroke-width:0" /></g>    </g>
    <path
       style="opacity:1;vector-effect:none;fill:none;fill-opacity:1;stroke:#000000;stroke-width:0.89999992;stroke-linecap:butt;stroke-linejoin:miter;stroke-miterlimit:4;stroke-dasharray:none;stroke-dashoffset:0;stroke-opacity:1;marker-end:url(#marker9270)"
       d="m 116.41667,265.25001 c 11.91156,-5.10496 24.69476,-10.58347 38.67459,-21.90299 13.97982,-11.31952 30.11732,-29.25007 35.35681,-44.36443 5.2395,-15.11436 0.0519,-27.21882 -7.66506,-38.24301 -7.71693,-11.02419 -17.8594,-20.72568 -28.00176,-30.42707"
       id="path9258"
       inkscape:connector-curvature="0"
       inkscape:path-effect="#path-effect9260"
       inkscape:original-d="m 116.41667,265.25001 c 11.93061,-5.06051 24.6947,-10.5836 37.04166,-15.875 15.64936,-17.31456 31.75027,-35.27804 47.625,-52.91667 -5.93293,-12.3599 -10.58307,-24.69471 -15.875,-37.04167 -10.14199,-9.70155 -20.28446,-19.40304 -30.42708,-29.10416"
       sodipodi:nodetypes="ccccc" />
    <g
       id="g10298"
       transform="translate(47.897143,-7.7836614)">
      <g
         word-spacing="normal"
         letter-spacing="normal"
         font-size-adjust="none"
         font-stretch="normal"
         font-weight="normal"
         font-variant="normal"
         font-style="normal"
         stroke-miterlimit="10.433"
         xml:space="preserve"
         transform="matrix(0.40821429,0,0,-0.40821429,-71.4375,254)"
         id="g10296"
         style="font-style:normal;font-variant:normal;font-weight:normal;font-stretch:normal;letter-spacing:normal;word-spacing:normal;text-anchor:start;fill:none;fill-opacity:1;fill-rule:evenodd;stroke:#000000;stroke-linecap:butt;stroke-linejoin:miter;stroke-miterlimit:10.43299961;stroke-dasharray:none;stroke-dashoffset:0;stroke-opacity:1"><path
           id="path10274"
           d="m 478.83,424.73 v 0.12 0.13 l -0.01,0.12 v 0.11 l -0.01,0.12 -0.01,0.11 -0.01,0.11 -0.02,0.1 -0.03,0.21 -0.03,0.19 -0.05,0.18 -0.04,0.18 -0.06,0.16 -0.06,0.16 -0.06,0.15 -0.07,0.13 -0.07,0.13 -0.07,0.12 -0.08,0.12 -0.08,0.1 -0.08,0.1 -0.09,0.09 -0.08,0.08 -0.09,0.07 -0.09,0.07 -0.09,0.06 -0.1,0.05 -0.09,0.05 -0.09,0.04 -0.09,0.03 -0.09,0.03 -0.1,0.03 -0.09,0.01 -0.08,0.02 h -0.09 -0.09 c -1.25,0 -2.43,-1.29 -2.43,-2.39 0,-0.64 0.25,-0.93 0.79,-1.48 1.05,-1 1.69,-2.3 1.69,-4.09 0,-2.1 -3.03,-13.5 -8.86,-13.5 -2.54,0 -3.69,1.75 -3.69,4.32 0,2.8 1.35,6.44 2.9,10.57 0.34,0.86 0.59,1.54 0.59,2.5 0,2.23 -1.59,4.07 -4.09,4.07 -4.68,0 -6.58,-7.21 -6.58,-7.67 0,-0.5 0.5,-0.5 0.61,-0.5 0.5,0 0.54,0.11 0.79,0.91 1.44,5.03 3.58,6.17 5.03,6.17 0.4,0 1.25,0 1.25,-1.59 0,-1.25 -0.5,-2.6 -0.85,-3.49 -2.19,-5.78 -2.83,-8.08 -2.83,-10.22 0,-5.37 4.37,-6.17 6.67,-6.17 8.37,0 11.2,16.49 11.2,19.08 z"
           inkscape:connector-curvature="0"
           style="fill:#000000;stroke-width:0" /><path
           id="path10276"
           d="m 529.59,422.5 h 0.14 0.14 0.15 l 0.07,0.01 h 0.07 l 0.08,0.01 0.07,0.01 0.07,0.01 0.07,0.01 0.06,0.01 0.07,0.02 0.07,0.02 0.06,0.02 0.06,0.02 0.06,0.03 0.05,0.03 0.06,0.04 0.05,0.03 0.04,0.05 0.05,0.04 0.04,0.05 0.02,0.03 0.01,0.03 0.02,0.02 0.01,0.03 0.02,0.03 0.01,0.04 0.01,0.03 0.01,0.04 0.01,0.03 0.01,0.04 0.01,0.04 0.01,0.04 v 0.04 0.04 l 0.01,0.04 v 0.05 c 0,1 -0.96,1 -1.64,1 h -29.85 c -0.7,0 -1.64,0 -1.64,-1 0,-0.98 0.94,-0.98 1.69,-0.98 z"
           inkscape:connector-curvature="0"
           style="fill:#000000;stroke-width:0" /><path
           id="path10278"
           d="m 529.64,412.82 h 0.06 0.07 l 0.13,0.01 h 0.14 0.07 l 0.07,0.01 0.07,0.01 h 0.07 l 0.07,0.01 0.07,0.02 0.06,0.01 0.07,0.02 0.06,0.02 0.06,0.02 0.06,0.02 0.06,0.03 0.06,0.03 0.05,0.04 0.05,0.04 0.04,0.04 0.05,0.05 0.02,0.02 0.02,0.03 0.02,0.02 0.01,0.03 0.02,0.03 0.01,0.03 0.02,0.03 0.01,0.03 0.01,0.04 0.01,0.03 0.01,0.04 0.01,0.04 0.01,0.04 0.01,0.04 v 0.04 0.04 l 0.01,0.05 v 0.04 c 0,1 -0.96,1 -1.69,1 h -29.75 c -0.75,0 -1.69,0 -1.69,-1 0,-1 0.94,-1 1.64,-1 z"
           inkscape:connector-curvature="0"
           style="fill:#000000;stroke-width:0" /><path
           id="path10280"
           d="m 556.38,397.73 -0.01,-0.03 -0.01,-0.03 v -0.03 l -0.01,-0.03 -0.01,-0.02 -0.01,-0.03 -0.02,-0.05 -0.01,-0.05 -0.02,-0.04 -0.01,-0.05 -0.01,-0.04 -0.01,-0.04 -0.01,-0.03 -0.02,-0.04 -0.01,-0.03 v -0.03 l -0.01,-0.03 -0.01,-0.03 -0.01,-0.02 v -0.03 l -0.01,-0.02 -0.01,-0.02 v -0.03 l -0.01,-0.02 v -0.02 l -0.01,-0.04 v -0.04 -0.04 l -0.01,-0.04 v -0.03 -0.02 c 0,-1.09 0.96,-1.39 1.46,-1.39 0.25,0 1.34,0.14 1.84,1.3 0.14,0.39 0.39,2.04 1.73,9.11 0.46,-0.05 0.8,-0.1 1.64,-0.1 8.29,0 15.96,7.83 15.96,15.69 l -1.41,-1.09 c 0,-5.63 -6.42,-11.71 -14.09,-11.71 v 0 c -0.39,0 -0.5,0 -0.89,0.05 -0.61,0 -0.66,0.05 -0.66,0.2 0,0.1 0.84,4.63 1,5.38 1.55,6.37 5.44,11.15 9.86,11.15 3.44,0 4.78,-2.68 4.78,-5.07 l 1.41,1.09 c 0,3.89 -1.96,6.87 -5.69,6.87 -7.22,0 -10.2,-9.65 -13.2,-19.37 -5.38,1 -8.17,3.78 -8.17,7.37 0,1.4 1.15,6.88 4.14,10.32 0.39,0.45 0.39,0.54 0.39,0.64 0,0.2 -0.1,0.5 -0.6,0.5 -1.39,0 -5.23,-7.22 -5.23,-12 0,-4.69 3.3,-8.33 8.62,-9.56 z"
           inkscape:connector-curvature="0"
           style="fill:#000000;stroke-width:0" /><path
           id="path10282"
           d="m 598.85,408.76 0.03,0.02 0.03,0.01 0.03,0.01 0.02,0.01 0.03,0.02 0.02,0.01 0.03,0.01 0.02,0.01 0.02,0.02 0.02,0.01 0.03,0.01 0.01,0.01 0.02,0.01 0.02,0.02 0.02,0.01 0.02,0.01 0.01,0.01 0.02,0.01 0.01,0.01 0.02,0.01 0.02,0.02 0.03,0.03 0.02,0.02 0.02,0.02 0.02,0.02 0.01,0.02 0.02,0.02 0.01,0.01 0.01,0.02 0.01,0.02 v 0.02 l 0.01,0.02 0.01,0.01 v 0.02 0.02 l 0.01,0.01 v 0.02 0.01 0.03 0.03 c 0,0.31 -0.31,0.45 -0.48,0.45 -0.18,0 -5.97,-1.11 -6.91,-1.33 l -0.8,6.45 c -0.07,0.49 -0.14,0.91 -0.56,0.91 -0.34,0 -0.48,-0.31 -0.56,-0.87 l -0.77,-6.49 -6.4,1.27 c -0.43,0.06 -0.49,0.06 -0.52,0.06 -0.17,0 -0.5,-0.14 -0.5,-0.45 0,-0.14 0.08,-0.24 0.19,-0.38 0.14,-0.11 5.64,-2.65 6.4,-3 l -3.17,-5.78 c -0.25,-0.42 -0.25,-0.5 -0.25,-0.56 0,-0.25 0.22,-0.49 0.45,-0.49 0.32,0 1.05,0.83 2.41,2.36 0.88,0.99 1.81,1.92 2.72,2.86 1.7,-1.73 4.19,-4.48 4.61,-4.87 0.26,-0.28 0.31,-0.35 0.51,-0.35 0.25,0 0.46,0.24 0.46,0.49 0,0.14 -0.42,0.9 -0.66,1.36 l -2.76,4.95 z"
           inkscape:connector-curvature="0"
           style="fill:#000000;stroke-width:0" /><path
           id="path10284"
           d="m 632.22,389.27 v 0.02 0.02 0.01 l -0.01,0.02 v 0.02 0.01 0.02 l -0.01,0.01 v 0.02 l -0.01,0.01 v 0.02 l -0.01,0.01 v 0.01 l -0.01,0.02 v 0.01 l -0.01,0.01 -0.02,0.03 -0.01,0.02 -0.02,0.03 -0.02,0.02 -0.01,0.03 -0.02,0.03 -0.02,0.02 -0.01,0.02 -0.01,0.01 c -2.3,2.44 -5.68,6.49 -7.77,14.6 -1.16,4.53 -1.59,9.67 -1.59,14.29 0,13.11 3.14,22.28 9.11,28.75 0.45,0.46 0.45,0.55 0.45,0.66 0,0.5 -0.41,0.5 -0.6,0.5 -0.74,0 -3.43,-3 -4.09,-3.75 -5.08,-6.02 -8.31,-14.98 -8.31,-26.09 0,-7.08 1.23,-17.1 7.76,-25.52 0.5,-0.59 3.74,-4.39 4.64,-4.39 0.19,0 0.6,0 0.6,0.5 z"
           inkscape:connector-curvature="0"
           style="fill:#000000;stroke-width:0" /><path
           id="path10286"
           d="m 666.3,437.54 -0.05,0.19 -0.06,0.19 -0.06,0.19 -0.07,0.19 -0.07,0.19 -0.08,0.18 -0.09,0.18 -0.1,0.19 -0.1,0.17 -0.12,0.18 -0.11,0.17 -0.13,0.17 -0.13,0.16 -0.15,0.16 -0.15,0.16 -0.15,0.14 -0.17,0.15 -0.17,0.13 -0.19,0.13 -0.19,0.12 -0.2,0.12 -0.21,0.11 -0.21,0.09 -0.23,0.09 -0.23,0.08 -0.25,0.08 -0.25,0.06 -0.26,0.05 -0.28,0.04 -0.28,0.03 -0.29,0.02 h -0.3 l 0.12,-0.98 c 3.39,0 4.5,-2.64 4.5,-4.74 0,-2.32 -2.26,-9.75 -8.11,-9.75 v 0 c -3.93,0 -4.39,2.96 -4.39,4.03 0,1.36 0.94,4.79 1.29,5.66 0.62,1.59 2.79,4.8 6.71,4.8 l -0.12,0.98 c -4.89,0 -8.92,-3.65 -10.19,-6.79 -0.2,-0.6 -0.69,-2.02 -0.69,-3.43 0,-2.39 1.88,-6.37 7.32,-6.37 9.03,0 12.68,11.26 12.68,16.2 0,5.97 -3.9,9.38 -8.57,9.38 -5.68,0 -7.25,-4.53 -7.25,-5.61 0,-0.28 0.18,-1.25 1.4,-1.25 1.22,0 1.94,1.08 1.94,1.92 0,0.94 -0.69,1.25 -1.34,1.31 1.73,2.63 4.59,2.63 5.18,2.63 2.61,0 5.72,-1.64 5.72,-6.6 0,-1.5 -0.19,-2.72 -0.84,-5.5 z"
           inkscape:connector-curvature="0"
           style="fill:#000000;stroke-width:0" /><polyline
           id="polyline10288"
           points="641,418 679.52,418 679.52,420.04 641,420.04 "
           style="fill:#000000;fill-rule:nonzero;stroke-width:0" /><path
           id="path10290"
           d="m 658.85,400.82 -0.04,0.19 -0.06,0.19 -0.06,0.19 -0.07,0.19 -0.07,0.18 -0.09,0.19 -0.09,0.18 -0.09,0.18 -0.11,0.18 -0.11,0.18 -0.12,0.17 -0.12,0.17 -0.14,0.16 -0.14,0.16 -0.15,0.15 -0.16,0.15 -0.16,0.14 -0.18,0.14 -0.18,0.13 -0.19,0.12 -0.2,0.12 -0.21,0.1 -0.21,0.1 -0.23,0.09 -0.24,0.08 -0.24,0.07 -0.25,0.06 -0.27,0.06 -0.27,0.04 -0.28,0.03 -0.29,0.01 -0.3,0.01 0.12,-0.98 c 3.39,0 4.5,-2.65 4.5,-4.74 0,-2.33 -2.26,-9.75 -8.11,-9.75 v 0 c -3.94,0 -4.39,2.95 -4.39,4.03 0,1.36 0.94,4.78 1.28,5.66 0.63,1.59 2.8,4.8 6.72,4.8 l -0.12,0.98 c -4.89,0 -8.93,-3.66 -10.19,-6.8 -0.2,-0.59 -0.69,-2.01 -0.69,-3.42 0,-2.39 1.88,-6.37 7.32,-6.37 9.03,0 12.68,11.26 12.68,16.2 0,5.97 -3.9,9.37 -8.58,9.37 -5.67,0 -7.25,-4.53 -7.25,-5.61 0,-0.28 0.19,-1.25 1.41,-1.25 1.22,0 1.94,1.08 1.94,1.93 0,0.93 -0.69,1.25 -1.35,1.31 1.74,2.62 4.6,2.62 5.19,2.62 2.61,0 5.72,-1.64 5.72,-6.59 0,-1.5 -0.19,-2.72 -0.84,-5.5 z"
           inkscape:connector-curvature="0"
           style="fill:#000000;stroke-width:0" /><path
           id="path10292"
           d="m 672.53,402.8 h 3.55 c 0.66,0 1.11,0 1.11,0.77 0,0.48 -0.45,0.48 -1.03,0.48 h -3.31 l 1.28,5.16 c 0.03,0.17 0.11,0.34 0.11,0.49 0,0.64 -0.49,1.12 -1.19,1.12 -0.87,0 -1.39,-0.59 -1.64,-1.5 -0.23,-0.87 0.22,0.8 -1.33,-5.27 h -3.55 c -0.65,0 -1.1,0 -1.1,-0.76 0,-0.49 0.4,-0.49 1.04,-0.49 h 3.3 l -2.05,-8.21 c -0.22,-0.88 -0.53,-2.13 -0.53,-2.58 0,-2.06 1.75,-3.31 3.74,-3.31 3.87,0 6.06,4.87 6.06,5.32 0,0.46 -0.46,0.46 -0.56,0.46 -0.41,0 -0.46,-0.08 -0.72,-0.66 -0.99,-2.2 -2.77,-4.16 -4.68,-4.16 -0.73,0 -1.21,0.46 -1.21,1.71 0,0.36 0.14,1.09 0.2,1.43 z"
           inkscape:connector-curvature="0"
           style="fill:#000000;stroke-width:0" /><path
           id="path10294"
           d="m 700.16,418.61 -0.01,1.36 -0.05,1.43 -0.09,1.47 -0.14,1.53 -0.2,1.57 -0.25,1.61 -0.31,1.63 -0.39,1.66 -0.22,0.83 -0.24,0.84 -0.26,0.84 -0.28,0.84 -0.31,0.84 -0.33,0.84 -0.35,0.85 -0.38,0.83 -0.4,0.84 -0.42,0.83 -0.46,0.83 -0.48,0.82 -0.51,0.82 -0.53,0.81 -0.57,0.8 -0.6,0.8 c -0.5,0.59 -3.73,4.39 -4.62,4.39 -0.25,0 -0.61,-0.11 -0.61,-0.5 0,-0.2 0.11,-0.36 0.3,-0.5 2.39,-2.59 5.64,-6.63 7.67,-14.55 1.15,-4.53 1.61,-9.67 1.61,-14.29 0,-5.04 -0.46,-10.13 -1.75,-15 -1.89,-6.99 -4.83,-10.97 -7.38,-13.75 -0.45,-0.46 -0.45,-0.55 -0.45,-0.66 0,-0.39 0.36,-0.5 0.61,-0.5 0.73,0 3.48,3.05 4.08,3.75 5.07,6.02 8.32,14.98 8.32,26.09 z"
           inkscape:connector-curvature="0"
           style="fill:#000000;stroke-width:0" /></g>    </g>
    <g
       id="g10435"
       transform="matrix(0.80215576,0,0,0.80215576,-84.71133,113.92333)">
      <g
         word-spacing="normal"
         letter-spacing="normal"
         font-size-adjust="none"
         font-stretch="normal"
         font-weight="normal"
         font-variant="normal"
         font-style="normal"
         stroke-miterlimit="10.433"
         xml:space="preserve"
         transform="matrix(0.40821429,0,0,-0.40821429,-71.4375,254)"
         id="content"
         style="font-style:normal;font-variant:normal;font-weight:normal;font-stretch:normal;letter-spacing:normal;word-spacing:normal;text-anchor:start;fill:none;fill-opacity:1;fill-rule:evenodd;stroke:#000000;stroke-linecap:butt;stroke-linejoin:miter;stroke-miterlimit:10.43299961;stroke-dasharray:none;stroke-dashoffset:0;stroke-opacity:1"><path
           id="path10420"
           d="m 463.99,397.73 -0.01,-0.03 -0.01,-0.03 -0.01,-0.03 -0.01,-0.03 -0.01,-0.02 -0.01,-0.03 -0.01,-0.05 -0.02,-0.05 -0.01,-0.04 -0.01,-0.05 -0.02,-0.04 -0.01,-0.04 -0.01,-0.03 -0.01,-0.04 -0.01,-0.03 -0.01,-0.03 -0.01,-0.03 -0.01,-0.03 v -0.02 l -0.01,-0.03 -0.01,-0.02 v -0.02 l -0.01,-0.03 v -0.02 -0.02 l -0.01,-0.04 -0.01,-0.04 v -0.04 -0.04 -0.03 -0.02 c 0,-1.09 0.95,-1.39 1.45,-1.39 0.25,0 1.35,0.14 1.85,1.3 0.14,0.39 0.39,2.04 1.73,9.11 0.45,-0.05 0.8,-0.1 1.64,-0.1 8.28,0 15.95,7.83 15.95,15.69 l -1.4,-1.09 c 0,-5.63 -6.42,-11.71 -14.1,-11.71 v 0 c -0.39,0 -0.5,0 -0.89,0.05 -0.61,0 -0.65,0.05 -0.65,0.2 0,0.1 0.84,4.63 1,5.38 1.54,6.37 5.43,11.15 9.86,11.15 3.43,0 4.78,-2.68 4.78,-5.07 l 1.4,1.09 c 0,3.89 -1.95,6.87 -5.68,6.87 -7.22,0 -10.21,-9.65 -13.21,-19.37 -5.37,1 -8.17,3.78 -8.17,7.37 0,1.4 1.16,6.88 4.14,10.32 0.39,0.45 0.39,0.54 0.39,0.64 0,0.2 -0.09,0.5 -0.59,0.5 -1.39,0 -5.24,-7.22 -5.24,-12 0,-4.69 3.3,-8.33 8.63,-9.56 z"
           inkscape:connector-curvature="0"
           style="fill:#000000;stroke-width:0" /><path
           id="path10422"
           d="m 504.64,394.25 v 0.02 0.03 0.01 0.02 l -0.01,0.01 v 0.02 l -0.01,0.01 v 0.02 l -0.01,0.02 -0.01,0.02 -0.02,0.02 -0.01,0.03 -0.02,0.02 -0.01,0.03 -0.03,0.03 -0.02,0.03 -0.03,0.03 -0.03,0.04 -0.01,0.02 -0.02,0.02 -0.01,0.02 -0.02,0.02 -0.02,0.02 -0.02,0.03 -0.02,0.02 -0.03,0.02 -0.02,0.03 -0.02,0.02 -0.03,0.03 -0.02,0.03 -0.03,0.03 -0.03,0.03 -0.02,0.03 -0.03,0.03 -0.04,0.03 -0.03,0.03 -0.03,0.04 -0.03,0.03 -0.04,0.04 -0.04,0.03 -0.03,0.04 -0.04,0.04 c -6.22,6.28 -7.82,15.69 -7.82,23.31 0,8.67 1.9,17.35 8.02,23.56 0.64,0.61 0.64,0.71 0.64,0.86 0,0.35 -0.19,0.49 -0.48,0.49 -0.5,0 -4.99,-3.38 -7.93,-9.7 -2.54,-5.49 -3.14,-11.02 -3.14,-15.21 0,-3.89 0.55,-9.9 3.29,-15.54 2.98,-6.13 7.28,-9.36 7.78,-9.36 0.29,0 0.48,0.14 0.48,0.5 z"
           inkscape:connector-curvature="0"
           style="fill:#000000;stroke-width:0" /><path
           id="path10424"
           d="m 530.4,422.14 -0.01,0.74 -0.01,0.75 -0.02,0.75 -0.03,0.74 -0.05,0.75 -0.06,0.74 -0.07,0.74 -0.1,0.73 -0.11,0.73 -0.14,0.73 -0.17,0.72 -0.18,0.72 -0.22,0.72 -0.25,0.7 -0.27,0.7 -0.16,0.35 -0.15,0.34 c -2.29,4.8 -6.38,5.6 -8.47,5.6 -2.99,0 -6.63,-1.3 -8.68,-5.94 -1.59,-3.44 -1.84,-7.33 -1.84,-11.31 0,-3.74 0.2,-8.22 2.25,-12 2.14,-4.03 5.78,-5.03 8.22,-5.03 v 1.09 c -1.94,0 -4.89,1.25 -5.78,6.03 -0.55,2.98 -0.55,7.56 -0.55,10.52 0,3.18 0,6.46 0.41,9.15 0.94,5.94 4.67,6.38 5.92,6.38 1.64,0 4.94,-0.89 5.87,-5.83 0.5,-2.78 0.5,-6.58 0.5,-9.7 0,-3.75 0,-7.13 -0.54,-10.32 -0.75,-4.73 -3.6,-6.23 -5.83,-6.23 v 0 -1.09 c 2.69,0 6.47,1.04 8.67,5.78 1.6,3.43 1.85,7.31 1.85,11.25 z"
           inkscape:connector-curvature="0"
           style="fill:#000000;stroke-width:0" /><path
           id="path10426"
           d="m 546.82,418.65 v 0.37 l -0.01,0.39 -0.01,0.39 -0.01,0.41 -0.04,0.84 -0.06,0.88 -0.08,0.92 -0.11,0.95 -0.13,0.97 -0.17,1.01 -0.19,1.02 -0.23,1.03 -0.27,1.05 -0.3,1.06 -0.35,1.07 -0.4,1.07 -0.21,0.53 -0.22,0.53 -0.24,0.53 -0.25,0.53 c -2.99,6.12 -7.27,9.36 -7.77,9.36 -0.29,0 -0.5,-0.19 -0.5,-0.49 0,-0.15 0,-0.25 0.94,-1.15 4.89,-4.92 7.74,-12.85 7.74,-23.27 0,-8.51 -1.85,-17.28 -8.04,-23.56 -0.64,-0.59 -0.64,-0.7 -0.64,-0.84 0,-0.3 0.21,-0.5 0.5,-0.5 0.5,0 4.97,3.39 7.93,9.71 2.53,5.47 3.12,11 3.12,15.19 z"
           inkscape:connector-curvature="0"
           style="fill:#000000;stroke-width:0" /><path
           id="path10428"
           d="m 599.9,422.5 h 0.14 0.15 0.14 l 0.07,0.01 h 0.08 l 0.07,0.01 0.07,0.01 0.07,0.01 0.07,0.01 0.07,0.01 0.06,0.02 0.07,0.02 0.06,0.02 0.06,0.02 0.06,0.03 0.06,0.03 0.05,0.04 0.05,0.03 0.05,0.05 0.04,0.04 0.04,0.05 0.02,0.03 0.02,0.03 0.01,0.02 0.02,0.03 0.01,0.03 0.01,0.04 0.02,0.03 0.01,0.04 0.01,0.03 0.01,0.04 v 0.04 l 0.01,0.04 v 0.04 l 0.01,0.04 v 0.04 0.05 c 0,1 -0.95,1 -1.64,1 H 570.1 c -0.7,0 -1.63,0 -1.63,-1 0,-0.98 0.93,-0.98 1.68,-0.98 z"
           inkscape:connector-curvature="0"
           style="fill:#000000;stroke-width:0" /><path
           id="path10430"
           d="m 599.95,412.82 h 0.06 0.07 l 0.14,0.01 h 0.14 0.07 l 0.07,0.01 0.07,0.01 h 0.06 l 0.07,0.01 0.07,0.02 0.07,0.01 0.06,0.02 0.07,0.02 0.06,0.02 0.06,0.02 0.05,0.03 0.06,0.03 0.05,0.04 0.05,0.04 0.05,0.04 0.04,0.05 0.02,0.02 0.02,0.03 0.02,0.02 0.02,0.03 0.01,0.03 0.02,0.03 0.01,0.03 0.01,0.03 0.02,0.04 0.01,0.03 0.01,0.04 0.01,0.04 v 0.04 l 0.01,0.04 v 0.04 l 0.01,0.04 v 0.05 0.04 c 0,1 -0.95,1 -1.69,1 h -29.75 c -0.75,0 -1.68,0 -1.68,-1 0,-1 0.93,-1 1.63,-1 z"
           inkscape:connector-curvature="0"
           style="fill:#000000;stroke-width:0" /><path
           id="path10432"
           d="m 627.15,411.93 -0.19,-0.3 -0.19,-0.29 -0.19,-0.28 -0.18,-0.26 -0.19,-0.25 -0.19,-0.23 -0.18,-0.22 -0.19,-0.21 -0.18,-0.2 -0.19,-0.18 -0.19,-0.17 -0.19,-0.16 -0.18,-0.15 -0.19,-0.14 -0.19,-0.13 -0.19,-0.12 -0.19,-0.11 -0.19,-0.1 -0.19,-0.09 -0.19,-0.09 -0.19,-0.07 -0.19,-0.07 -0.2,-0.07 -0.19,-0.05 -0.2,-0.05 -0.19,-0.04 -0.2,-0.04 -0.2,-0.03 -0.4,-0.05 -0.41,-0.03 c -0.61,-0.05 -1.05,-0.05 -1.05,-1 0,-0.3 0.25,-0.55 0.64,-0.55 1.35,0 2.89,0.16 4.29,0.16 1.63,0 3.38,-0.16 4.98,-0.16 0.3,0 0.95,0 0.95,0.95 0,0.55 -0.45,0.6 -0.8,0.6 -1.15,0.09 -2.34,0.5 -2.34,1.73 0,0.61 0.3,1.16 0.69,1.84 l 3.8,6.39 h 12.5 l -0.15,1.54 h -11.42 l 9.83,16.45 1.59,-16.45 0.15,-1.54 c 0.1,-1.04 0.79,-7.82 0.79,-8.32 0,-1.5 -2.59,-1.64 -3.57,-1.64 -0.71,0 -1.21,0 -1.21,-1 0,-0.55 0.59,-0.55 0.71,-0.55 2.03,0 4.18,0.16 6.21,0.16 1.25,0 4.39,-0.16 5.64,-0.16 0.3,0 0.9,0 0.9,1 0,0.55 -0.5,0.55 -1.15,0.55 -3.09,0 -3.09,0.34 -3.25,1.79 l -3.03,31.13 c -0.11,1 -0.11,1.2 -0.95,1.2 -0.8,0 -0.99,-0.34 -1.3,-0.84 z"
           inkscape:connector-curvature="0"
           style="fill:#000000;stroke-width:0" /></g>    </g>
    <g
       id="g10580"
       transform="matrix(0.69046434,0,0,0.69046434,-63.28266,-25.719857)">
      <g
         word-spacing="normal"
         letter-spacing="normal"
         font-size-adjust="none"
         font-stretch="normal"
         font-weight="normal"
         font-variant="normal"
         font-style="normal"
         stroke-miterlimit="10.433"
         xml:space="preserve"
         transform="matrix(0.40821429,0,0,-0.40821429,-71.4375,254)"
         id="g10578"
         style="font-style:normal;font-variant:normal;font-weight:normal;font-stretch:normal;letter-spacing:normal;word-spacing:normal;text-anchor:start;fill:none;fill-opacity:1;fill-rule:evenodd;stroke:#000000;stroke-linecap:butt;stroke-linejoin:miter;stroke-miterlimit:10.43299961;stroke-dasharray:none;stroke-dashoffset:0;stroke-opacity:1"><path
           id="path10562"
           d="m 463.99,397.73 -0.01,-0.03 -0.01,-0.03 -0.01,-0.03 -0.01,-0.03 -0.01,-0.02 -0.01,-0.03 -0.01,-0.05 -0.02,-0.05 -0.01,-0.04 -0.01,-0.05 -0.02,-0.04 -0.01,-0.04 -0.01,-0.03 -0.01,-0.04 -0.01,-0.03 -0.01,-0.03 -0.01,-0.03 -0.01,-0.03 v -0.02 l -0.01,-0.03 -0.01,-0.02 v -0.02 l -0.01,-0.03 v -0.02 -0.02 l -0.01,-0.04 -0.01,-0.04 v -0.04 -0.04 -0.03 -0.02 c 0,-1.09 0.95,-1.39 1.45,-1.39 0.25,0 1.35,0.14 1.85,1.3 0.14,0.39 0.39,2.04 1.73,9.11 0.45,-0.05 0.8,-0.1 1.64,-0.1 8.28,0 15.95,7.83 15.95,15.69 l -1.4,-1.09 c 0,-5.63 -6.42,-11.71 -14.1,-11.71 v 0 c -0.39,0 -0.5,0 -0.89,0.05 -0.61,0 -0.65,0.05 -0.65,0.2 0,0.1 0.84,4.63 1,5.38 1.54,6.37 5.43,11.15 9.86,11.15 3.43,0 4.78,-2.68 4.78,-5.07 l 1.4,1.09 c 0,3.89 -1.95,6.87 -5.68,6.87 -7.22,0 -10.21,-9.65 -13.21,-19.37 -5.37,1 -8.17,3.78 -8.17,7.37 0,1.4 1.16,6.88 4.14,10.32 0.39,0.45 0.39,0.54 0.39,0.64 0,0.2 -0.09,0.5 -0.59,0.5 -1.39,0 -5.24,-7.22 -5.24,-12 0,-4.69 3.3,-8.33 8.63,-9.56 z"
           inkscape:connector-curvature="0"
           style="fill:#000000;stroke-width:0" /><path
           id="path10564"
           d="m 504.64,394.25 v 0.02 0.03 0.01 0.02 l -0.01,0.01 v 0.02 l -0.01,0.01 v 0.02 l -0.01,0.02 -0.01,0.02 -0.02,0.02 -0.01,0.03 -0.02,0.02 -0.01,0.03 -0.03,0.03 -0.02,0.03 -0.03,0.03 -0.03,0.04 -0.01,0.02 -0.02,0.02 -0.01,0.02 -0.02,0.02 -0.02,0.02 -0.02,0.03 -0.02,0.02 -0.03,0.02 -0.02,0.03 -0.02,0.02 -0.03,0.03 -0.02,0.03 -0.03,0.03 -0.03,0.03 -0.02,0.03 -0.03,0.03 -0.04,0.03 -0.03,0.03 -0.03,0.04 -0.03,0.03 -0.04,0.04 -0.04,0.03 -0.03,0.04 -0.04,0.04 c -6.22,6.28 -7.82,15.69 -7.82,23.31 0,8.67 1.9,17.35 8.02,23.56 0.64,0.61 0.64,0.71 0.64,0.86 0,0.35 -0.19,0.49 -0.48,0.49 -0.5,0 -4.99,-3.38 -7.93,-9.7 -2.54,-5.49 -3.14,-11.02 -3.14,-15.21 0,-3.89 0.55,-9.9 3.29,-15.54 2.98,-6.13 7.28,-9.36 7.78,-9.36 0.29,0 0.48,0.14 0.48,0.5 z"
           inkscape:connector-curvature="0"
           style="fill:#000000;stroke-width:0" /><path
           id="path10566"
           d="m 522.11,414.42 v -4.33 c 0,-1.8 -0.09,-2.34 -3.78,-2.34 h -1.05 v -1.55 c 2.05,0.16 4.65,0.16 6.74,0.16 2.09,0 4.73,0 6.76,-0.16 v 1.55 h -1.04 c -3.69,0 -3.78,0.54 -3.78,2.34 v 4.33 h 4.98 v 1.54 h -4.98 v 22.68 c 0,1 0,1.29 -0.8,1.29 -0.45,0 -0.59,0 -1,-0.61 l -15.3,-23.36 h 1.41 l 12.16,18.58 v -18.58 h -12.16 -1.41 v -1.54 z"
           inkscape:connector-curvature="0"
           style="fill:#000000;stroke-width:0" /><path
           id="path10568"
           d="m 545.63,424.78 h 5.63 c -1.64,-7.38 -2.1,-9.52 -2.1,-12.85 0,-0.75 0,-2.09 0.41,-3.79 0.5,-2.19 1.05,-2.49 1.8,-2.49 0.98,0 2.03,0.89 2.03,1.89 0,0.3 0,0.41 -0.3,1.1 -1.44,3.59 -1.44,6.82 -1.44,8.22 0,2.64 0.35,5.34 0.89,7.92 h 5.69 c 0.64,0 2.44,0 2.44,1.7 0,1.19 -1.05,1.19 -2,1.19 h -16.69 c -1.09,0 -2.98,0 -5.17,-2.35 -1.75,-1.93 -3.05,-4.23 -3.05,-4.48 0,-0.05 0,-0.48 0.6,-0.48 0.4,0 0.5,0.18 0.79,0.59 2.46,3.83 5.35,3.83 6.33,3.83 h 2.85 c -1.6,-6.02 -4.29,-12.05 -6.38,-16.58 -0.41,-0.75 -0.41,-0.86 -0.41,-1.2 0,-0.96 0.8,-1.35 1.46,-1.35 1.5,0 1.89,1.39 2.48,3.24 0.71,2.29 0.71,2.39 1.35,4.89 z"
           inkscape:connector-curvature="0"
           style="fill:#000000;stroke-width:0" /><path
           id="path10570"
           d="m 577.06,418.65 v 0.37 l -0.01,0.39 -0.01,0.39 -0.01,0.41 -0.04,0.84 -0.06,0.88 -0.08,0.92 -0.11,0.95 -0.13,0.97 -0.17,1.01 -0.19,1.02 -0.23,1.03 -0.27,1.05 -0.31,1.06 -0.34,1.07 -0.4,1.07 -0.21,0.53 -0.23,0.53 -0.23,0.53 -0.25,0.53 c -2.99,6.12 -7.27,9.36 -7.77,9.36 -0.29,0 -0.5,-0.19 -0.5,-0.49 0,-0.15 0,-0.25 0.94,-1.15 4.89,-4.92 7.73,-12.85 7.73,-23.27 0,-8.51 -1.84,-17.28 -8.03,-23.56 -0.64,-0.59 -0.64,-0.7 -0.64,-0.84 0,-0.3 0.21,-0.5 0.5,-0.5 0.5,0 4.97,3.39 7.92,9.71 2.54,5.47 3.13,11 3.13,15.19 z"
           inkscape:connector-curvature="0"
           style="fill:#000000;stroke-width:0" /><path
           id="path10572"
           d="m 630.02,422.5 h 0.14 0.14 0.15 l 0.07,0.01 h 0.07 l 0.08,0.01 0.07,0.01 0.07,0.01 0.07,0.01 0.06,0.01 0.07,0.02 0.07,0.02 0.06,0.02 0.06,0.02 0.06,0.03 0.05,0.03 0.06,0.04 0.05,0.03 0.04,0.05 0.05,0.04 0.04,0.05 0.02,0.03 0.01,0.03 0.02,0.02 0.01,0.03 0.02,0.03 0.01,0.04 0.01,0.03 0.01,0.04 0.01,0.03 0.01,0.04 0.01,0.04 0.01,0.04 v 0.04 0.04 l 0.01,0.04 v 0.05 c 0,1 -0.96,1 -1.64,1 h -29.85 c -0.7,0 -1.64,0 -1.64,-1 0,-0.98 0.94,-0.98 1.69,-0.98 z"
           inkscape:connector-curvature="0"
           style="fill:#000000;stroke-width:0" /><path
           id="path10574"
           d="m 630.07,412.82 h 0.06 0.07 l 0.13,0.01 h 0.14 0.07 l 0.07,0.01 0.07,0.01 h 0.07 l 0.07,0.01 0.07,0.02 0.06,0.01 0.07,0.02 0.06,0.02 0.06,0.02 0.06,0.02 0.06,0.03 0.06,0.03 0.05,0.04 0.05,0.04 0.04,0.04 0.05,0.05 0.02,0.02 0.02,0.03 0.02,0.02 0.01,0.03 0.02,0.03 0.01,0.03 0.02,0.03 0.01,0.03 0.01,0.04 0.01,0.03 0.01,0.04 0.01,0.04 0.01,0.04 0.01,0.04 v 0.04 0.04 l 0.01,0.05 v 0.04 c 0,1 -0.96,1 -1.69,1 h -29.75 c -0.75,0 -1.69,0 -1.69,-1 0,-1 0.94,-1 1.64,-1 z"
           inkscape:connector-curvature="0"
           style="fill:#000000;stroke-width:0" /><path
           id="path10576"
           d="m 656.31,410.09 -0.04,-0.18 -0.05,-0.17 -0.04,-0.16 -0.04,-0.15 -0.05,-0.15 -0.04,-0.13 -0.05,-0.13 -0.05,-0.12 -0.06,-0.11 -0.06,-0.11 -0.06,-0.1 -0.07,-0.09 -0.08,-0.09 -0.09,-0.07 -0.09,-0.08 -0.1,-0.06 -0.12,-0.07 -0.12,-0.05 -0.14,-0.05 -0.15,-0.05 -0.16,-0.04 -0.08,-0.02 -0.09,-0.01 -0.1,-0.02 -0.09,-0.02 -0.1,-0.01 -0.11,-0.01 -0.11,-0.01 -0.11,-0.02 -0.12,-0.01 -0.12,-0.01 h -0.13 l -0.13,-0.01 -0.13,-0.01 h -0.14 l -0.15,-0.01 h -0.15 l -0.15,-0.01 h -0.16 -0.17 -0.17 -0.18 -0.18 c -0.84,0 -1.34,0 -1.34,-1 0,-0.55 0.45,-0.55 1.34,-0.55 h 17.78 c 7.88,0 13.75,5.87 13.75,10.76 0,3.58 -2.89,6.47 -7.72,7.02 5.19,0.95 10.43,4.64 10.43,9.38 0,3.68 -3.3,6.87 -9.29,6.87 l -0.68,-1.55 c 4.37,0 5.42,-2.93 5.42,-5.12 0,-4.39 -4.28,-9.13 -10.36,-9.13 h -7.27 l -0.29,-1.09 h 9.4 c 4.78,0 5.74,-3.69 5.74,-5.83 0,-4.94 -4.44,-9.76 -10.31,-9.76 h -6.79 c -0.68,0 -0.79,0 -1.09,0.04 -0.5,0.05 -0.64,0.1 -0.64,0.5 0,0.14 0,0.25 0.25,1.14 l 3.44,13.91 0.29,1.09 3.08,12.36 c 0.46,1.74 0.55,1.89 2.7,1.89 h 6.43 l 0.68,1.55 H 660 c -0.94,0 -1.44,0 -1.44,-1 0,-0.55 0.44,-0.55 1.39,-0.55 0.1,0 1.05,0 1.89,-0.09 0.89,-0.11 1.35,-0.16 1.35,-0.8 0,-0.2 -0.05,-0.36 -0.21,-0.95 z"
           inkscape:connector-curvature="0"
           style="fill:#000000;stroke-width:0" /></g>    </g>
    <path
       style="opacity:1;vector-effect:none;fill:none;fill-opacity:1;stroke:#0a18eb;stroke-width:1.7;stroke-linecap:butt;stroke-linejoin:miter;stroke-miterlimit:4;stroke-dasharray:none;stroke-dashoffset:0;stroke-opacity:1;marker-end:url(#marker8469)"
       d="m 116.41667,265.25001 c 21.16693,0 42.33359,0 63.49999,0"
       id="path10751"
       inkscape:connector-curvature="0"
       inkscape:path-effect="#path-effect10753"
       inkscape:original-d="m 116.41667,265.25001 c 21.16693,-2.7e-4 42.33359,-2.7e-4 63.49999,0" />
    <g
       id="g10902"
       transform="translate(66.582469,164.05611)">
      <g
         word-spacing="normal"
         letter-spacing="normal"
         font-size-adjust="none"
         font-stretch="normal"
         font-weight="normal"
         font-variant="normal"
         font-style="normal"
         stroke-miterlimit="10.433"
         xml:space="preserve"
         transform="matrix(0.40821429,0,0,-0.40821429,-71.4375,254)"
         id="g10900"
         style="font-style:normal;font-variant:normal;font-weight:normal;font-stretch:normal;letter-spacing:normal;word-spacing:normal;text-anchor:start;fill:none;fill-opacity:1;fill-rule:evenodd;stroke:#000000;stroke-linecap:butt;stroke-linejoin:miter;stroke-miterlimit:10.43299961;stroke-dasharray:none;stroke-dashoffset:0;stroke-opacity:1"><path
           id="path10892"
           d="m 487.38,437.54 -0.05,0.19 -0.06,0.19 -0.06,0.19 -0.07,0.19 -0.07,0.19 -0.09,0.18 -0.09,0.18 -0.09,0.19 -0.11,0.17 -0.11,0.18 -0.12,0.17 -0.12,0.17 -0.14,0.16 -0.14,0.16 -0.15,0.16 -0.16,0.14 -0.16,0.15 -0.18,0.13 -0.18,0.13 -0.19,0.12 -0.2,0.12 -0.21,0.11 -0.21,0.09 -0.23,0.09 -0.24,0.08 -0.24,0.08 -0.25,0.06 -0.27,0.05 -0.27,0.04 -0.28,0.03 -0.29,0.02 h -0.3 l 0.12,-0.98 c 3.39,0 4.5,-2.64 4.5,-4.74 0,-2.32 -2.26,-9.75 -8.11,-9.75 v 0 c -3.94,0 -4.39,2.96 -4.39,4.03 0,1.36 0.94,4.79 1.28,5.66 0.63,1.59 2.8,4.8 6.72,4.8 l -0.12,0.98 c -4.89,0 -8.93,-3.65 -10.19,-6.79 -0.2,-0.6 -0.69,-2.02 -0.69,-3.43 0,-2.39 1.88,-6.37 7.31,-6.37 9.04,0 12.69,11.26 12.69,16.2 0,5.97 -3.9,9.38 -8.58,9.38 -5.67,0 -7.25,-4.53 -7.25,-5.61 0,-0.28 0.19,-1.25 1.41,-1.25 1.22,0 1.94,1.08 1.94,1.92 0,0.94 -0.69,1.25 -1.35,1.31 1.74,2.63 4.6,2.63 5.19,2.63 2.61,0 5.72,-1.64 5.72,-6.6 0,-1.5 -0.19,-2.72 -0.84,-5.5 z"
           inkscape:connector-curvature="0"
           style="fill:#000000;stroke-width:0" /><polyline
           id="polyline10894"
           points="462,418 500.52,418 500.52,420.04 462,420.04 "
           style="fill:#000000;fill-rule:nonzero;stroke-width:0" /><path
           id="path10896"
           d="m 479.82,400.82 -0.05,0.19 -0.06,0.19 -0.06,0.19 -0.07,0.19 -0.07,0.18 -0.09,0.19 -0.08,0.18 -0.1,0.18 -0.11,0.18 -0.11,0.18 -0.12,0.17 -0.12,0.17 -0.14,0.16 -0.14,0.16 -0.15,0.15 -0.15,0.15 -0.17,0.14 -0.17,0.14 -0.19,0.13 -0.19,0.12 -0.2,0.12 -0.21,0.1 -0.21,0.1 -0.23,0.09 -0.23,0.08 -0.25,0.07 -0.25,0.06 -0.27,0.06 -0.27,0.04 -0.28,0.03 -0.29,0.01 -0.3,0.01 0.12,-0.98 c 3.39,0 4.5,-2.65 4.5,-4.74 0,-2.33 -2.26,-9.75 -8.11,-9.75 v 0 c -3.93,0 -4.39,2.95 -4.39,4.03 0,1.36 0.94,4.78 1.28,5.66 0.63,1.59 2.8,4.8 6.72,4.8 l -0.12,0.98 c -4.89,0 -8.92,-3.66 -10.19,-6.8 -0.2,-0.59 -0.69,-2.01 -0.69,-3.42 0,-2.39 1.88,-6.37 7.32,-6.37 9.03,0 12.68,11.26 12.68,16.2 0,5.97 -3.9,9.37 -8.57,9.37 -5.68,0 -7.25,-4.53 -7.25,-5.61 0,-0.28 0.18,-1.25 1.4,-1.25 1.22,0 1.94,1.08 1.94,1.93 0,0.93 -0.69,1.25 -1.34,1.31 1.73,2.62 4.59,2.62 5.18,2.62 2.61,0 5.72,-1.64 5.72,-6.59 0,-1.5 -0.19,-2.72 -0.84,-5.5 z"
           inkscape:connector-curvature="0"
           style="fill:#000000;stroke-width:0" /><path
           id="path10898"
           d="m 493.5,402.8 h 3.54 c 0.66,0 1.11,0 1.11,0.77 0,0.48 -0.45,0.48 -1.03,0.48 h -3.31 l 1.28,5.16 c 0.03,0.17 0.11,0.34 0.11,0.49 0,0.64 -0.49,1.12 -1.19,1.12 -0.87,0 -1.39,-0.59 -1.64,-1.5 -0.23,-0.87 0.22,0.8 -1.33,-5.27 h -3.54 c -0.66,0 -1.11,0 -1.11,-0.76 0,-0.49 0.4,-0.49 1.04,-0.49 h 3.3 l -2.05,-8.21 c -0.22,-0.88 -0.53,-2.13 -0.53,-2.58 0,-2.06 1.75,-3.31 3.74,-3.31 3.87,0 6.06,4.87 6.06,5.32 0,0.46 -0.45,0.46 -0.56,0.46 -0.41,0 -0.46,-0.08 -0.72,-0.66 -0.99,-2.2 -2.77,-4.16 -4.67,-4.16 -0.74,0 -1.22,0.46 -1.22,1.71 0,0.36 0.14,1.09 0.2,1.43 z"
           inkscape:connector-curvature="0"
           style="fill:#000000;stroke-width:0" /></g>    </g>
  </g>
</svg>
