<?xml version="1.0" encoding="UTF-8" standalone="no"?>
<!-- Created with Inkscape (http://www.inkscape.org/) -->

<svg
   xmlns:dc="http://purl.org/dc/elements/1.1/"
   xmlns:cc="http://creativecommons.org/ns#"
   xmlns:rdf="http://www.w3.org/1999/02/22-rdf-syntax-ns#"
   xmlns:svg="http://www.w3.org/2000/svg"
   xmlns="http://www.w3.org/2000/svg"
   xmlns:sodipodi="http://sodipodi.sourceforge.net/DTD/sodipodi-0.dtd"
   xmlns:inkscape="http://www.inkscape.org/namespaces/inkscape"
   width="1280"
   height="1080"
   viewBox="0 0 338.66668 285.75"
   version="1.1"
   id="svg8"
   inkscape:version="0.92.4 5da689c313, 2019-01-14"
   sodipodi:docname="fig2-1.svg">
  <defs
     id="defs2">
    <marker
       inkscape:stockid="Arrow1Mend"
       orient="auto"
       refY="0.0"
       refX="0.0"
       id="Arrow1Mend"
       style="overflow:visible;"
       inkscape:isstock="true">
      <path
         id="path4698"
         d="M 0.0,0.0 L 5.0,-5.0 L -12.5,0.0 L 5.0,5.0 L 0.0,0.0 z "
         style="fill-rule:evenodd;stroke:#000000;stroke-width:1pt;stroke-opacity:1;fill:#000000;fill-opacity:1"
         transform="scale(0.4) rotate(180) translate(10,0)" />
    </marker>
    <inkscape:path-effect
       effect="bspline"
       id="path-effect14"
       is_visible="true"
       weight="33.333333"
       steps="2"
       helper_size="0"
       apply_no_weight="true"
       apply_with_weight="true"
       only_selected="false" />
    <marker
       inkscape:stockid="Arrow1Lstart"
       orient="auto"
       refY="0.0"
       refX="0.0"
       id="Arrow1Lstart"
       style="overflow:visible"
       inkscape:isstock="true">
      <path
         id="path1405"
         d="M 0.0,0.0 L 5.0,-5.0 L -12.5,0.0 L 5.0,5.0 L 0.0,0.0 z "
         style="fill-rule:evenodd;stroke:#000000;stroke-width:1pt;stroke-opacity:1;fill:#000000;fill-opacity:1"
         transform="scale(0.8) translate(12.5,0)" />
    </marker>
    <marker
       inkscape:stockid="Arrow1Lend"
       orient="auto"
       refY="0.0"
       refX="0.0"
       id="Arrow1Lend"
       style="overflow:visible;"
       inkscape:isstock="true">
      <path
         id="path1408"
         d="M 0.0,0.0 L 5.0,-5.0 L -12.5,0.0 L 5.0,5.0 L 0.0,0.0 z "
         style="fill-rule:evenodd;stroke:#000000;stroke-width:1pt;stroke-opacity:1;fill:#000000;fill-opacity:1"
         transform="scale(0.8) rotate(180) translate(12.5,0)" />
    </marker>
    <marker
       inkscape:stockid="Arrow1Mend"
       orient="auto"
       refY="0"
       refX="0"
       id="Arrow1Mend-3"
       style="overflow:visible"
       inkscape:isstock="true">
      <path
         inkscape:connector-curvature="0"
         id="path4698-6"
         d="M 0,0 5,-5 -12.5,0 5,5 Z"
         style="fill:#000000;fill-opacity:1;fill-rule:evenodd;stroke:#000000;stroke-width:1.00000003pt;stroke-opacity:1"
         transform="matrix(-0.4,0,0,-0.4,-4,0)" />
    </marker>
    <marker
       inkscape:stockid="Arrow1Mend"
       orient="auto"
       refY="0"
       refX="0"
       id="Arrow1Mend-5"
       style="overflow:visible"
       inkscape:isstock="true">
      <path
         inkscape:connector-curvature="0"
         id="path4698-3"
         d="M 0,0 5,-5 -12.5,0 5,5 Z"
         style="fill:#000000;fill-opacity:1;fill-rule:evenodd;stroke:#000000;stroke-width:1.00000003pt;stroke-opacity:1"
         transform="matrix(-0.4,0,0,-0.4,-4,0)" />
    </marker>
  </defs>
  <sodipodi:namedview
     id="base"
     pagecolor="#ffffff"
     bordercolor="#666666"
     borderopacity="1.0"
     inkscape:pageopacity="0.0"
     inkscape:pageshadow="2"
     inkscape:zoom="0.417193"
     inkscape:cx="908.12059"
     inkscape:cy="723.7695"
     inkscape:document-units="mm"
     inkscape:current-layer="layer1"
     showgrid="true"
     showguides="true"
     showborder="true"
     borderlayer="true"
     inkscape:showpageshadow="false"
     inkscape:pagecheckerboard="false"
     objecttolerance="10"
     inkscape:snap-path-clip="true"
     inkscape:snap-path-mask="true"
     gridtolerance="10"
     units="px">
    <inkscape:grid
       type="xygrid"
       id="grid10" />
  </sodipodi:namedview>
  <metadata
     id="metadata5">
    <rdf:RDF>
      <cc:Work
         rdf:about="">
        <dc:format>image/svg+xml</dc:format>
        <dc:type
           rdf:resource="http://purl.org/dc/dcmitype/StillImage" />
        <dc:title></dc:title>
      </cc:Work>
    </rdf:RDF>
  </metadata>
  <g
     inkscape:label="Layer 1"
     inkscape:groupmode="layer"
     id="layer1"
     transform="translate(0,-11.25001)">
    <path
       style="opacity:1;vector-effect:none;fill:none;fill-opacity:1;stroke:#000000;stroke-width:0.60000002;stroke-linecap:butt;stroke-linejoin:miter;stroke-miterlimit:4;stroke-dasharray:none;stroke-dashoffset:0;stroke-opacity:1;marker-end:url(#Arrow1Mend-5)"
       d="m 257.96875,158.09376 29.10416,-16.8033"
       id="path4687-5"
       inkscape:connector-curvature="0" />
    <path
       style="opacity:1;vector-effect:none;fill:none;fill-opacity:1;stroke:#000000;stroke-width:0.60000002;stroke-linecap:butt;stroke-linejoin:miter;stroke-miterlimit:4;stroke-dasharray:none;stroke-dashoffset:0;stroke-opacity:1;marker-end:url(#Arrow1Mend-3)"
       d="m 148.16667,163.38543 h 33.6066"
       id="path4687-7"
       inkscape:connector-curvature="0" />
    <path
       style="opacity:1;vector-effect:none;fill:none;fill-opacity:1;stroke:#000000;stroke-width:0.6;stroke-linecap:butt;stroke-linejoin:miter;stroke-miterlimit:4;stroke-dasharray:none;stroke-dashoffset:0;stroke-opacity:1;marker-end:url(#Arrow1Mend)"
       d="m 64.822916,168.67709 29.104166,-16.8033"
       id="path4687"
       inkscape:connector-curvature="0" />
    <path
       style="opacity:1;vector-effect:none;fill:none;fill-opacity:1;stroke:#00ffd5;stroke-width:0.89999992;stroke-linecap:butt;stroke-linejoin:miter;stroke-miterlimit:4;stroke-dasharray:none;stroke-dashoffset:0;stroke-opacity:1"
       d="m 31.75,212.33334 c 10.836758,-18.06126 21.166851,-35.27809 31.167107,-42.52782 10.000256,-7.24973 21.749719,-3.33324 30.569132,-6.86111 8.819411,-3.52788 15.875071,-14.11137 24.694251,-12.34755 8.81917,1.76381 19.40281,15.87533 35.27799,12.34741 15.87518,-3.52793 37.04178,-24.69453 54.68043,-24.69456 17.63865,-3e-5 31.74994,21.1669 44.09727,21.16675 12.34734,-1.6e-4 22.93065,-21.16677 33.51382,-26.45836 10.58317,-5.29159 21.16666,5.2919 31.75,15.87524"
       id="path12"
       inkscape:connector-curvature="0"
       inkscape:path-effect="#path-effect14"
       inkscape:original-d="m 31.75,212.33334 c 9.746498,-18.71542 21.166931,-35.27804 31.749999,-52.91667 9.327782,3.40787 21.166931,7.0553 31.75,10.58334 7.055711,-10.58344 14.111371,-21.16693 21.166671,-31.75 10.58329,14.11044 21.16693,28.22196 31.74999,42.33333 21.167,-21.16699 42.3336,-42.3336 63.5,-63.5 14.1112,21.16614 28.22249,42.33307 42.33334,63.5 10.58362,-21.16699 21.16693,-42.3336 31.75,-63.5 10.58344,10.58291 21.16693,21.1664 31.75,31.75" />
    <path
       style="opacity:1;vector-effect:none;fill:none;fill-opacity:1;stroke:#000000;stroke-width:1.27279234;stroke-linecap:butt;stroke-linejoin:miter;stroke-miterlimit:4;stroke-dasharray:none;stroke-dashoffset:0;stroke-opacity:1"
       d="m 116.41667,144.86459 v 11.90625"
       id="path836"
       inkscape:connector-curvature="0" />
    <path
       style="opacity:1;vector-effect:none;fill:none;fill-opacity:1;stroke:#000000;stroke-width:0.89999992;stroke-linecap:butt;stroke-linejoin:miter;stroke-miterlimit:4;stroke-dasharray:none;stroke-dashoffset:0;stroke-opacity:1"
       d="m 231.51041,142.21876 v 13.22916"
       id="path838"
       inkscape:connector-curvature="0" />
    <g
       id="g4560"
       transform="translate(-71.71811,70.930031)">
      <g
         word-spacing="normal"
         letter-spacing="normal"
         font-size-adjust="none"
         font-stretch="normal"
         font-weight="normal"
         font-variant="normal"
         font-style="normal"
         stroke-miterlimit="10.433"
         xml:space="preserve"
         transform="matrix(0.40821429,0,0,-0.40821429,-71.4375,254)"
         id="content"
         style="font-style:normal;font-variant:normal;font-weight:normal;font-stretch:normal;letter-spacing:normal;word-spacing:normal;text-anchor:start;fill:none;fill-opacity:1;fill-rule:evenodd;stroke:#000000;stroke-linecap:butt;stroke-linejoin:miter;stroke-miterlimit:10.43299961;stroke-dasharray:none;stroke-dashoffset:0;stroke-opacity:1"><path
           id="path4555"
           d="m 474.16,436.34 0.04,0.16 0.04,0.16 0.04,0.15 0.04,0.15 0.04,0.13 0.05,0.13 0.05,0.13 0.05,0.11 0.06,0.12 0.06,0.1 0.08,0.1 0.08,0.09 0.09,0.09 0.1,0.08 0.11,0.08 0.12,0.07 0.13,0.06 0.15,0.06 0.16,0.06 0.18,0.05 0.09,0.02 0.1,0.02 0.1,0.02 0.11,0.02 0.11,0.02 0.11,0.02 0.12,0.02 0.13,0.01 0.13,0.01 0.14,0.02 0.14,0.01 0.14,0.01 0.15,0.01 0.16,0.01 0.16,0.01 0.17,0.01 h 0.17 l 0.18,0.01 h 0.18 l 0.19,0.01 h 0.2 0.2 0.21 0.22 c 1.49,0 1.89,0 1.89,0.96 0,0.59 -0.54,0.59 -0.79,0.59 -1.66,0 -5.74,-0.16 -7.38,-0.16 -1.5,0 -5.14,0.16 -6.62,0.16 -0.36,0 -0.96,0 -0.96,-1 0,-0.55 0.46,-0.55 1.39,-0.55 0.11,0 1.05,0 1.91,-0.09 0.89,-0.11 1.34,-0.16 1.34,-0.8 0,-0.2 -0.06,-0.36 -0.2,-0.95 l -6.67,-26.75 c -0.5,-1.95 -0.61,-2.34 -4.55,-2.34 -0.84,0 -1.34,0 -1.34,-1 0,-0.55 0.45,-0.55 1.34,-0.55 h 23.08 c 1.19,0 1.23,0 1.55,0.84 l 3.92,10.77 c 0.2,0.55 0.2,0.64 0.2,0.7 0,0.19 -0.14,0.55 -0.59,0.55 -0.46,0 -0.5,-0.25 -0.85,-1.05 -1.7,-4.59 -3.89,-10.26 -12.51,-10.26 h -4.67 c -0.71,0 -0.8,0 -1.1,0.04 -0.5,0.05 -0.65,0.1 -0.65,0.5 0,0.14 0,0.25 0.25,1.14 z"
           inkscape:connector-curvature="0"
           style="fill:#000000;stroke-width:0" /><path
           id="path4557"
           d="m 501.15,420.92 v 0.04 0.04 0.05 0.04 0.03 0.04 0.04 0.03 0.04 l -0.01,0.03 v 0.03 0.03 0.03 l -0.01,0.03 v 0.03 0.02 l -0.01,0.03 v 0.02 l -0.01,0.03 v 0.02 l -0.01,0.04 -0.02,0.04 -0.02,0.03 -0.02,0.03 -0.02,0.03 -0.02,0.03 -0.03,0.02 -0.03,0.02 -0.03,0.02 -0.04,0.01 -0.04,0.01 -0.05,0.02 h -0.02 -0.02 l -0.03,0.01 h -0.03 l -0.02,0.01 h -0.03 -0.03 -0.03 -0.03 l -0.04,0.01 h -0.03 -0.04 -0.03 -0.04 -0.04 -0.04 -0.04 -0.05 -0.04 -0.04 c -2.24,-2.2 -5.4,-2.23 -6.83,-2.23 v -1.25 c 0.84,0 3.14,0 5.04,0.97 v -17.77 c 0,-1.16 0,-1.61 -3.48,-1.61 h -1.31 v -1.25 c 0.62,0.03 4.9,0.14 6.2,0.14 1.08,0 5.47,-0.11 6.23,-0.14 v 1.25 h -1.32 c -3.49,0 -3.49,0.45 -3.49,1.61 z"
           inkscape:connector-curvature="0"
           style="fill:#000000;stroke-width:0" /></g>    </g>
    <g
       id="g4603"
       transform="translate(39.917156,55.522212)">
      <g
         word-spacing="normal"
         letter-spacing="normal"
         font-size-adjust="none"
         font-stretch="normal"
         font-weight="normal"
         font-variant="normal"
         font-style="normal"
         stroke-miterlimit="10.433"
         xml:space="preserve"
         transform="matrix(0.40821429,0,0,-0.40821429,-71.4375,254)"
         id="g4601"
         style="font-style:normal;font-variant:normal;font-weight:normal;font-stretch:normal;letter-spacing:normal;word-spacing:normal;text-anchor:start;fill:none;fill-opacity:1;fill-rule:evenodd;stroke:#000000;stroke-linecap:butt;stroke-linejoin:miter;stroke-miterlimit:10.43299961;stroke-dasharray:none;stroke-dashoffset:0;stroke-opacity:1"><path
           id="path4597"
           d="m 474.16,436.34 0.04,0.16 0.04,0.16 0.04,0.15 0.04,0.15 0.04,0.13 0.05,0.13 0.05,0.13 0.05,0.11 0.06,0.12 0.06,0.1 0.08,0.1 0.08,0.09 0.09,0.09 0.1,0.08 0.11,0.08 0.12,0.07 0.13,0.06 0.15,0.06 0.16,0.06 0.18,0.05 0.09,0.02 0.1,0.02 0.1,0.02 0.11,0.02 0.11,0.02 0.11,0.02 0.12,0.02 0.13,0.01 0.13,0.01 0.14,0.02 0.14,0.01 0.14,0.01 0.15,0.01 0.16,0.01 0.16,0.01 0.17,0.01 h 0.17 l 0.18,0.01 h 0.18 l 0.19,0.01 h 0.2 0.2 0.21 0.22 c 1.49,0 1.89,0 1.89,0.96 0,0.59 -0.54,0.59 -0.79,0.59 -1.66,0 -5.74,-0.16 -7.38,-0.16 -1.5,0 -5.14,0.16 -6.62,0.16 -0.36,0 -0.96,0 -0.96,-1 0,-0.55 0.46,-0.55 1.39,-0.55 0.11,0 1.05,0 1.91,-0.09 0.89,-0.11 1.34,-0.16 1.34,-0.8 0,-0.2 -0.06,-0.36 -0.2,-0.95 l -6.67,-26.75 c -0.5,-1.95 -0.61,-2.34 -4.55,-2.34 -0.84,0 -1.34,0 -1.34,-1 0,-0.55 0.45,-0.55 1.34,-0.55 h 23.08 c 1.19,0 1.23,0 1.55,0.84 l 3.92,10.77 c 0.2,0.55 0.2,0.64 0.2,0.7 0,0.19 -0.14,0.55 -0.59,0.55 -0.46,0 -0.5,-0.25 -0.85,-1.05 -1.7,-4.59 -3.89,-10.26 -12.51,-10.26 h -4.67 c -0.71,0 -0.8,0 -1.1,0.04 -0.5,0.05 -0.65,0.1 -0.65,0.5 0,0.14 0,0.25 0.25,1.14 z"
           inkscape:connector-curvature="0"
           style="fill:#000000;stroke-width:0" /><path
           id="path4599"
           d="m 507.07,405.11 h -1.18 c -0.1,-0.77 -0.46,-2.83 -0.91,-3.18 -0.27,-0.2 -2.95,-0.2 -3.44,-0.2 h -6.42 c 3.66,3.23 4.88,4.2 6.97,5.84 2.58,2.07 4.98,4.22 4.98,7.54 0,4.21 -3.68,6.79 -8.15,6.79 -4.31,0 -7.25,-3.03 -7.25,-6.23 0,-1.78 1.5,-1.96 1.86,-1.96 0.83,0 1.84,0.6 1.84,1.85 0,0.62 -0.25,1.84 -2.06,1.84 1.08,2.47 3.45,3.24 5.09,3.24 3.49,0 5.3,-2.71 5.3,-5.53 0,-3.04 -2.16,-5.44 -3.28,-6.69 l -8.39,-8.3 c -0.36,-0.31 -0.36,-0.39 -0.36,-1.36 h 14.36 z"
           inkscape:connector-curvature="0"
           style="fill:#000000;stroke-width:0" /></g>    </g>
    <g
       id="g4638"
       transform="translate(141.85371,42.03224)">
      <g
         word-spacing="normal"
         letter-spacing="normal"
         font-size-adjust="none"
         font-stretch="normal"
         font-weight="normal"
         font-variant="normal"
         font-style="normal"
         stroke-miterlimit="10.433"
         xml:space="preserve"
         transform="matrix(0.40821429,0,0,-0.40821429,-71.4375,254)"
         id="g4636"
         style="font-style:normal;font-variant:normal;font-weight:normal;font-stretch:normal;letter-spacing:normal;word-spacing:normal;text-anchor:start;fill:none;fill-opacity:1;fill-rule:evenodd;stroke:#000000;stroke-linecap:butt;stroke-linejoin:miter;stroke-miterlimit:10.43299961;stroke-dasharray:none;stroke-dashoffset:0;stroke-opacity:1"><path
           id="path4632"
           d="m 474.16,436.34 0.04,0.16 0.04,0.16 0.04,0.15 0.04,0.15 0.04,0.13 0.05,0.13 0.05,0.13 0.05,0.11 0.06,0.12 0.06,0.1 0.08,0.1 0.08,0.09 0.09,0.09 0.1,0.08 0.11,0.08 0.12,0.07 0.13,0.06 0.15,0.06 0.16,0.06 0.18,0.05 0.09,0.02 0.1,0.02 0.1,0.02 0.11,0.02 0.11,0.02 0.11,0.02 0.12,0.02 0.13,0.01 0.13,0.01 0.14,0.02 0.14,0.01 0.14,0.01 0.15,0.01 0.16,0.01 0.16,0.01 0.17,0.01 h 0.17 l 0.18,0.01 h 0.18 l 0.19,0.01 h 0.2 0.2 0.21 0.22 c 1.49,0 1.89,0 1.89,0.96 0,0.59 -0.54,0.59 -0.79,0.59 -1.66,0 -5.74,-0.16 -7.38,-0.16 -1.5,0 -5.14,0.16 -6.62,0.16 -0.36,0 -0.96,0 -0.96,-1 0,-0.55 0.46,-0.55 1.39,-0.55 0.11,0 1.05,0 1.91,-0.09 0.89,-0.11 1.34,-0.16 1.34,-0.8 0,-0.2 -0.06,-0.36 -0.2,-0.95 l -6.67,-26.75 c -0.5,-1.95 -0.61,-2.34 -4.55,-2.34 -0.84,0 -1.34,0 -1.34,-1 0,-0.55 0.45,-0.55 1.34,-0.55 h 23.08 c 1.19,0 1.23,0 1.55,0.84 l 3.92,10.77 c 0.2,0.55 0.2,0.64 0.2,0.7 0,0.19 -0.14,0.55 -0.59,0.55 -0.46,0 -0.5,-0.25 -0.85,-1.05 -1.7,-4.59 -3.89,-10.26 -12.51,-10.26 h -4.67 c -0.71,0 -0.8,0 -1.1,0.04 -0.5,0.05 -0.65,0.1 -0.65,0.5 0,0.14 0,0.25 0.25,1.14 z"
           inkscape:connector-curvature="0"
           style="fill:#000000;stroke-width:0" /><path
           id="path4634"
           d="m 499,410.4 h 0.25 l 0.25,-0.02 0.24,-0.03 0.24,-0.04 0.23,-0.05 0.23,-0.06 0.22,-0.07 0.21,-0.08 0.21,-0.1 0.2,-0.1 0.2,-0.12 0.19,-0.12 0.18,-0.14 0.18,-0.15 0.16,-0.16 0.16,-0.17 0.15,-0.18 0.15,-0.19 0.13,-0.2 0.13,-0.22 0.11,-0.22 0.11,-0.24 0.1,-0.24 0.09,-0.26 0.08,-0.27 0.07,-0.28 0.06,-0.29 0.05,-0.3 0.04,-0.31 0.03,-0.32 0.01,-0.33 0.01,-0.35 c 0,-4.33 -2.52,-5.61 -4.53,-5.61 -1.39,0 -4.47,0.38 -5.93,2.44 1.63,0.06 2.02,1.22 2.02,1.95 0,1.11 -0.84,1.91 -1.92,1.91 -0.97,0 -1.95,-0.59 -1.95,-2.02 0,-3.28 3.62,-5.4 7.84,-5.4 4.84,0 8.19,3.25 8.19,6.73 0,2.72 -2.22,5.44 -6.07,6.24 3.66,1.33 4.99,3.93 4.99,6.06 0,2.75 -3.17,4.81 -7.03,4.81 -3.88,0 -6.83,-1.89 -6.83,-4.67 0,-1.19 0.76,-1.84 1.81,-1.84 1.08,0 1.77,0.79 1.77,1.76 0,1.02 -0.69,1.75 -1.77,1.81 1.22,1.55 3.61,1.93 4.91,1.93 1.56,0 3.76,-0.77 3.76,-3.8 0,-1.47 -0.48,-3.06 -1.39,-4.14 -1.15,-1.33 -2.12,-1.41 -3.87,-1.5 -0.88,-0.08 -0.94,-0.08 -1.11,-0.11 -0.08,0 -0.36,-0.06 -0.36,-0.45 0,-0.49 0.31,-0.49 0.91,-0.49 z"
           inkscape:connector-curvature="0"
           style="fill:#000000;stroke-width:0" /></g>    </g>
    <circle
       id="path6574"
       style="fill:#000000;stroke:none;stroke-width:0.50281936"
       cx="31.75"
       cy="212.33334"
       r="2.5655661" />
    <circle
       id="path6574-6"
       style="fill:#000000;stroke:none;stroke-width:0.50281936"
       cx="317.5"
       cy="148.83334"
       r="2.5655661" />
    <g
       id="g6630"
       transform="translate(-74.354115,138.01189)">
      <g
         word-spacing="normal"
         letter-spacing="normal"
         font-size-adjust="none"
         font-stretch="normal"
         font-weight="normal"
         font-variant="normal"
         font-style="normal"
         stroke-miterlimit="10.433"
         xml:space="preserve"
         transform="matrix(0.40821429,0,0,-0.40821429,-71.4375,254)"
         id="g6628"
         style="font-style:normal;font-variant:normal;font-weight:normal;font-stretch:normal;letter-spacing:normal;word-spacing:normal;text-anchor:start;fill:none;fill-opacity:1;fill-rule:evenodd;stroke:#000000;stroke-linecap:butt;stroke-linejoin:miter;stroke-miterlimit:10.43299961;stroke-dasharray:none;stroke-dashoffset:0;stroke-opacity:1"><path
           id="path6626"
           d="m 464.44,411.93 -0.19,-0.3 -0.18,-0.29 -0.19,-0.28 -0.19,-0.26 -0.18,-0.25 -0.19,-0.23 -0.19,-0.22 -0.18,-0.21 -0.19,-0.2 -0.19,-0.18 -0.18,-0.17 -0.19,-0.16 -0.19,-0.15 -0.18,-0.14 -0.19,-0.13 -0.19,-0.12 -0.19,-0.11 -0.19,-0.1 -0.19,-0.09 -0.19,-0.09 -0.19,-0.07 -0.2,-0.07 -0.19,-0.07 -0.2,-0.05 -0.19,-0.05 -0.2,-0.04 -0.2,-0.04 -0.19,-0.03 -0.41,-0.05 -0.4,-0.03 c -0.61,-0.05 -1.05,-0.05 -1.05,-1 0,-0.3 0.25,-0.55 0.64,-0.55 1.34,0 2.89,0.16 4.28,0.16 1.64,0 3.39,-0.16 4.99,-0.16 0.29,0 0.95,0 0.95,0.95 0,0.55 -0.45,0.6 -0.8,0.6 -1.15,0.09 -2.34,0.5 -2.34,1.73 0,0.61 0.3,1.16 0.69,1.84 l 3.79,6.39 h 12.5 l -0.14,1.54 h -11.42 l 9.83,16.45 1.59,-16.45 0.14,-1.54 c 0.11,-1.04 0.8,-7.82 0.8,-8.32 0,-1.5 -2.59,-1.64 -3.58,-1.64 -0.7,0 -1.2,0 -1.2,-1 0,-0.55 0.59,-0.55 0.7,-0.55 2.03,0 4.19,0.16 6.22,0.16 1.25,0 4.39,-0.16 5.64,-0.16 0.3,0 0.89,0 0.89,1 0,0.55 -0.5,0.55 -1.14,0.55 -3.09,0 -3.09,0.34 -3.25,1.79 l -3.03,31.13 c -0.11,1 -0.11,1.2 -0.95,1.2 -0.8,0 -0.99,-0.34 -1.3,-0.84 z"
           inkscape:connector-curvature="0"
           style="fill:#000000;stroke-width:0" /></g>    </g>
    <g
       id="g6680"
       transform="translate(197.15556,83.783036)">
      <g
         word-spacing="normal"
         letter-spacing="normal"
         font-size-adjust="none"
         font-stretch="normal"
         font-weight="normal"
         font-variant="normal"
         font-style="normal"
         stroke-miterlimit="10.433"
         xml:space="preserve"
         transform="matrix(0.40821429,0,0,-0.40821429,-71.4375,254)"
         id="g6678"
         style="font-style:normal;font-variant:normal;font-weight:normal;font-stretch:normal;letter-spacing:normal;word-spacing:normal;text-anchor:start;fill:none;fill-opacity:1;fill-rule:evenodd;stroke:#000000;stroke-linecap:butt;stroke-linejoin:miter;stroke-miterlimit:10.43299961;stroke-dasharray:none;stroke-dashoffset:0;stroke-opacity:1"><path
           id="path6676"
           d="m 463.49,410.09 -0.05,-0.18 -0.04,-0.17 -0.05,-0.16 -0.04,-0.15 -0.04,-0.15 -0.05,-0.13 -0.05,-0.13 -0.05,-0.12 -0.05,-0.11 -0.06,-0.11 -0.07,-0.1 -0.07,-0.09 -0.07,-0.09 -0.09,-0.07 -0.09,-0.08 -0.11,-0.06 -0.11,-0.07 -0.13,-0.05 -0.13,-0.05 -0.15,-0.05 -0.16,-0.04 -0.09,-0.02 -0.09,-0.01 -0.09,-0.02 -0.1,-0.02 -0.1,-0.01 -0.1,-0.01 -0.11,-0.01 -0.12,-0.02 -0.11,-0.01 -0.13,-0.01 h -0.12 l -0.13,-0.01 -0.14,-0.01 h -0.14 l -0.14,-0.01 h -0.15 l -0.16,-0.01 h -0.16 -0.16 -0.17 -0.18 -0.18 c -0.85,0 -1.35,0 -1.35,-1 0,-0.55 0.46,-0.55 1.35,-0.55 h 17.78 c 7.87,0 13.75,5.87 13.75,10.76 0,3.58 -2.89,6.47 -7.72,7.02 5.19,0.95 10.42,4.64 10.42,9.38 0,3.68 -3.3,6.87 -9.28,6.87 l -0.69,-1.55 c 4.38,0 5.42,-2.93 5.42,-5.12 0,-4.39 -4.28,-9.13 -10.35,-9.13 h -7.27 l -0.3,-1.09 h 9.41 c 4.78,0 5.73,-3.69 5.73,-5.83 0,-4.94 -4.43,-9.76 -10.31,-9.76 h -6.78 c -0.69,0 -0.8,0 -1.09,0.04 -0.5,0.05 -0.64,0.1 -0.64,0.5 0,0.14 0,0.25 0.25,1.14 l 3.43,13.91 0.3,1.09 3.08,12.36 c 0.45,1.74 0.54,1.89 2.7,1.89 h 6.42 l 0.69,1.55 h -16.73 c -0.94,0 -1.44,0 -1.44,-1 0,-0.55 0.44,-0.55 1.39,-0.55 0.09,0 1.05,0 1.89,-0.09 0.89,-0.11 1.34,-0.16 1.34,-0.8 0,-0.2 -0.04,-0.36 -0.2,-0.95 z"
           inkscape:connector-curvature="0"
           style="fill:#000000;stroke-width:0" /></g>    </g>
  </g>
</svg>
