<?xml version="1.0" encoding="UTF-8" standalone="no"?>
<!-- Created with Inkscape (http://www.inkscape.org/) -->

<svg
   xmlns:dc="http://purl.org/dc/elements/1.1/"
   xmlns:cc="http://creativecommons.org/ns#"
   xmlns:rdf="http://www.w3.org/1999/02/22-rdf-syntax-ns#"
   xmlns:svg="http://www.w3.org/2000/svg"
   xmlns="http://www.w3.org/2000/svg"
   xmlns:sodipodi="http://sodipodi.sourceforge.net/DTD/sodipodi-0.dtd"
   xmlns:inkscape="http://www.inkscape.org/namespaces/inkscape"
   width="1280"
   height="1080"
   viewBox="0 0 338.66668 285.75"
   version="1.1"
   id="svg8"
   inkscape:version="0.92.4 5da689c313, 2019-01-14"
   sodipodi:docname="fig2-3.svg"
   inkscape:export-filename="/home/jakub/Documents/notatki-analiza-III/w/img/fig2-2.png"
   inkscape:export-xdpi="96"
   inkscape:export-ydpi="96">
  <defs
     id="defs2">
    <marker
       inkscape:isstock="true"
       style="overflow:visible;"
       id="marker7138"
       refX="0.0"
       refY="0.0"
       orient="auto"
       inkscape:stockid="Arrow1Lend">
      <path
         transform="scale(0.8) rotate(180) translate(12.5,0)"
         style="fill-rule:evenodd;stroke:#ff0000;stroke-width:1pt;stroke-opacity:1;fill:#ff0000;fill-opacity:1"
         d="M 0.0,0.0 L 5.0,-5.0 L -12.5,0.0 L 5.0,5.0 L 0.0,0.0 z "
         id="path7136" />
    </marker>
    <marker
       inkscape:stockid="Arrow1Mend"
       orient="auto"
       refY="0.0"
       refX="0.0"
       id="Arrow1Mend"
       style="overflow:visible;"
       inkscape:isstock="true">
      <path
         id="path4698"
         d="M 0.0,0.0 L 5.0,-5.0 L -12.5,0.0 L 5.0,5.0 L 0.0,0.0 z "
         style="fill-rule:evenodd;stroke:#ff0000;stroke-width:1pt;stroke-opacity:1;fill:#ff0000;fill-opacity:1"
         transform="scale(0.4) rotate(180) translate(10,0)" />
    </marker>
    <inkscape:path-effect
       effect="bspline"
       id="path-effect14"
       is_visible="true"
       weight="33.333333"
       steps="2"
       helper_size="0"
       apply_no_weight="true"
       apply_with_weight="true"
       only_selected="false" />
    <marker
       inkscape:stockid="Arrow1Lstart"
       orient="auto"
       refY="0.0"
       refX="0.0"
       id="Arrow1Lstart"
       style="overflow:visible"
       inkscape:isstock="true">
      <path
         id="path1405"
         d="M 0.0,0.0 L 5.0,-5.0 L -12.5,0.0 L 5.0,5.0 L 0.0,0.0 z "
         style="fill-rule:evenodd;stroke:#000000;stroke-width:1pt;stroke-opacity:1;fill:#000000;fill-opacity:1"
         transform="scale(0.8) translate(12.5,0)" />
    </marker>
    <marker
       inkscape:stockid="Arrow1Lend"
       orient="auto"
       refY="0.0"
       refX="0.0"
       id="Arrow1Lend"
       style="overflow:visible;"
       inkscape:isstock="true"
       inkscape:collect="always">
      <path
         id="path1408"
         d="M 0.0,0.0 L 5.0,-5.0 L -12.5,0.0 L 5.0,5.0 L 0.0,0.0 z "
         style="fill-rule:evenodd;stroke:#000000;stroke-width:1pt;stroke-opacity:1;fill:#000000;fill-opacity:1"
         transform="scale(0.8) rotate(180) translate(12.5,0)" />
    </marker>
    <marker
       inkscape:stockid="Arrow1Mend"
       orient="auto"
       refY="0"
       refX="0"
       id="Arrow1Mend-3"
       style="overflow:visible"
       inkscape:isstock="true">
      <path
         inkscape:connector-curvature="0"
         id="path4698-6"
         d="M 0,0 5,-5 -12.5,0 5,5 Z"
         style="fill:#5e00ff;fill-opacity:1;fill-rule:evenodd;stroke:#5e00ff;stroke-width:1.00000003pt;stroke-opacity:1"
         transform="matrix(-0.4,0,0,-0.4,-4,0)" />
    </marker>
    <marker
       inkscape:stockid="Arrow1Mend"
       orient="auto"
       refY="0"
       refX="0"
       id="Arrow1Mend-5"
       style="overflow:visible"
       inkscape:isstock="true">
      <path
         inkscape:connector-curvature="0"
         id="path4698-3"
         d="M 0,0 5,-5 -12.5,0 5,5 Z"
         style="fill:#000000;fill-opacity:1;fill-rule:evenodd;stroke:#000000;stroke-width:1.00000003pt;stroke-opacity:1"
         transform="matrix(-0.4,0,0,-0.4,-4,0)" />
    </marker>
    <marker
       inkscape:stockid="Arrow1Mend"
       orient="auto"
       refY="0"
       refX="0"
       id="Arrow1Mend-3-0"
       style="overflow:visible"
       inkscape:isstock="true">
      <path
         inkscape:connector-curvature="0"
         id="path4698-6-6"
         d="M 0,0 5,-5 -12.5,0 5,5 Z"
         style="fill:#00ffd0;fill-opacity:1;fill-rule:evenodd;stroke:#00ffd0;stroke-width:1.00000003pt;stroke-opacity:1"
         transform="matrix(-0.4,0,0,-0.4,-4,0)" />
    </marker>
  </defs>
  <sodipodi:namedview
     id="base"
     pagecolor="#ffffff"
     bordercolor="#666666"
     borderopacity="1.0"
     inkscape:pageopacity="0.0"
     inkscape:pageshadow="2"
     inkscape:zoom="1.668772"
     inkscape:cx="552.15132"
     inkscape:cy="620.42123"
     inkscape:document-units="mm"
     inkscape:current-layer="layer1"
     showgrid="true"
     showguides="true"
     showborder="true"
     borderlayer="true"
     inkscape:showpageshadow="false"
     inkscape:pagecheckerboard="false"
     objecttolerance="10"
     inkscape:snap-path-clip="true"
     inkscape:snap-path-mask="true"
     gridtolerance="10"
     units="px"
     inkscape:guide-bbox="true">
    <inkscape:grid
       id="grid10"
       type="xygrid" />
  </sodipodi:namedview>
  <metadata
     id="metadata5">
    <rdf:RDF>
      <cc:Work
         rdf:about="">
        <dc:format>image/svg+xml</dc:format>
        <dc:type
           rdf:resource="http://purl.org/dc/dcmitype/StillImage" />
        <dc:title></dc:title>
      </cc:Work>
    </rdf:RDF>
  </metadata>
  <g
     inkscape:label="Layer 1"
     inkscape:groupmode="layer"
     id="layer1"
     transform="translate(0,-11.25001)">
    <path
       style="opacity:1;vector-effect:none;fill:none;fill-opacity:1;stroke:#000000;stroke-width:0.89999992;stroke-linecap:butt;stroke-linejoin:miter;stroke-miterlimit:4;stroke-dasharray:none;stroke-dashoffset:0;stroke-opacity:1;marker-end:url(#Arrow1Lend)"
       d="M 37.041666,148.83334 H 296.33333"
       id="path7060"
       inkscape:connector-curvature="0" />
    <g
       id="g7107"
       transform="translate(188.46225,77.842309)">
      <g
         word-spacing="normal"
         letter-spacing="normal"
         font-size-adjust="none"
         font-stretch="normal"
         font-weight="normal"
         font-variant="normal"
         font-style="normal"
         stroke-miterlimit="10.433"
         xml:space="preserve"
         transform="matrix(0.40821429,0,0,-0.40821429,-71.4375,254)"
         id="content"
         style="font-style:normal;font-variant:normal;font-weight:normal;font-stretch:normal;letter-spacing:normal;word-spacing:normal;text-anchor:start;fill:none;fill-opacity:1;fill-rule:evenodd;stroke:#000000;stroke-linecap:butt;stroke-linejoin:miter;stroke-miterlimit:10.43299961;stroke-dasharray:none;stroke-dashoffset:0;stroke-opacity:1"><path
           id="path7102"
           d="m 468.88,421.84 v 1.75 12.3 c 0,1.04 0,2.7 3.08,2.7 4.23,0 6.33,-1.75 6.33,-7.63 0,-6.43 -1.55,-7.37 -9.41,-7.37 v -1.75 h 1.78 l 7.48,-11.56 c 0.49,-0.8 1.69,-2.74 2.24,-3.49 l 1.3,1.16 -8.97,13.89 c 0.34,0.05 0.54,0.11 0.95,0.11 0.73,0 1.84,0.09 2.58,0.19 0.75,-1.19 6.14,-10.07 10.26,-14.19 h -4.82 l -1.3,-1.16 c 0.34,-0.59 0.5,-0.59 1.64,-0.59 h 6.87 c 0.91,0 1.66,0 1.66,0.89 0,0.41 -0.31,0.75 -0.75,0.86 -1.84,0.39 -4.28,3.69 -5.48,5.28 -0.35,0.48 -2.85,3.78 -6.18,9.16 4.43,0.79 8.72,2.68 8.72,8.62 h -1.75 c 0,-3.23 -1.5,-5.78 -6.62,-6.73 v 0 c 1.39,1.84 1.55,4.48 1.55,6.68 0,2.4 -0.3,5.04 -1.9,7.07 2.04,-0.44 6.97,-1.99 6.97,-7.02 h 1.75 c 0,6.92 -7.32,9.31 -13.2,9.31 H 458 c -0.89,0 -1.68,0 -1.68,-0.89 0,-0.84 0.95,-0.84 1.34,-0.84 2.84,0 3.09,-0.36 3.09,-2.84 v -24.97 l 1.74,-0.1 v 25.16 c 0,0.5 0,1.84 -0.39,2.75 h 5.67 c -0.64,-0.8 -0.64,-1.8 -0.64,-2.55 v -25.36 c 0,-0.5 0,-1.84 0.39,-2.73 h -5.42 c 0.39,0.89 0.39,2.28 0.39,2.73 l -1.74,0.1 c 0,-2.49 -0.25,-2.83 -3.09,-2.83 -0.39,0 -1.34,0 -1.34,-0.86 0,-0.89 0.79,-0.89 1.68,-0.89 h 13.66 c 0.89,0 1.64,0 1.64,0.89 0,0.86 -0.84,0.86 -1.39,0.86 -2.84,0 -3.03,0.39 -3.03,2.83 z"
           inkscape:connector-curvature="0"
           style="fill:#000000;stroke-width:0" /><path
           id="path7104"
           d="m 503.19,446.36 v 0.04 0.04 0.04 0.04 0.04 0.04 0.04 0.03 l -0.01,0.04 v 0.03 0.03 0.03 0.03 l -0.01,0.03 v 0.03 0.02 l -0.01,0.03 v 0.02 l -0.01,0.02 v 0.03 l -0.02,0.04 -0.01,0.04 -0.02,0.03 -0.02,0.03 -0.02,0.03 -0.02,0.03 -0.03,0.02 -0.03,0.02 -0.03,0.01 -0.04,0.02 -0.04,0.01 -0.05,0.01 -0.02,0.01 h -0.02 l -0.03,0.01 h -0.03 -0.02 l -0.03,0.01 h -0.03 -0.03 -0.03 -0.04 l -0.03,0.01 h -0.04 -0.03 -0.04 -0.04 -0.04 -0.04 -0.05 -0.04 -0.05 c -2.23,-2.2 -5.39,-2.23 -6.82,-2.23 v -1.25 c 0.84,0 3.14,0 5.04,0.96 v -17.76 c 0,-1.16 0,-1.61 -3.48,-1.61 h -1.31 v -1.25 c 0.62,0.03 4.9,0.14 6.2,0.14 1.08,0 5.47,-0.11 6.23,-0.14 v 1.25 h -1.32 c -3.49,0 -3.49,0.45 -3.49,1.61 z"
           inkscape:connector-curvature="0"
           style="fill:#000000;stroke-width:0" /></g>    </g>
    <path
       style="opacity:1;vector-effect:none;fill:none;fill-opacity:1;stroke:#ff0000;stroke-width:0.9;stroke-linecap:butt;stroke-linejoin:miter;stroke-miterlimit:4;stroke-dasharray:none;stroke-dashoffset:0;stroke-opacity:1;marker-end:url(#Arrow1Mend)"
       d="m 150.8125,148.83334 h 50.27083"
       id="path7128"
       inkscape:connector-curvature="0" />
    <path
       style="opacity:1;vector-effect:none;fill:none;fill-opacity:1;stroke:#5e00ff;stroke-width:0.89999998;stroke-linecap:butt;stroke-linejoin:miter;stroke-miterlimit:4;stroke-dasharray:none;stroke-dashoffset:0;stroke-opacity:1;marker-end:url(#Arrow1Mend-3)"
       d="m 150.78447,147.87478 h 92.60416"
       id="path7212"
       inkscape:connector-curvature="0" />
    <path
       style="opacity:1;vector-effect:none;fill:none;fill-opacity:1;stroke:#00ffd0;stroke-width:0.90000004;stroke-linecap:butt;stroke-linejoin:miter;stroke-miterlimit:4;stroke-dasharray:none;stroke-dashoffset:0;stroke-opacity:1;marker-end:url(#Arrow1Mend-3-0)"
       d="m 150.81249,148.83334 -44.97916,0"
       id="path7212-2"
       inkscape:connector-curvature="0"
       sodipodi:nodetypes="cc" />
    <circle
       id="path8635"
       style="fill:#000000;stroke:none;stroke-width:0.37852418"
       cx="150.8125"
       cy="148.83334"
       r="1.9313673" />
  </g>
</svg>
