<?xml version="1.0" encoding="UTF-8" standalone="no"?>
<!-- Created with Inkscape (http://www.inkscape.org/) -->

<svg
   xmlns:dc="http://purl.org/dc/elements/1.1/"
   xmlns:cc="http://creativecommons.org/ns#"
   xmlns:rdf="http://www.w3.org/1999/02/22-rdf-syntax-ns#"
   xmlns:svg="http://www.w3.org/2000/svg"
   xmlns="http://www.w3.org/2000/svg"
   xmlns:sodipodi="http://sodipodi.sourceforge.net/DTD/sodipodi-0.dtd"
   xmlns:inkscape="http://www.inkscape.org/namespaces/inkscape"
   width="1280"
   height="1080"
   viewBox="0 0 338.66668 285.75"
   version="1.1"
   id="svg8"
   inkscape:version="0.92.4 5da689c313, 2019-01-14"
   sodipodi:docname="fig2-6.svg"
   inkscape:export-filename="/home/jakub/Documents/notatki-analiza-III/w/img/fig2-6.png"
   inkscape:export-xdpi="96"
   inkscape:export-ydpi="96">
  <defs
     id="defs2">
    <marker
       inkscape:stockid="Arrow1Mend"
       orient="auto"
       refY="0"
       refX="0"
       id="marker10818"
       style="overflow:visible"
       inkscape:isstock="true">
      <path
         inkscape:connector-curvature="0"
         id="path10816"
         d="M 0,0 5,-5 -12.5,0 5,5 Z"
         style="fill:#000000;fill-opacity:1;fill-rule:evenodd;stroke:#000000;stroke-width:1.00000003pt;stroke-opacity:1"
         transform="matrix(-0.4,0,0,-0.4,-4,0)" />
    </marker>
    <inkscape:path-effect
       effect="bspline"
       id="path-effect10798"
       is_visible="true"
       weight="33.333333"
       steps="2"
       helper_size="0"
       apply_no_weight="true"
       apply_with_weight="true"
       only_selected="false" />
    <inkscape:path-effect
       effect="bspline"
       id="path-effect10593"
       is_visible="true"
       weight="33.333333"
       steps="2"
       helper_size="0"
       apply_no_weight="true"
       apply_with_weight="true"
       only_selected="false" />
    <inkscape:perspective
       sodipodi:type="inkscape:persp3d"
       inkscape:vp_x="0 : 142.875 : 1"
       inkscape:vp_y="0 : 1000 : 0"
       inkscape:vp_z="338.66668 : 142.875 : 1"
       inkscape:persp3d-origin="169.33334 : 95.25 : 1"
       id="perspective10501" />
    <marker
       inkscape:isstock="true"
       style="overflow:visible"
       id="marker10309"
       refX="0"
       refY="0"
       orient="auto"
       inkscape:stockid="Arrow1Mend"
       inkscape:collect="always">
      <path
         transform="matrix(-0.4,0,0,-0.4,-4,0)"
         style="fill:#000000;fill-opacity:1;fill-rule:evenodd;stroke:#000000;stroke-width:1.00000003pt;stroke-opacity:1"
         d="M 0,0 5,-5 -12.5,0 5,5 Z"
         id="path10307"
         inkscape:connector-curvature="0" />
    </marker>
    <marker
       inkscape:isstock="true"
       style="overflow:visible"
       id="marker10111"
       refX="0.0"
       refY="0.0"
       orient="auto"
       inkscape:stockid="Arrow1Mstart">
      <path
         transform="scale(0.4) translate(10,0)"
         style="fill-rule:evenodd;stroke:#000000;stroke-width:1pt;stroke-opacity:1;fill:#000000;fill-opacity:1"
         d="M 0.0,0.0 L 5.0,-5.0 L -12.5,0.0 L 5.0,5.0 L 0.0,0.0 z "
         id="path10109" />
    </marker>
    <inkscape:path-effect
       effect="bspline"
       id="path-effect9340"
       is_visible="true"
       weight="33.333333"
       steps="2"
       helper_size="0"
       apply_no_weight="true"
       apply_with_weight="true"
       only_selected="false" />
    <marker
       inkscape:stockid="Arrow1Mend"
       orient="auto"
       refY="0.0"
       refX="0.0"
       id="Arrow1Mend"
       style="overflow:visible;"
       inkscape:isstock="true">
      <path
         id="path4698"
         d="M 0.0,0.0 L 5.0,-5.0 L -12.5,0.0 L 5.0,5.0 L 0.0,0.0 z "
         style="fill-rule:evenodd;stroke:#000000;stroke-width:1pt;stroke-opacity:1;fill:#000000;fill-opacity:1"
         transform="scale(0.4) rotate(180) translate(10,0)" />
    </marker>
    <inkscape:path-effect
       effect="bspline"
       id="path-effect14"
       is_visible="true"
       weight="33.333333"
       steps="2"
       helper_size="0"
       apply_no_weight="true"
       apply_with_weight="true"
       only_selected="false" />
    <marker
       inkscape:stockid="Arrow1Lstart"
       orient="auto"
       refY="0.0"
       refX="0.0"
       id="Arrow1Lstart"
       style="overflow:visible"
       inkscape:isstock="true">
      <path
         id="path1405"
         d="M 0.0,0.0 L 5.0,-5.0 L -12.5,0.0 L 5.0,5.0 L 0.0,0.0 z "
         style="fill-rule:evenodd;stroke:#000000;stroke-width:1pt;stroke-opacity:1;fill:#000000;fill-opacity:1"
         transform="scale(0.8) translate(12.5,0)" />
    </marker>
    <marker
       inkscape:stockid="Arrow1Lend"
       orient="auto"
       refY="0.0"
       refX="0.0"
       id="Arrow1Lend"
       style="overflow:visible;"
       inkscape:isstock="true">
      <path
         id="path1408"
         d="M 0.0,0.0 L 5.0,-5.0 L -12.5,0.0 L 5.0,5.0 L 0.0,0.0 z "
         style="fill-rule:evenodd;stroke:#000000;stroke-width:1pt;stroke-opacity:1;fill:#000000;fill-opacity:1"
         transform="scale(0.8) rotate(180) translate(12.5,0)" />
    </marker>
    <marker
       inkscape:stockid="Arrow1Mend"
       orient="auto"
       refY="0"
       refX="0"
       id="Arrow1Mend-5"
       style="overflow:visible"
       inkscape:isstock="true">
      <path
         inkscape:connector-curvature="0"
         id="path4698-3"
         d="M 0,0 5,-5 -12.5,0 5,5 Z"
         style="fill:#000000;fill-opacity:1;fill-rule:evenodd;stroke:#000000;stroke-width:1.00000003pt;stroke-opacity:1"
         transform="matrix(-0.4,0,0,-0.4,-4,0)" />
    </marker>
    <inkscape:path-effect
       effect="bspline"
       id="path-effect9340-7"
       is_visible="true"
       weight="33.333333"
       steps="2"
       helper_size="0"
       apply_no_weight="true"
       apply_with_weight="true"
       only_selected="false" />
    <inkscape:path-effect
       effect="bspline"
       id="path-effect9340-2"
       is_visible="true"
       weight="33.333333"
       steps="2"
       helper_size="0"
       apply_no_weight="true"
       apply_with_weight="true"
       only_selected="false" />
    <inkscape:path-effect
       effect="bspline"
       id="path-effect9340-4"
       is_visible="true"
       weight="33.333333"
       steps="2"
       helper_size="0"
       apply_no_weight="true"
       apply_with_weight="true"
       only_selected="false" />
  </defs>
  <sodipodi:namedview
     id="base"
     pagecolor="#ffffff"
     bordercolor="#666666"
     borderopacity="1.0"
     inkscape:pageopacity="0.0"
     inkscape:pageshadow="2"
     inkscape:zoom="0.417193"
     inkscape:cx="1200.0729"
     inkscape:cy="695.65347"
     inkscape:document-units="mm"
     inkscape:current-layer="layer1"
     showgrid="true"
     showguides="true"
     showborder="true"
     borderlayer="true"
     inkscape:showpageshadow="false"
     inkscape:pagecheckerboard="false"
     objecttolerance="10"
     inkscape:snap-path-clip="true"
     inkscape:snap-path-mask="true"
     gridtolerance="10"
     units="px"
     inkscape:guide-bbox="true">
    <inkscape:grid
       id="grid10"
       type="xygrid" />
  </sodipodi:namedview>
  <metadata
     id="metadata5">
    <rdf:RDF>
      <cc:Work
         rdf:about="">
        <dc:format>image/svg+xml</dc:format>
        <dc:type
           rdf:resource="http://purl.org/dc/dcmitype/StillImage" />
        <dc:title></dc:title>
      </cc:Work>
    </rdf:RDF>
  </metadata>
  <g
     inkscape:label="Layer 1"
     inkscape:groupmode="layer"
     id="layer1"
     transform="translate(0,-11.25001)">
    <ellipse
       style="opacity:1;vector-effect:none;fill:none;fill-opacity:1;fill-rule:evenodd;stroke:#000000;stroke-width:0.89999992;stroke-linecap:butt;stroke-linejoin:miter;stroke-miterlimit:4;stroke-dasharray:none;stroke-dashoffset:0;stroke-opacity:1"
       id="path10589"
       cx="179.91667"
       cy="188.52084"
       rx="116.41666"
       ry="50.270832" />
    <path
       style="opacity:1;vector-effect:none;fill:none;fill-opacity:1;stroke:#000000;stroke-width:0.89999992;stroke-linecap:butt;stroke-linejoin:miter;stroke-miterlimit:4;stroke-dasharray:none;stroke-dashoffset:0;stroke-opacity:1"
       d="m 63.499999,185.87501 c 7.055547,-26.4583 14.111102,-52.91663 33.514241,-78.49331 19.40314,-25.576688 51.15256,-50.270679 84.66649,-49.388601 33.51394,0.882079 68.79147,27.340226 88.19424,53.798481 19.40278,26.45826 22.93056,52.91657 26.45836,79.37509"
       id="path10591"
       inkscape:connector-curvature="0"
       inkscape:path-effect="#path-effect10593"
       inkscape:original-d="m 63.499999,185.87501 c 7.055727,-26.45825 14.111283,-52.91658 21.166668,-79.375 31.750683,-24.695037 63.500103,-49.389025 95.250003,-74.083333 35.27822,26.458206 70.55575,52.916349 105.83333,79.375003 3.52805,26.45812 7.05582,52.91643 10.58333,79.37499"
       sodipodi:nodetypes="ccccc" />
    <g
       id="g10625"
       transform="translate(130.73682,-19.028302)">
      <g
         word-spacing="normal"
         letter-spacing="normal"
         font-size-adjust="none"
         font-stretch="normal"
         font-weight="normal"
         font-variant="normal"
         font-style="normal"
         stroke-miterlimit="10.433"
         xml:space="preserve"
         transform="matrix(0.40821429,0,0,-0.40821429,-71.4375,254)"
         id="content"
         style="font-style:normal;font-variant:normal;font-weight:normal;font-stretch:normal;letter-spacing:normal;word-spacing:normal;text-anchor:start;fill:none;fill-opacity:1;fill-rule:evenodd;stroke:#000000;stroke-linecap:butt;stroke-linejoin:miter;stroke-miterlimit:10.43299961;stroke-dasharray:none;stroke-dashoffset:0;stroke-opacity:1"><path
           id="path10620"
           d="m 487.66,440.82 v 0.02 0.02 0.01 l -0.01,0.02 v 0.02 0.02 l -0.01,0.02 v 0.02 l -0.01,0.02 -0.01,0.02 -0.01,0.02 -0.01,0.02 -0.01,0.02 -0.01,0.02 -0.01,0.02 -0.02,0.02 -0.02,0.02 -0.01,0.02 -0.02,0.02 -0.02,0.02 -0.02,0.01 -0.03,0.02 -0.02,0.01 -0.03,0.02 -0.02,0.01 -0.03,0.01 -0.02,0.01 h -0.01 l -0.02,0.01 h -0.02 -0.01 l -0.02,0.01 h -0.02 -0.02 -0.02 -0.02 -0.02 -0.02 c -0.25,0 -0.31,-0.04 -0.9,-0.75 l -2.39,-2.84 c -1.3,2.34 -3.89,3.59 -7.13,3.59 -6.33,0 -12.3,-5.73 -12.3,-11.76 0,-4.03 2.65,-6.33 5.18,-7.06 l 5.32,-1.41 c 1.85,-0.44 4.6,-1.19 4.6,-5.28 0,-4.49 -4.1,-9.16 -8.97,-9.16 -3.19,0 -8.72,1.1 -8.72,7.27 0,1.2 0.25,2.39 0.3,2.69 0.04,0.2 0.09,0.25 0.09,0.35 0,0.5 -0.34,0.55 -0.59,0.55 -0.25,0 -0.35,-0.05 -0.5,-0.2 -0.21,-0.2 -2.99,-11.56 -2.99,-11.7 0,-0.3 0.25,-0.5 0.55,-0.5 0.25,0 0.3,0.04 0.89,0.75 l 2.45,2.82 c 2.14,-2.89 5.52,-3.57 8.41,-3.57 6.78,0 12.66,6.62 12.66,12.79 0,3.44 -1.69,5.14 -2.44,5.83 -1.14,1.16 -1.89,1.34 -6.33,2.5 -1.09,0.3 -2.89,0.8 -3.34,0.89 -1.35,0.45 -3.03,1.89 -3.03,4.53 0,4.05 3.98,8.28 8.71,8.28 4.15,0 7.18,-2.14 7.18,-7.73 0,-1.59 -0.21,-2.49 -0.21,-2.78 0,-0.05 0,-0.5 0.61,-0.5 0.5,0 0.55,0.15 0.74,1 z"
           inkscape:connector-curvature="0"
           style="fill:#000000;stroke-width:0" /><path
           id="path10622"
           d="m 497.79,420.92 v 0.04 0.04 0.05 0.04 0.03 0.04 0.04 0.03 0.04 0.03 l -0.01,0.03 v 0.03 0.03 l -0.01,0.03 v 0.03 0.02 l -0.01,0.03 v 0.02 l -0.01,0.03 v 0.02 l -0.01,0.04 -0.02,0.04 -0.02,0.03 -0.02,0.03 -0.02,0.03 -0.02,0.03 -0.03,0.02 -0.03,0.02 -0.03,0.02 -0.04,0.01 -0.04,0.01 -0.05,0.02 h -0.02 -0.02 l -0.03,0.01 h -0.03 l -0.02,0.01 h -0.03 -0.03 -0.03 -0.03 l -0.04,0.01 h -0.03 -0.04 -0.03 -0.04 -0.04 -0.04 -0.04 -0.04 -0.05 -0.04 c -2.24,-2.2 -5.39,-2.23 -6.83,-2.23 v -1.25 c 0.84,0 3.14,0 5.04,0.97 v -17.77 c 0,-1.16 0,-1.61 -3.48,-1.61 h -1.31 v -1.25 c 0.62,0.03 4.9,0.14 6.2,0.14 1.08,0 5.47,-0.11 6.24,-0.14 v 1.25 h -1.33 c -3.49,0 -3.49,0.45 -3.49,1.61 z"
           inkscape:connector-curvature="0"
           style="fill:#000000;stroke-width:0" /></g>    </g>
    <g
       id="g10669"
       transform="translate(52.175833,135.74569)">
      <g
         word-spacing="normal"
         letter-spacing="normal"
         font-size-adjust="none"
         font-stretch="normal"
         font-weight="normal"
         font-variant="normal"
         font-style="normal"
         stroke-miterlimit="10.433"
         xml:space="preserve"
         transform="matrix(0.40821429,0,0,-0.40821429,-71.4375,254)"
         id="g10667"
         style="font-style:normal;font-variant:normal;font-weight:normal;font-stretch:normal;letter-spacing:normal;word-spacing:normal;text-anchor:start;fill:none;fill-opacity:1;fill-rule:evenodd;stroke:#000000;stroke-linecap:butt;stroke-linejoin:miter;stroke-miterlimit:10.43299961;stroke-dasharray:none;stroke-dashoffset:0;stroke-opacity:1"><path
           id="path10663"
           d="m 487.66,440.82 v 0.02 0.02 0.01 l -0.01,0.02 v 0.02 0.02 l -0.01,0.02 v 0.02 l -0.01,0.02 -0.01,0.02 -0.01,0.02 -0.01,0.02 -0.01,0.02 -0.01,0.02 -0.01,0.02 -0.02,0.02 -0.02,0.02 -0.01,0.02 -0.02,0.02 -0.02,0.02 -0.02,0.01 -0.03,0.02 -0.02,0.01 -0.03,0.02 -0.02,0.01 -0.03,0.01 -0.02,0.01 h -0.01 l -0.02,0.01 h -0.02 -0.01 l -0.02,0.01 h -0.02 -0.02 -0.02 -0.02 -0.02 -0.02 c -0.25,0 -0.31,-0.04 -0.9,-0.75 l -2.39,-2.84 c -1.3,2.34 -3.89,3.59 -7.13,3.59 -6.33,0 -12.3,-5.73 -12.3,-11.76 0,-4.03 2.65,-6.33 5.18,-7.06 l 5.32,-1.41 c 1.85,-0.44 4.6,-1.19 4.6,-5.28 0,-4.49 -4.1,-9.16 -8.97,-9.16 -3.19,0 -8.72,1.1 -8.72,7.27 0,1.2 0.25,2.39 0.3,2.69 0.04,0.2 0.09,0.25 0.09,0.35 0,0.5 -0.34,0.55 -0.59,0.55 -0.25,0 -0.35,-0.05 -0.5,-0.2 -0.21,-0.2 -2.99,-11.56 -2.99,-11.7 0,-0.3 0.25,-0.5 0.55,-0.5 0.25,0 0.3,0.04 0.89,0.75 l 2.45,2.82 c 2.14,-2.89 5.52,-3.57 8.41,-3.57 6.78,0 12.66,6.62 12.66,12.79 0,3.44 -1.69,5.14 -2.44,5.83 -1.14,1.16 -1.89,1.34 -6.33,2.5 -1.09,0.3 -2.89,0.8 -3.34,0.89 -1.35,0.45 -3.03,1.89 -3.03,4.53 0,4.05 3.98,8.28 8.71,8.28 4.15,0 7.18,-2.14 7.18,-7.73 0,-1.59 -0.21,-2.49 -0.21,-2.78 0,-0.05 0,-0.5 0.61,-0.5 0.5,0 0.55,0.15 0.74,1 z"
           inkscape:connector-curvature="0"
           style="fill:#000000;stroke-width:0" /><path
           id="path10665"
           d="m 503.71,405.11 h -1.18 c -0.1,-0.77 -0.46,-2.83 -0.91,-3.18 -0.26,-0.2 -2.95,-0.2 -3.44,-0.2 h -6.42 c 3.66,3.23 4.88,4.2 6.97,5.84 2.58,2.07 4.98,4.22 4.98,7.54 0,4.21 -3.68,6.79 -8.15,6.79 -4.31,0 -7.25,-3.03 -7.25,-6.23 0,-1.78 1.5,-1.96 1.86,-1.96 0.83,0 1.84,0.6 1.84,1.85 0,0.62 -0.25,1.84 -2.06,1.84 1.08,2.47 3.45,3.24 5.09,3.24 3.49,0 5.3,-2.71 5.3,-5.53 0,-3.04 -2.16,-5.44 -3.28,-6.69 l -8.39,-8.3 c -0.36,-0.31 -0.36,-0.39 -0.36,-1.36 h 14.36 z"
           inkscape:connector-curvature="0"
           style="fill:#000000;stroke-width:0" /></g>    </g>
    <g
       id="g10721"
       transform="matrix(0.68232539,0,0,0.68232539,133.37227,36.250585)">
      <g
         word-spacing="normal"
         letter-spacing="normal"
         font-size-adjust="none"
         font-stretch="normal"
         font-weight="normal"
         font-variant="normal"
         font-style="normal"
         stroke-miterlimit="10.433"
         xml:space="preserve"
         transform="matrix(0.40821429,0,0,-0.40821429,-71.4375,254)"
         id="g10719"
         style="font-style:normal;font-variant:normal;font-weight:normal;font-stretch:normal;letter-spacing:normal;word-spacing:normal;text-anchor:start;fill:none;fill-opacity:1;fill-rule:evenodd;stroke:#000000;stroke-linecap:butt;stroke-linejoin:miter;stroke-miterlimit:10.43299961;stroke-dasharray:none;stroke-dashoffset:0;stroke-opacity:1"><path
           id="path10711"
           d="m 492.9,437.54 -0.05,0.19 -0.06,0.19 -0.06,0.19 -0.07,0.19 -0.07,0.19 -0.08,0.18 -0.09,0.18 -0.1,0.19 -0.1,0.17 -0.11,0.18 -0.12,0.17 -0.13,0.17 -0.13,0.16 -0.15,0.16 -0.14,0.16 -0.16,0.14 -0.17,0.15 -0.17,0.13 -0.19,0.13 -0.19,0.12 -0.2,0.12 -0.2,0.11 -0.22,0.09 -0.23,0.09 -0.23,0.08 -0.25,0.08 -0.25,0.06 -0.26,0.05 -0.28,0.04 -0.28,0.03 -0.29,0.02 h -0.3 l 0.13,-0.98 c 3.39,0 4.5,-2.64 4.5,-4.74 0,-2.32 -2.27,-9.75 -8.11,-9.75 v 0 c -3.94,0 -4.39,2.96 -4.39,4.03 0,1.36 0.93,4.79 1.28,5.66 0.62,1.59 2.79,4.8 6.72,4.8 l -0.13,0.98 c -4.89,0 -8.92,-3.65 -10.19,-6.79 -0.2,-0.6 -0.68,-2.02 -0.68,-3.43 0,-2.39 1.87,-6.37 7.31,-6.37 9.03,0 12.69,11.26 12.69,16.2 0,5.97 -3.91,9.38 -8.58,9.38 -5.67,0 -7.25,-4.53 -7.25,-5.61 0,-0.28 0.18,-1.25 1.4,-1.25 1.22,0 1.94,1.08 1.94,1.92 0,0.94 -0.69,1.25 -1.34,1.31 1.73,2.63 4.59,2.63 5.18,2.63 2.61,0 5.72,-1.64 5.72,-6.6 0,-1.5 -0.18,-2.72 -0.84,-5.5 z"
           inkscape:connector-curvature="0"
           style="fill:#000000;stroke-width:0" /><polyline
           id="polyline10713"
           points="462,418 511.68,418 511.68,420.04 462,420.04 "
           style="fill:#000000;fill-rule:nonzero;stroke-width:0" /><path
           id="path10715"
           d="m 479.82,400.82 -0.05,0.19 -0.06,0.19 -0.06,0.19 -0.07,0.19 -0.07,0.18 -0.09,0.19 -0.08,0.18 -0.1,0.18 -0.11,0.18 -0.11,0.18 -0.12,0.17 -0.12,0.17 -0.14,0.16 -0.14,0.16 -0.15,0.15 -0.15,0.15 -0.17,0.14 -0.17,0.14 -0.19,0.13 -0.19,0.12 -0.2,0.12 -0.21,0.1 -0.21,0.1 -0.23,0.09 -0.23,0.08 -0.25,0.07 -0.25,0.06 -0.27,0.06 -0.27,0.04 -0.28,0.03 -0.29,0.01 -0.3,0.01 0.12,-0.98 c 3.39,0 4.5,-2.65 4.5,-4.74 0,-2.33 -2.26,-9.75 -8.11,-9.75 v 0 c -3.93,0 -4.39,2.95 -4.39,4.03 0,1.36 0.94,4.78 1.28,5.66 0.63,1.59 2.8,4.8 6.72,4.8 l -0.12,0.98 c -4.89,0 -8.92,-3.66 -10.19,-6.8 -0.2,-0.59 -0.69,-2.01 -0.69,-3.42 0,-2.39 1.88,-6.37 7.32,-6.37 9.03,0 12.68,11.26 12.68,16.2 0,5.97 -3.9,9.37 -8.57,9.37 -5.68,0 -7.25,-4.53 -7.25,-5.61 0,-0.28 0.18,-1.25 1.4,-1.25 1.22,0 1.94,1.08 1.94,1.93 0,0.93 -0.69,1.25 -1.34,1.31 1.73,2.62 4.59,2.62 5.18,2.62 2.61,0 5.72,-1.64 5.72,-6.59 0,-1.5 -0.19,-2.72 -0.84,-5.5 z"
           inkscape:connector-curvature="0"
           style="fill:#000000;stroke-width:0" /><path
           id="path10717"
           d="m 495.93,388.73 0.07,-0.01 h 0.08 l 0.07,-0.01 h 0.07 l 0.15,-0.01 h 0.15 0.15 0.15 0.15 0.15 c 6.27,0 12.02,5.12 12.02,10.62 l -1.25,-0.7 c 0,-3.52 -4.39,-7.57 -10.39,-7.57 -0.32,0 -0.8,0 -1.11,0.05 v 0 c 0.68,4 0.97,5.56 2.64,7.83 1.58,2.12 3.42,3.11 5.15,3.11 2.41,0 3.71,-1.61 3.71,-3.42 l 1.25,0.7 c 0,3.09 -1.85,5.08 -4.57,5.08 -4.81,0 -7.36,-6.13 -8.32,-8.74 -0.46,-1.29 -1.22,-3.73 -1.44,-4.39 -3.83,0.52 -6.27,2.27 -6.27,4.85 0,0.03 0.21,3.93 3.03,7.06 0.25,0.25 0.29,0.31 0.29,0.45 0,0.42 -0.46,0.42 -0.57,0.42 -0.31,0 -0.45,0 -1.11,-0.76 -1.95,-2.41 -2.86,-6.03 -2.86,-7.53 0,-3.1 2.27,-5.78 6.77,-6.75 -1.75,-5.41 -1.95,-6.06 -1.95,-6.38 0,-0.95 0.79,-1.12 1.17,-1.12 0.39,0 1.09,0.25 1.36,0.76 0.25,0.53 0.56,2.32 1.26,6.46 z"
           inkscape:connector-curvature="0"
           style="fill:#000000;stroke-width:0" /></g>    </g>
    <g
       id="g10781"
       transform="matrix(0.71937077,0,0,0.71937077,79.262706,65.205071)">
      <g
         word-spacing="normal"
         letter-spacing="normal"
         font-size-adjust="none"
         font-stretch="normal"
         font-weight="normal"
         font-variant="normal"
         font-style="normal"
         stroke-miterlimit="10.433"
         xml:space="preserve"
         transform="matrix(0.40821429,0,0,-0.40821429,-71.4375,254)"
         id="g10779"
         style="font-style:normal;font-variant:normal;font-weight:normal;font-stretch:normal;letter-spacing:normal;word-spacing:normal;text-anchor:start;fill:none;fill-opacity:1;fill-rule:evenodd;stroke:#000000;stroke-linecap:butt;stroke-linejoin:miter;stroke-miterlimit:10.43299961;stroke-dasharray:none;stroke-dashoffset:0;stroke-opacity:1"><path
           id="path10771"
           d="m 489.9,437.54 -0.05,0.19 -0.06,0.19 -0.06,0.19 -0.07,0.19 -0.07,0.19 -0.08,0.18 -0.09,0.18 -0.1,0.19 -0.1,0.17 -0.11,0.18 -0.12,0.17 -0.13,0.17 -0.13,0.16 -0.15,0.16 -0.14,0.16 -0.16,0.14 -0.17,0.15 -0.17,0.13 -0.19,0.13 -0.19,0.12 -0.2,0.12 -0.2,0.11 -0.22,0.09 -0.23,0.09 -0.23,0.08 -0.25,0.08 -0.25,0.06 -0.26,0.05 -0.28,0.04 -0.28,0.03 -0.29,0.02 h -0.3 l 0.13,-0.98 c 3.39,0 4.5,-2.64 4.5,-4.74 0,-2.32 -2.27,-9.75 -8.11,-9.75 v 0 c -3.94,0 -4.39,2.96 -4.39,4.03 0,1.36 0.93,4.79 1.28,5.66 0.62,1.59 2.79,4.8 6.72,4.8 l -0.13,0.98 c -4.89,0 -8.92,-3.65 -10.19,-6.79 -0.2,-0.6 -0.68,-2.02 -0.68,-3.43 0,-2.39 1.87,-6.37 7.31,-6.37 9.03,0 12.69,11.26 12.69,16.2 0,5.97 -3.91,9.38 -8.58,9.38 -5.67,0 -7.25,-4.53 -7.25,-5.61 0,-0.28 0.18,-1.25 1.4,-1.25 1.22,0 1.94,1.08 1.94,1.92 0,0.94 -0.69,1.25 -1.34,1.31 1.73,2.63 4.59,2.63 5.18,2.63 2.61,0 5.72,-1.64 5.72,-6.6 0,-1.5 -0.18,-2.72 -0.84,-5.5 z"
           inkscape:connector-curvature="0"
           style="fill:#000000;stroke-width:0" /><polyline
           id="polyline10773"
           points="462,418 505.56,418 505.56,420.04 462,420.04 "
           style="fill:#000000;fill-rule:nonzero;stroke-width:0" /><path
           id="path10775"
           d="m 479.82,400.82 -0.05,0.19 -0.06,0.19 -0.06,0.19 -0.07,0.19 -0.07,0.18 -0.09,0.19 -0.08,0.18 -0.1,0.18 -0.11,0.18 -0.11,0.18 -0.12,0.17 -0.12,0.17 -0.14,0.16 -0.14,0.16 -0.15,0.15 -0.15,0.15 -0.17,0.14 -0.17,0.14 -0.19,0.13 -0.19,0.12 -0.2,0.12 -0.21,0.1 -0.21,0.1 -0.23,0.09 -0.23,0.08 -0.25,0.07 -0.25,0.06 -0.27,0.06 -0.27,0.04 -0.28,0.03 -0.29,0.01 -0.3,0.01 0.12,-0.98 c 3.39,0 4.5,-2.65 4.5,-4.74 0,-2.33 -2.26,-9.75 -8.11,-9.75 v 0 c -3.93,0 -4.39,2.95 -4.39,4.03 0,1.36 0.94,4.78 1.28,5.66 0.63,1.59 2.8,4.8 6.72,4.8 l -0.12,0.98 c -4.89,0 -8.92,-3.66 -10.19,-6.8 -0.2,-0.59 -0.69,-2.01 -0.69,-3.42 0,-2.39 1.88,-6.37 7.32,-6.37 9.03,0 12.68,11.26 12.68,16.2 0,5.97 -3.9,9.37 -8.57,9.37 -5.68,0 -7.25,-4.53 -7.25,-5.61 0,-0.28 0.18,-1.25 1.4,-1.25 1.22,0 1.94,1.08 1.94,1.93 0,0.93 -0.69,1.25 -1.34,1.31 1.73,2.62 4.59,2.62 5.18,2.62 2.61,0 5.72,-1.64 5.72,-6.59 0,-1.5 -0.19,-2.72 -0.84,-5.5 z"
           inkscape:connector-curvature="0"
           style="fill:#000000;stroke-width:0" /><path
           id="path10777"
           d="m 502.73,406.01 v 0.34 l -0.02,0.35 -0.02,0.34 -0.03,0.34 -0.04,0.34 -0.04,0.34 -0.06,0.34 -0.06,0.33 -0.08,0.33 -0.08,0.32 -0.09,0.32 -0.1,0.31 -0.12,0.3 -0.12,0.29 -0.13,0.29 -0.14,0.27 -0.15,0.26 -0.16,0.26 -0.17,0.23 -0.18,0.23 -0.19,0.21 -0.21,0.2 -0.21,0.19 -0.22,0.16 -0.24,0.15 -0.24,0.14 -0.26,0.11 -0.27,0.1 -0.28,0.07 -0.29,0.06 -0.3,0.03 -0.31,0.01 -0.03,-0.97 c 2.22,0 2.22,-3.87 2.22,-4.53 0,-1.36 -0.29,-3.39 -1,-6.31 h -8.07 c 1.78,7.53 4.78,10.84 6.85,10.84 l 0.03,0.97 c -5.24,0 -10.81,-9.34 -10.81,-17.31 0,-4.16 1.6,-7.56 4.81,-7.56 l 0.03,0.96 c -1.91,0 -2.22,2.66 -2.22,4.54 0,2.29 0.66,5.01 1,6.31 h 8.06 c -0.98,-3.8 -1.78,-5.69 -2.83,-7.39 -1.07,-1.82 -2.46,-3.46 -4.01,-3.46 l -0.03,-0.96 c 5.29,0 10.81,9.51 10.81,17.31 z"
           inkscape:connector-curvature="0"
           style="fill:#000000;stroke-width:0" /></g>    </g>
    <path
       style="opacity:1;vector-effect:none;fill:none;fill-opacity:1;stroke:#000000;stroke-width:0.7;stroke-linecap:butt;stroke-linejoin:miter;stroke-miterlimit:4;stroke-dasharray:none;stroke-dashoffset:0;stroke-opacity:1;marker-end:url(#marker10309)"
       d="m 178.92085,98.562511 3.96875,21.166669"
       id="path10800"
       inkscape:connector-curvature="0"
       sodipodi:nodetypes="cc" />
    <path
       style="opacity:1;vector-effect:none;fill:none;fill-opacity:1;stroke:#000000;stroke-width:0.7;stroke-linecap:butt;stroke-linejoin:miter;stroke-miterlimit:4;stroke-dasharray:none;stroke-dashoffset:0;stroke-opacity:1;marker-end:url(#marker10818)"
       d="m 178.92085,98.562511 26.13123,-5.291668"
       id="path10802"
       inkscape:connector-curvature="0"
       sodipodi:nodetypes="cc" />
  </g>
</svg>
